MonoidBold.sfdir
StartChar: uni001E
Encoding: 30 30 627
Width: 1792
VWidth: 0
InSpiro: 1
Flags: H
LayerCount: 5
Back
SplineSet
384 256 m 0
 425.234375 256 454 227.296875 454 186 c 0
 454 144.703125 425.234375 116 384 116 c 0
 342.765625 116 314 144.703125 314 186 c 0
 314 227.296875 342.765625 256 384 256 c 0
  Spiro
    384 256 o
    420.443 247.046 o
    445.032 222.471 o
    454 186 o
    445.032 149.529 o
    420.443 124.954 o
    384 116 o
    347.557 124.954 o
    322.968 149.529 o
    314 186 o
    322.968 222.471 o
    347.557 247.046 o
    0 0 z
  EndSpiro
384 140 m 0
 425.234375 140 454 111.296875 454 70 c 0
 454 28.703125 425.234375 0 384 0 c 0
 342.765625 0 314 28.703125 314 70 c 0
 314 111.296875 342.765625 140 384 140 c 0
  Spiro
    384 140 o
    420.443 131.046 o
    445.032 106.471 o
    454 70 o
    445.032 33.5288 o
    420.443 8.95373 o
    384 0 o
    347.557 8.95373 o
    322.968 33.5288 o
    314 70 o
    322.968 106.471 o
    347.557 131.046 o
    0 0 z
  EndSpiro
128 256 m 0
 169.234375 256 198 227.296875 198 186 c 0
 198 144.703125 169.234375 116 128 116 c 0
 86.765625 116 58 144.703125 58 186 c 0
 58 227.296875 86.765625 256 128 256 c 0
  Spiro
    128 256 o
    164.443 247.046 o
    189.032 222.471 o
    198 186 o
    189.032 149.529 o
    164.443 124.954 o
    128 116 o
    91.5566 124.954 o
    66.9676 149.529 o
    58 186 o
    66.9676 222.471 o
    91.5566 247.046 o
    0 0 z
  EndSpiro
128 140 m 0
 169.234375 140 198 111.296875 198 70 c 0
 198 28.703125 169.234375 0 128 0 c 0
 86.765625 0 58 28.703125 58 70 c 0
 58 111.296875 86.765625 140 128 140 c 0
  Spiro
    128 140 o
    164.443 131.046 o
    189.032 106.471 o
    198 70 o
    189.032 33.5288 o
    164.443 8.95373 o
    128 0 o
    91.5566 8.95373 o
    66.9676 33.5288 o
    58 70 o
    66.9676 106.471 o
    91.5566 131.046 o
    0 0 z
  EndSpiro
EndSplineSet
Fore
Layer: 2
Layer: 3
Layer: 4
EndChar
StartChar: exclam
Encoding: 33 33 56
Width: 1024
VWidth: 0
Flags: MW
HStem: -16 288<474.535 677.465> 1388 20G<502 650>
VStem: 512 128<512 1408>
LayerCount: 5
Back
Fore
SplineSet
576 272 m 0
 661 272 720 213 720 128 c 0
 720 43 661 -16 576 -16 c 0
 491 -16 432 43 432 128 c 0
 432 213 491 272 576 272 c 0
640 512 m 1
 512 512 l 1
 502 1408 l 1
 650 1408 l 1
 640 512 l 1
EndSplineSet
Layer: 2
Layer: 3
Layer: 4
EndChar
StartChar: quotedbl
Encoding: 34 34 57
Width: 1024
VWidth: 0
Flags: W
HStem: 1388 20G<369 527 753 911>
VStem: 369 158<768 1408> 753 158<768 1408>
LayerCount: 5
Back
Fore
SplineSet
753 1408 m 5
 911 1408 l 5
 911 768 l 5
 753 768 l 5
 753 1408 l 5
369 1408 m 5
 527 1408 l 5
 527 768 l 5
 369 768 l 5
 369 1408 l 5
EndSplineSet
Validated: 1
Layer: 2
Layer: 3
Layer: 4
EndChar
StartChar: dollar
Encoding: 36 36 59
Width: 1024
VWidth: 0
Flags: W
HStem: 653 120<640 756.392> 675 123<418.919 512>
VStem: 182 128<904.925 1189.89> 512 128<-128 -14 109 653 798 1298 1421 1536> 882 128<239.512 527.992>
LayerCount: 5
Back
SplineSet
640 -128 m 5xbc
 512 -128 l 5
 512 -13.7537457159 l 5
 411.222464039 -9.94556431245 309.190448269 11.2073384208 216 34 c 5
 216 157 l 5
 306.928445068 134.339795661 413.290993603 111.324351438 512 106.643666154 c 5
 512 649.024414062 l 5x7c
 324.802010662 674.146609967 182 815.710471565 182 1035 c 4
 182 1240.72612805 312.594327894 1393.06463777 512 1419.81131933 c 5
 512 1536 l 5
 640 1536 l 5
 640 1420.84485823 l 5
 728.445896577 1415.50429238 817.086083134 1392.13110124 896 1369 c 5
 896 1245 l 5
 818.891750272 1268.66819065 725.353727287 1293.75978179 640 1300.18165591 c 5
 640 756.633789062 l 5
 848.784780376 737.829501806 1010 599.277551362 1010 375 c 4
 1010 159.712626945 856.048175732 11.8311877582 640 -12.4682432816 c 5
 640 -128 l 5xbc
640 108.59101919 m 5
 784.522408191 130.088423589 882 226.064078586 882 375 c 4
 882 532.326410271 775.96353134 623.774298413 640 637.05078125 c 5xbc
 640 108.59101919 l 5
512 1297.98601672 m 5
 385.267680689 1273.00191674 310 1172.25896012 310 1035 c 4
 310 888.013790489 393.281170751 796.715500108 512 772.190429688 c 5x7c
 512 1297.98601672 l 5
EndSplineSet
Fore
SplineSet
640 -128 m 1xb8
 512 -128 l 1
 512 -14 l 1
 410.874233129 -11.5 308.837423313 1.625 215 16 c 1
 215 139 l 1
 306.104294479 124.28 412.696319018 110.2 512 107 c 1
 512 675 l 1x78
 322 696.769430052 182 843.974237191 182 1042 c 0
 182 1244.25454545 313 1393.49090909 512 1420 c 1
 512 1536 l 1
 640 1536 l 1
 640 1421 l 1
 735.607843137 1417.92307692 831.215686275 1403.15384615 916 1389 c 1
 916 1265 l 1
 833.019607843 1280.27272727 732 1296.18181818 640 1300 c 1
 640 773 l 1
 849 753.502617801 1010 608.863874346 1010 381 c 0
 1010 169.775193798 859 13.3720930233 640 -12 c 1
 640 -128 l 1xb8
640 109 m 5
 786 129.473684211 882 235.796992481 882 381 c 0
 882 541.992366412 776 639.503816794 640 653 c 1xb8
 640 109 l 5
512 1298 m 1
 385 1273.66539924 310 1175.35361217 310 1042 c 0
 310 915.915130513 391 818.19391635 512 798 c 1x78
 512 1298 l 1
EndSplineSet
Validated: 1
Layer: 2
Layer: 3
Layer: 4
Substitution2: "'ss14' Style Set 14 lookup 6-1" dollar.alt
EndChar
StartChar: quotesingle
Encoding: 39 39 62
Width: 1024
VWidth: 0
Flags: W
HStem: 1388 20G<497 655>
VStem: 497 158<768 1408>
LayerCount: 5
Back
Fore
SplineSet
497 1408 m 5
 655 1408 l 5
 655 768 l 5
 497 768 l 5
 497 1408 l 5
EndSplineSet
Layer: 2
Layer: 3
Layer: 4
EndChar
StartChar: parenleft
Encoding: 40 40 63
Width: 1024
VWidth: 0
Flags: W
VStem: 359 158<414.694 992.126>
LayerCount: 5
Back
SplineSet
892.920898438 1755.203125 m 5
 991.079101562 1640.79589844 l 5
 700.474609375 1427.90234375 516.704101562 1067.11914062 517 703.0546875 c 4
 517.294921875 339.619140625 700.974609375 -20.26953125 991.079101562 -232.796875 c 5
 892.920898438 -347.204101562 l 5
 561.62890625 -104.502929688 359.330078125 296.079101562 359 702.9453125 c 4
 358.668945312 1110.51660156 561.0546875 1512.08203125 892.920898438 1755.203125 c 5
EndSplineSet
Fore
SplineSet
663 1536 m 5
 852 1536 l 1
 647.8671875 1308 517 1012 517 703 c 0
 517 395 648.243164062 100 853 -128 c 1
 663 -128 l 1
 471.261437908 103 359 402 359 703 c 0
 359 1005 470.267973856 1304 663 1536 c 5
EndSplineSet
Layer: 2
Layer: 3
Layer: 4
EndChar
StartChar: parenright
Encoding: 41 41 64
Width: 1024
VWidth: 0
Flags: W
VStem: 634 158<420.552 986.254>
LayerCount: 5
Back
SplineSet
318 -128 m 5
 534 90 664 395 664 703 c 4
 664 1012 534 1318 318 1536 c 5
 486 1536 l 5
 680 1304 792 1005 792 703 c 4
 792 402 679 103 486 -128 c 5
 318 -128 l 5
EndSplineSet
Fore
SplineSet
298 -128 m 5
 497.757225434 90 634 395 634 703 c 4
 634 1012 498.132947977 1318 299 1536 c 5
 486 1536 l 5
 680 1304 792 1005 792 703 c 4
 792 402 679 103 486 -128 c 5
 298 -128 l 5
EndSplineSet
Validated: 1
Layer: 2
Layer: 3
Layer: 4
EndChar
StartChar: asterisk
Encoding: 42 42 65
Width: 1024
VWidth: 0
Flags: W
VStem: 512 128<256 650>
LayerCount: 5
Back
Fore
SplineSet
512 650 m 5
 144 530 l 5
 102 643 l 5
 476 765 l 5
 244 1085 l 5
 350 1152 l 5
 576 841 l 5
 803 1152 l 5
 909 1085 l 5
 676 765 l 5
 1050 643 l 5
 1008 530 l 5
 640 650 l 5
 640 256 l 5
 512 256 l 5
 512 650 l 5
EndSplineSet
Layer: 2
Layer: 3
SplineSet
169 553 m 29
 983 1367 l 1053
169 1367 m 29
 983 553 l 1053
EndSplineSet
Layer: 4
SplineSet
512 601 m 5
 427 640 l 5
 158 906 l 1
 240 1000 l 1
 571 664 l 1
 581 664 l 1
 912 1000 l 1
 994 906 l 1
 664 581 l 1
 664 571 l 1
 994 246 l 1
 912 152 l 1
 581 488 l 1
 571 488 l 1
 240 152 l 1
 158 246 l 1
 427 512 l 5
 512 551 l 5
 512 601 l 5
601 640 m 1
 640 725 l 1
 906 994 l 1
 1000 912 l 1
 664 581 l 1
 664 571 l 1
 1000 240 l 1
 906 158 l 1
 581 488 l 1
 571 488 l 1
 246 158 l 1
 152 240 l 1
 488 571 l 1
 488 581 l 1
 152 912 l 1
 246 994 l 1
 512 725 l 1
 551 640 l 1
 601 640 l 1
640 551 m 1
 725 512 l 1
 994 246 l 1
 912 152 l 1
 581 488 l 1
 571 488 l 1
 240 152 l 1
 158 246 l 1
 488 571 l 1
 488 581 l 1
 158 906 l 1
 240 1000 l 1
 571 664 l 1
 581 664 l 1
 912 1000 l 1
 994 906 l 1
 725 640 l 1
 640 601 l 1
 640 551 l 1
EndSplineSet
Substitution2: "'ss15' Style Set 15 lookup 8-1" asterisk.alt
EndChar
StartChar: comma
Encoding: 44 44 67
Width: 1024
VWidth: 0
Flags: W
VStem: 440 226<-1.41722 297.5>
LayerCount: 5
Back
SplineSet
512 400 m 0
 587.4 400 640 347.525 640 272 c 4
 640 196.475 587.4 144 512 144 c 4
 436.6 144 384 196.475 384 272 c 4
 384 347.525 436.6 400 512 400 c 0
EndSplineSet
Fore
SplineSet
340 -205 m 1
 346 -197 l 2
 383 -143 440 -61 440 1 c 0
 440 99 358 153 358 266 c 0
 358 358 425 420 512 420 c 0
 595 420 666 361 666 234 c 0
 666 11 570 -150 462 -282 c 0
 456 -290 l 1
 340 -205 l 1
EndSplineSet
Validated: 1
Layer: 2
SplineSet
384 -256 m 1
 384 244 l 2
 384 267.168354375 384.381213682 290.646351533 390.682897067 312.941226078 c 0
 396.984580451 335.236100622 409.369319826 355.968973387 427 371 c 0
 450.017385417 390.623459183 480.74272609 400.003413166 511.0003042 400.003413166 c 0
 511.333596531 400.003413166 511.666832107 400.002275059 512 400 c 0
 530.55129052 399.873321259 549.129771335 396.372125982 566.247624664 389.220516032 c 0
 583.365477993 382.068906083 598.951081661 371.106381334 611 357 c 0
 630.926165862 333.67125909 639.976812741 302.498738515 640.000196305 271.741795789 c 0
 640.000196305 240.131012886 631.180108833 209.252631383 622 179 c 2
 490 -256 l 1
 384 -256 l 1
  Spiro
    384 -256 v
    384 244 ]
    427 371 o
    512 400 o
    611 357 o
    640 272 o
    622 179 [
    490 -256 v
    0 0 z
  EndSpiro
EndSplineSet
Layer: 3
Layer: 4
EndChar
StartChar: period
Encoding: 46 46 68
Width: 1024
VWidth: 0
Flags: W
HStem: -16 308<406.39 617.61>
VStem: 358 308<32.3905 243.61>
LayerCount: 5
Back
Fore
SplineSet
358 138 m 4
 358 228.250925245 421.748591153 292 512 292 c 4
 602.250925245 292 666 228.251408847 666 138 c 4
 666 47.7490747549 602.251408847 -16 512 -16 c 4
 421.749074755 -16 358 47.7485911532 358 138 c 4
EndSplineSet
Validated: 524289
Layer: 2
Layer: 3
Layer: 4
EndChar
StartChar: slash
Encoding: 47 47 69
Width: 1024
VWidth: 0
Flags: HW
LayerCount: 5
Back
Fore
SplineSet
112 -128 m 1
 901 1537 l 1
 1041 1537 l 1
 252 -128 l 1
 112 -128 l 1
EndSplineSet
Validated: 1
Layer: 2
SplineSet
0 -512 m 29
 1152 1920 l 1053
EndSplineSet
Layer: 3
Layer: 4
EndChar
StartChar: zero
Encoding: 48 48 70
Width: 1024
VWidth: 0
Flags: W
HStem: -18 146<485.062 667.013> 1280 146<484.987 667.02>
VStem: 253 150<456.873 1148.89> 749 150<259.109 951.127>
LayerCount: 5
Back
Fore
SplineSet
576 1426 m 0
 741 1426 820 1315 860 1209 c 0
 899 1105 899 926 899 704 c 0
 899 482 899 303 860 199 c 0
 820 93 741 -18 576 -18 c 0
 411 -18 332 93 292 199 c 0
 253 303 253 482 253 704 c 0
 253 926 253 1105 292 1209 c 0
 332 1315 411 1426 576 1426 c 0
576 1280 m 0
 497 1280 448 1214 425 1129 c 0
 403 1049 403 886 403 704 c 0
 403 612 406 525 407 452 c 1
 716 1162 l 1
 689 1231 644 1280 576 1280 c 0
437 245 m 1
 463 177 508 128 576 128 c 0
 655 128 704 194 727 279 c 0
 749 359 749 522 749 704 c 0
 749 795 746 881 745 954 c 1
 437 245 l 1
EndSplineSet
Validated: 1
Layer: 2
SplineSet
576 1364 m 0
 608.961573602 1364 641.84773507 1356.04918534 671.350436298 1341.35034339 c 0
 700.853137526 1326.65150145 726.89350014 1305.31760253 748 1280 c 0
 779.121942979 1242.66870454 799.325784282 1197.14609009 811.695975209 1150.14418235 c 0
 824.066166136 1103.1422746 829.143375711 1054.51845683 832 1006 c 0
 837.91818181 905.482389128 837 804.691682731 837 704 c 0
 837 603.308317269 837.91818181 502.517610872 832 402 c 0
 829.143375711 353.481543171 824.066166136 304.857725399 811.695975209 257.855817652 c 0
 799.325784282 210.853909906 779.121942979 165.331295459 748 128 c 0
 726.89350014 102.682397468 700.853137526 81.3484985535 671.350436298 66.649656607 c 0
 641.84773507 51.9508146605 608.961573602 44 576 44 c 0
 543.038426398 44 510.15226493 51.9508146605 480.649563702 66.649656607 c 0
 451.146862474 81.3484985535 425.10649986 102.682397468 404 128 c 0
 372.878057021 165.331295459 352.674215718 210.853909906 340.304024791 257.855817652 c 0
 327.933833864 304.857725399 322.856624289 353.481543171 320 402 c 0
 314.08181819 502.517610872 315 603.308317269 315 704 c 0
 315 804.691682731 314.08181819 905.482389128 320 1006 c 0
 322.856624289 1054.51845683 327.933833864 1103.1422746 340.304024791 1150.14418235 c 0
 352.674215718 1197.14609009 372.878057021 1242.66870454 404 1280 c 0
 425.10649986 1305.31760253 451.146862474 1326.65150145 480.649563702 1341.35034339 c 0
 510.15226493 1356.04918534 543.038426398 1364 576 1364 c 0
  Spiro
    576 1364 o
    748 1280 o
    832 1006 o
    837 704 o
    832 402 o
    748 128 o
    576 44 o
    404 128 o
    320 402 o
    315 704 o
    320 1006 o
    404 1280 o
    0 0 z
  EndSpiro
EndSplineSet
Layer: 3
Layer: 4
Substitution2: "'ss10' Style Set 10 lookup 2-1" zero.alt
EndChar
StartChar: one
Encoding: 49 49 71
Width: 1024
VWidth: 0
Flags: W
HStem: 0 21G<610 768> 1388 20G<631.549 768>
VStem: 610 158<0 1194>
LayerCount: 5
Back
Fore
SplineSet
660 1408 m 1
 768 1408 l 1
 768 0 l 1
 610 0 l 1
 610 1194 l 5
 600 1194 l 5
 256 960 l 1
 256 1124 l 1
 660 1408 l 1
EndSplineSet
Layer: 2
Layer: 3
Layer: 4
Substitution2: "'ss11' Style Set 11 lookup 3-1" one.alt
EndChar
StartChar: four
Encoding: 52 52 74
Width: 1024
VWidth: 0
Flags: HW
LayerCount: 5
Back
SplineSet
896 0 m 5
 768 0 l 5
 768 388 l 5
 256 388 l 5
 256 460 l 5
 392 1408 l 5
 520 1408 l 5
 387 508 l 5
 768 508 l 5
 768 1408 l 5
 896 1408 l 5
 896 508 l 5
 1024 508 l 5
 1024 388 l 5
 896 388 l 5
 896 0 l 5
EndSplineSet
Fore
SplineSet
911 384 m 1
 911 0 l 1
 753 0 l 1
 753 384 l 1
 256 384 l 1
 256 470.8125 l 1
 378.998329248 1408 l 1
 535.379882812 1408 l 1
 419.379882812 530 l 5
 753 530 l 1
 753 1408 l 1
 911 1408 l 1
 911 530 l 1
 1024 530 l 1
 1024 384 l 1
 911 384 l 1
EndSplineSet
Layer: 2
SplineSet
1024 448 m 29
 174 448 l 29
 384 1408 l 1053
832 0 m 29
 832 1408 l 1053
EndSplineSet
Layer: 3
Layer: 4
EndChar
StartChar: six
Encoding: 54 54 76
Width: 1024
VWidth: 0
Flags: W
HStem: -16 120<465.817 718.248> 792 120<474.63 718.799> 1304 120<490.267 828.001>
VStem: 256 128<200.073 695.927 787 1188.13> 800 128<198.179 698.523>
LayerCount: 5
Back
Fore
SplineSet
592 104 m 4
 779 104 800 261 800 448 c 4
 800 635 779 792 592 792 c 4
 405 792 384 635 384 448 c 4
 384 261 405 104 592 104 c 4
618 1424 m 4
 678.873901065 1424 748.892197707 1418.08313876 832 1403.09338188 c 5
 832 1280.7613568 l 5
 746.477853813 1296.92318773 674.073492596 1304 618 1304 c 4
 517 1304 452.322011578 1255.85958891 416 1173 c 4
 384 1100 384 998 384 896 c 6
 384 787 l 5
 394 787 l 5
 449 872 514 912 612 912 c 4
 760 912 857.401209708 829.146673302 900 712 c 4
 928 635 928 550 928 448 c 4
 928 366 927.977411298 271.008305159 896 184 c 4
 853 67 750 -16 592 -16 c 4
 434 -16 331.698814966 66.8871758918 288 184 c 4
 263 251 256 321 256 415 c 6
 256 896 l 6
 256 1017 257.992548796 1122.00304493 296 1215 c 4
 343 1330 449 1424 618 1424 c 4
EndSplineSet
Layer: 2
SplineSet
592 852 m 4
 569.874950019 852 547.708987409 850.270562295 526 846 c 4
 485.669098677 838.066160283 447.076701406 820.262547848 416.241313788 793.083396194 c 4
 385.40592617 765.904244539 362.748306891 730.14912327 348.306511624 691.665854651 c 4
 319.422921089 614.699317412 319.999999999 530.20772261 320 448 c 4
 320 365.79227739 319.422921091 281.300682587 348.306511626 204.334145348 c 4
 362.748306893 165.850876729 385.405926172 130.09575546 416.241313789 102.916603806 c 4
 447.076701407 75.7374521517 485.669098677 57.9338397167 526 50 c 4
 547.708987409 45.7294377049 569.874950019 44 592 44 c 4
 614.125049981 44 636.291012591 45.7294377049 658 50 c 4
 698.330901323 57.9338397167 736.923298594 75.7374521519 767.758686212 102.916603806 c 4
 798.59407383 130.095755461 821.251693109 165.85087673 835.693488376 204.334145349 c 4
 864.577078911 281.300682588 864.000000001 365.79227739 864 448 c 4
 864 530.20772261 864.577078909 614.699317413 835.693488374 691.665854652 c 4
 821.251693107 730.149123271 798.594073828 765.90424454 767.758686211 793.083396194 c 4
 736.923298593 820.262547848 698.330901323 838.066160283 658 846 c 4
 636.291012591 850.270562295 614.125049981 852 592 852 c 4
  Spiro
    592 852 o
    526 846 o
    320 448 o
    526 50 o
    592 44 o
    658 50 o
    864 448 o
    658 846 o
    0 0 z
  EndSpiro
EndSplineSet
Layer: 3
Layer: 4
EndChar
StartChar: seven
Encoding: 55 55 77
Width: 1024
VWidth: 0
Flags: W
HStem: 0 21G<343 509.453> 1262 146<226 761>
LayerCount: 5
Back
Fore
SplineSet
226 1262 m 5
 226 1408 l 5
 926 1408 l 5
 926 1311 l 5
 503 -0 l 5
 343 0 l 5
 761 1262 l 5
 226 1262 l 5
EndSplineSet
Validated: 1
Layer: 2
Layer: 3
Layer: 4
EndChar
StartChar: nine
Encoding: 57 57 79
Width: 1024
VWidth: 0
Flags: W
HStem: -16 120<292.598 665.475> 496 120<433.201 677.37> 1304 120<433.752 686.183>
VStem: 224 128<709.477 1209.82> 768 128<219.763 621 712.073 1207.93>
LayerCount: 5
Back
Fore
SplineSet
560 1304 m 0
 373 1304 352 1147 352 960 c 0
 352 773 373 616 560 616 c 0
 747 616 768 773 768 960 c 0
 768 1147 747 1304 560 1304 c 0
288 123.587890625 m 1
 383.499279152 109.902598453 466.618978965 104 524 104 c 0
 640 104 699.382191398 151.465624126 736 235 c 0
 768 308 768 410 768 512 c 2
 768 621 l 1
 758 621 l 1
 703 536 638 496 540 496 c 0
 392 496 294.598790292 578.853326698 252 696 c 0
 224 773 224 858 224 960 c 0
 224 1042 224.022588702 1136.99169484 256 1224 c 0
 299 1341 402 1424 560 1424 c 0
 718 1424 820.301185034 1341.11282411 864 1224 c 0
 889 1157 896 1087 896 993 c 2
 896 512 l 2
 896 391 894.007451204 285.996955074 856 193 c 0
 809.206118009 78.5043312992 701.751552795 -16 544 -16 c 0
 462.680895756 -16 389.300338254 -11.2779041835 288 1.001953125 c 1
 288 123.587890625 l 1
EndSplineSet
Validated: 1
Layer: 2
SplineSet
896 512 m 6
 896 391 894 286 856 193 c 4
 809 78 703 -16 534 -16 c 4
 451 -16 351 -5 224 25 c 5
 224 148 l 5
 352 117 458 104 534 104 c 4
 635 104 700 152 736 235 c 4
 768 308 768 410 768 512 c 6
 768 1288 l 1
 256 1288 l 1
 256 1408 l 1
 469 1408 683 1408 896 1408 c 1
 896 512 l 6
EndSplineSet
Layer: 3
Layer: 4
EndChar
StartChar: colon
Encoding: 58 58 80
Width: 1024
VWidth: 0
Flags: W
HStem: -16 308<406.39 617.61> 732 308<406.39 617.61>
VStem: 358 308<32.3905 243.61 780.39 991.61>
LayerCount: 5
Back
Fore
SplineSet
358 886 m 0
 358 976.250925245 421.748591153 1040 512 1040 c 0
 602.250925245 1040 666 976.251408847 666 886 c 0
 666 795.749074755 602.251408847 732 512 732 c 0
 421.749074755 732 358 795.748591153 358 886 c 0
358 138 m 0
 358 228.250925245 421.748591153 292 512 292 c 0
 602.250925245 292 666 228.251408847 666 138 c 0
 666 47.7490747549 602.251408847 -16 512 -16 c 0
 421.749074755 -16 358 47.7485911532 358 138 c 0
EndSplineSet
Layer: 2
Layer: 3
Layer: 4
EndChar
StartChar: less
Encoding: 60 60 82
Width: 1024
VWidth: 0
Flags: HW
LayerCount: 5
Back
Fore
SplineSet
895 355 m 5
 895 205 l 5
 256 656 l 5
 256 752 l 5
 895 1203 l 5
 895 1053 l 5
 400 709 l 5
 400 699 l 5
 895 355 l 5
EndSplineSet
Layer: 2
SplineSet
1016 15 m 5
 299 704 l 5
 1016 1393 l 1029
EndSplineSet
Layer: 3
Layer: 4
EndChar
StartChar: equal
Encoding: 61 61 83
Width: 1024
VWidth: 0
Flags: W
HStem: 384 146<128 1024> 878 146<128 1024>
LayerCount: 5
Back
Fore
SplineSet
128 384 m 5
 128 530 l 5
 1024 530 l 5
 1024 384 l 5
 128 384 l 5
128 878 m 1
 128 1024 l 1
 1024 1024 l 1
 1024 878 l 1
 128 878 l 1
EndSplineSet
Validated: 1
Layer: 2
Layer: 3
Layer: 4
EndChar
StartChar: greater
Encoding: 62 62 84
Width: 1024
VWidth: 0
Flags: W
LayerCount: 5
Back
Fore
SplineSet
256 373.815429688 m 5
 720.662109375 704 l 5
 256 1034.18457031 l 5
 256 1218.57910156 l 5
 896 759.254882812 l 5
 896 648.745117188 l 5
 256 189.420898438 l 5
 256 373.815429688 l 5
EndSplineSet
Validated: 524289
Layer: 2
Layer: 3
Layer: 4
EndChar
StartChar: A
Encoding: 65 65 29
Width: 1024
VWidth: 0
Flags: W
HStem: 0 21G<103 271.5 881.5 1049> 388 146<352 801> 1388 20G<389 763>
VStem: 103 163<0 276.673> 887 162<0 276.673>
LayerCount: 5
Back
SplineSet
581 1231 m 5
 732.178571429 842.314948042 819.607142857 423.1254996 887 0 c 5
 1047 0 l 5
 967.06779661 481 858.588377724 963 654 1408 c 5
 498 1408 l 5
 293.411622276 963 184.93220339 481 105 0 c 5
 265 0 l 5
 332.392857143 423.1254996 419.821428571 844.282973621 571 1231 c 5
 581 1231 l 5
EndSplineSet
Fore
SplineSet
103 0 m 1
 156 496 267 971 511 1408 c 1
 641 1408 l 1
 885 971 996 496 1049 0 c 1
 887 0 l 1
 876 136 856 265 832 388 c 1
 321 388 l 1
 302 265 277 136 266 0 c 1
 103 0 l 1
801 534 m 1
 755.956521739 761.46835443 691.956521739 1002.2278481 581 1219 c 1
 571 1219 l 1
 460.065502183 1002.2278481 397.030567686 761.46835443 352 534 c 1
 801 534 l 1
EndSplineSet
Validated: 1
Layer: 2
Layer: 3
Layer: 4
EndChar
StartChar: B
Encoding: 66 66 30
Width: 1024
VWidth: 0
Flags: HW
HStem: 0 146<286 743.095> 635 146<286 654.859> 1262 146<286 654.859>
VStem: 128 158<146 635 781 1262> 754 158<879.321 1162.42> 842 158<244.529 536.975>
LayerCount: 5
Back
SplineSet
449 768 m 6xf8
 525 768 565 769 601 778 c 4
 709 804 784 896 784 1028 c 4
 784 1160 709 1254 601 1278 c 4
 565 1286 525 1288 449 1288 c 6
 256 1288 l 5
 256 768 l 5
 449 768 l 6xf8
912 1028 m 4
 912 896 849 798 763 748 c 5
 925 704 1040 566 1040 384 c 4xf4
 1040 193 928 54 776 16 c 4
 712 0 648 0 563 0 c 6
 128 0 l 5
 128 1408 l 5
 449 1408 l 6
 526 1408 578 1408 633 1395 c 4
 792 1357 912 1222 912 1028 c 4
256 648 m 5
 256 120 l 5
 563 120 l 6
 644 120 699 120 744 132 c 4
 843 158 912 254 912 384 c 4
 912 514 844 612 744 636 c 4
 699 647 644 648 563 648 c 6
 256 648 l 5
EndSplineSet
Fore
SplineSet
448 781 m 2xf8
 517 781 554 782 587 790 c 0
 686 814 754 898 754 1021 c 0
 754 1144 686 1230 587 1253 c 0
 554 1260 517 1262 448 1262 c 2
 286 1262 l 1
 286 781 l 1
 448 781 l 2xf8
756 726 m 5
 899 685 1000 555 1000 384 c 0xf4
 1000 193 888 54 736 16 c 0
 672 0 608 0 523 0 c 2
 128 0 l 1
 128 1408 l 1
 449 1408 l 2
 526 1408 578 1408 633 1395 c 0
 792 1357 912 1222 912 1028 c 0
 912 890 849 789 756 736 c 5
 756 726 l 5
286 635 m 1
 286 146 l 1
 521 146 l 2
 596 146 647 146 688 157 c 0
 779 181 842 270 842 391 c 0
 842 512 780 601 688 624 c 0
 647 634 596 635 521 635 c 2
 286 635 l 1
EndSplineSet
Layer: 2
SplineSet
636 640 m 0
 789.15625 640 896 535.05 896 384 c 0
 896 232.95 789.15625 128 636 128 c 0
 482.84375 128 376 232.95 376 384 c 4
 376 535.05 482.84375 640 636 640 c 0
636 1476 m 0
 826.85625 1476 960 1344.8125 960 1156 c 0
 960 967.1875 826.85625 836 636 836 c 0
 445.14375 836 312 967.1875 312 1156 c 0
 312 1344.8125 445.14375 1476 636 1476 c 0
EndSplineSet
Layer: 3
SplineSet
601 640 m 2
 638.062501111 640 675.469476633 639.327092325 711.51549472 630.706560515 c 0
 747.561512807 622.086028706 781.87092644 605.604172083 810.129770314 581.623623059 c 0
 838.388614186 557.643074034 860.400761005 526.574299373 874.738600141 492.397474514 c 0
 889.076439276 458.220649654 896.000000001 421.062501111 896 384 c 0
 896 346.937498889 889.076439274 309.779350346 874.738600137 275.602525486 c 0
 860.400761 241.425700626 838.38861418 210.356925966 810.129770306 186.376376942 c 0
 781.870926433 162.395827918 747.561512802 145.913971295 711.515494716 137.293439486 c 0
 675.46947663 128.672907676 638.06250111 128 601 128 c 2
 202 128 l 1
 202 640 l 1
 601 640 l 2
  Spiro
    601 640 ]
    896 384 o
    601 128 [
    202 128 v
    202 640 v
    0 0 z
  EndSpiro
591 1476 m 2
 637.344591086 1476 684.119104348 1475.16033304 729.195309328 1464.39200598 c 0
 774.271514308 1453.62367893 817.181439155 1433.03380997 852.533391598 1403.06615104 c 0
 887.88534404 1373.09849212 915.433566213 1334.26472568 933.381291036 1291.53651138 c 0
 951.329015858 1248.80829709 960.000000001 1202.34459109 960 1156 c 0
 960 1109.65540891 951.329015855 1063.19170291 933.381291031 1020.46348862 c 0
 915.433566207 977.735274323 887.885344032 938.901507883 852.533391589 908.933848959 c 0
 817.181439148 878.966190035 774.271514302 858.376321073 729.195309324 847.607994019 c 0
 684.119104346 836.839666965 637.344591085 836 591 836 c 2
 192 836 l 1
 192 1476 l 1
 591 1476 l 2
  Spiro
    591 1476 ]
    960 1156 o
    591 836 [
    192 836 v
    192 1476 v
    0 0 z
  EndSpiro
EndSplineSet
Layer: 4
EndChar
StartChar: C
Encoding: 67 67 31
Width: 1024
VWidth: 0
Flags: W
HStem: -16 146<473.642 1018.53> 1278 146<473.098 988.906>
VStem: 112 158<365.797 1042.2>
LayerCount: 5
Back
SplineSet
1024 141 m 1
 1024 21 l 1
 907 0.507692307692 777 -16 643 -16 c 0
 357.92701636 -16 199.00037983 141.748492549 143 364 c 0
 114 478 112 594 112 704 c 0
 112 814 114 930 143 1044 c 0
 200.613503431 1265.72469502 354.67987643 1424 643 1424 c 0
 766 1424 885 1412.29824561 994 1395 c 1
 994 1249 l 5
 881 1265.63934426 755 1278 643 1278 c 4
 420 1278 312 1172.47222222 268 1016 c 0
 269.785714286 919 270 813 270 704 c 0
 270 595 269.785714286 489 268 392 c 0
 312 220 420 104 643 104 c 0
 765 104 903 121.15942029 1024 141 c 1
EndSplineSet
Fore
SplineSet
1024 166 m 1
 1024 21 l 1
 907 1 777 -16 643 -16 c 0
 358 -16 200 142 143 364 c 0
 114 478 112 594 112 704 c 0
 112 814 113 930 143 1044 c 0
 201 1266 355 1424 643 1424 c 0
 766 1424 885 1412 994 1395 c 1
 994 1250 l 1
 886 1266 765 1278 657 1278 c 0
 443 1278 339 1167 297 1003 c 0
 273 910 270 809 270 704 c 0
 270 599 273 498 297 405 c 0
 339 241 443 130 657 130 c 0
 774 130 908 147 1024 166 c 1
EndSplineSet
Validated: 1
Layer: 2
SplineSet
768 1354 m 0
 838.846354572 1343.50490046 908.562607991 1326.54427717 978 1309 c 0
 1036.08310479 1294.32453395 1094.03673517 1279.14187225 1152 1264 c 1
 976 768 l 1
 1152 144 l 1
 1094.03673517 128.858127746 1036.08310479 113.675466053 978 99 c 0
 908.562607991 81.4557228309 838.846354572 64.4950995387 768 54 c 0
 726.614442498 47.86918991 684.83718974 44.0275101078 643 44 c 0
 642.863057097 43.999909953 642.726110136 43.9998649121 642.589159181 43.9998649121 c 0
 552.095323139 43.9998649121 459.857171744 63.6657890577 384 113 c 0
 338.215629814 142.776166507 299.188946716 182.644590338 269.426631448 228.437965788 c 0
 239.66431618 274.231341238 219.060751679 325.596743357 205.422300628 378.48172514 c 0
 178.145398527 484.251688705 176 594.769443008 176 704 c 0
 176 813.230556992 178.145398527 923.748311295 205.422300628 1029.51827486 c 0
 219.060751679 1082.40325664 239.66431618 1133.76865876 269.426631448 1179.56203421 c 0
 299.188946716 1225.35540966 338.215629814 1265.22383349 384 1295 c 0
 459.857171744 1344.33421094 552.095323139 1364.00013509 642.589159181 1364.00013509 c 0
 684.62230979 1363.98631424 726.467613412 1360.15256119 768 1354 c 0
  Spiro
    643 1364 o
    768 1354 o
    978 1309 o
    1152 1264 v
    976 768 v
    1152 144 v
    978 99 o
    768 54 o
    643 44 o
    384 113 o
    176 704 o
    384 1295 o
    0 0 z
  EndSpiro
EndSplineSet
Layer: 3
Layer: 4
EndChar
StartChar: D
Encoding: 68 68 32
Width: 1024
VWidth: 0
Flags: W
HStem: 0 146<286 690.238> 1262 146<286 689.085>
VStem: 128 158<146 1262> 896 144<377.609 1021.35>
LayerCount: 5
Back
SplineSet
504 120 m 2
 665 120 764 189 829 278 c 1
 874.337349398 384 882 525 882 704 c 0
 882 800 907.680650609 895.614787084 886 982 c 0
 844 1140.30065359 725 1262 504 1262 c 4
 286 1288 l 1
 286 120 l 1
 504 120 l 2
504 1408 m 2
 608 1408 716.390832975 1378.57904555 807 1317 c 0
 910 1247 977.172575138 1137.04536151 1011 1008 c 0
 1038 905 1040 803 1040 704 c 0
 1040 605 1037.3275444 502.916764456 1011 400 c 0
 978 271 907.702609919 163.415359942 807 91 c 0
 718 27 609 0 504 0 c 0
 128 0 l 1
 128 1408 l 1
 504 1408 l 2
EndSplineSet
Fore
SplineSet
520 146 m 6
 668 146 759 212 819 297 c 5
 884 398 896 533 896 704 c 4
 896 796 892 885 872 970 c 4
 833 1135 723 1262 520 1262 c 4
 286 1262 l 5
 286 146 l 5
 520 146 l 6
504 1408 m 6
 608 1408 716 1378 807 1317 c 4
 910 1247 977 1137 1011 1008 c 4
 1038 905 1040 803 1040 704 c 4
 1040 605 1037 503 1011 400 c 4
 978 271 908 163 807 91 c 4
 718 27 609 0 504 0 c 4
 128 0 l 5
 128 1408 l 5
 504 1408 l 6
EndSplineSet
Validated: 1
Layer: 2
Layer: 3
Layer: 4
EndChar
StartChar: E
Encoding: 69 69 33
Width: 1024
VWidth: 0
Flags: W
HStem: 0 146<414 1024> 632 146<414 896> 1262 146<414 1024>
VStem: 256 158<146 632 778 1262>
LayerCount: 5
Back
Fore
SplineSet
256 1408 m 5
 1024 1408 l 5
 1024 1262 l 5
 414 1262 l 5
 414 778 l 5
 896 778 l 5
 896 632 l 5
 414 632 l 5
 414 146 l 5
 1024 146 l 5
 1024 0 l 5
 256 0 l 5
 256 1408 l 5
EndSplineSet
Layer: 2
Layer: 3
Layer: 4
EndChar
StartChar: F
Encoding: 70 70 34
Width: 1024
VWidth: 0
Flags: W
HStem: 0 21G<256 414> 632 146<414 896> 1262 146<414 1024>
VStem: 256 158<0 632 778 1262>
LayerCount: 5
Back
Fore
SplineSet
256 1408 m 5
 1024 1408 l 5
 1024 1262 l 5
 414 1262 l 5
 414 778 l 5
 896 778 l 5
 896 632 l 5
 414 632 l 5
 414 0 l 5
 256 0 l 5
 256 1408 l 5
EndSplineSet
Validated: 1
Layer: 2
Layer: 3
Layer: 4
EndChar
StartChar: G
Encoding: 71 71 35
Width: 1024
VWidth: 0
Flags: W
HStem: -16 146<473.615 863.202> 622 146<640 866> 1278 146<473.133 988.906>
VStem: 112 158<365.797 1042.19> 866 158<139.689 622>
LayerCount: 5
Back
Fore
SplineSet
643 1424 m 4
 766 1424 885 1412 994 1395 c 5
 994 1250 l 5
 886 1266 765 1278 657 1278 c 4
 443 1278 339.302511025 1166.92223022 297 1003 c 4
 273 910 270 809 270 704 c 4
 270 599 273.171627273 498.044122078 297 405 c 4
 339 241 443 130 657 130 c 4
 723.328709336 130 795.121036218 135.463617547 866 143.657860934 c 5
 866 622 l 5
 640 622 l 5
 640 768 l 5
 1024 768 l 5
 1024 21 l 5
 907 1 777 -16 643 -16 c 4
 358 -16 199.505813119 141.873700153 143 364 c 4
 114 478 112 594 112 704 c 4
 112 814 113.20235393 929.946940906 143 1044 c 4
 201 1266 355 1424 643 1424 c 4
EndSplineSet
Validated: 1
Layer: 2
Layer: 3
Layer: 4
EndChar
StartChar: H
Encoding: 72 72 36
Width: 1024
VWidth: 0
Flags: W
HStem: 0 21G<128 286 866 1024> 630 146<286 866> 1388 20G<128 286 866 1024>
VStem: 128 158<0 630 776 1408> 866 158<0 630 776 1408>
LayerCount: 5
Back
Fore
SplineSet
128 1408 m 1
 286 1408 l 1
 286 776 l 5
 866 776 l 5
 866 1408 l 1
 1024 1408 l 1
 1024 0 l 1
 866 0 l 1
 866 630 l 1
 286 630 l 1
 286 0 l 1
 128 0 l 1
 128 1408 l 1
EndSplineSet
Validated: 1
Layer: 2
Layer: 3
Layer: 4
EndChar
StartChar: I
Encoding: 73 73 37
Width: 1024
VWidth: 0
Flags: W
HStem: 0 146<256 497 655 896> 1262 146<256 497 655 896>
VStem: 497 158<146 1262>
LayerCount: 5
Back
Fore
SplineSet
896 1408 m 1
 896 1262 l 1
 655 1262 l 1
 655 146 l 1
 896 146 l 1
 896 0 l 1
 256 0 l 1
 256 146 l 1
 497 146 l 5
 497 1262 l 5
 256 1262 l 1
 256 1408 l 1
 896 1408 l 1
EndSplineSet
Validated: 1
Layer: 2
Layer: 3
Layer: 4
EndChar
StartChar: J
Encoding: 74 74 38
Width: 1024
VWidth: 0
Flags: W
HStem: -16 146<259.736 655.541> 1262 146<256 738>
VStem: 738 158<219.572 1262>
LayerCount: 5
Back
SplineSet
896 512 m 6
 896 395 895 286 856 193 c 4
 808 79 706 -16 544 -16 c 4
 428 -16 335 -2 256 8 c 5
 256 129 l 5
 333 118 433 104 537 104 c 4
 636 104 700 153 736 235 c 4
 768 308 768 410 768 512 c 6
 768 1288 l 5
 256 1288 l 5
 256 1408 l 5
 896 1408 l 5
 896 512 l 6
EndSplineSet
Fore
SplineSet
896 512 m 2
 896 395 895 286 856 193 c 0
 808 79 711 -16 554 -16 c 0
 434 -16 338 -2 256 8 c 1
 256 155 l 1
 333 144 423 130 527 130 c 0
 614 130 685 167 712 245 c 0
 738 318 738 410 738 512 c 2
 738 1262 l 1
 256 1262 l 1
 256 1408 l 1
 896 1408 l 1
 896 512 l 2
EndSplineSet
Layer: 2
Layer: 3
Layer: 4
EndChar
StartChar: K
Encoding: 75 75 39
Width: 1024
VWidth: 0
Flags: HW
HStem: 0 21G<128 286 857.087 1062> 1388 20G<128 286 778.554 969>
VStem: 128 158<0 563 789 1408>
LayerCount: 5
Back
SplineSet
286 0 m 5
 128 0 l 5
 128 1408 l 5
 286 1408 l 5
 286 760.440429688 l 5
 792.97265625 1408 l 1
 970.702148438 1408 l 1
 499.885093253 812.372444286 l 1
 1061.15625 0 l 1
 867.228515625 0 l 1
 394.842581624 696.63067775 l 1
 286 552.442382812 l 5
 286 0 l 5
EndSplineSet
Fore
SplineSet
286 0 m 1
 128 0 l 1
 128 1408 l 1
 286 1408 l 1
 286 789 l 1
 795 1408 l 1
 969 1408 l 1
 491 813 l 1
 1062 0 l 1
 871 0 l 1
 391 692 l 5
 286 565 l 5
 286 0 l 1
EndSplineSet
Layer: 2
SplineSet
502 768 m 5
 1052 -138 l 1029
320 520 m 5
 1152 1806 l 1029
384 1408 m 5
 384 0 l 5
 256 0 l 5
 256 1408 l 5
 384 1408 l 5
512 752 m 5
 1052 -138 l 1029
320 520 m 5
 1152 1806 l 1029
EndSplineSet
Layer: 3
Layer: 4
EndChar
StartChar: L
Encoding: 76 76 40
Width: 1024
VWidth: 0
Flags: W
HStem: 0 146<414 1024> 1388 20G<256 414>
VStem: 256 158<146 1408>
LayerCount: 5
Back
Fore
SplineSet
256 0 m 1
 256 1408 l 1
 414 1408 l 1
 414 146 l 5
 1024 146 l 5
 1024 0 l 1
 256 0 l 1
EndSplineSet
Validated: 1
Layer: 2
Layer: 3
Layer: 4
EndChar
StartChar: M
Encoding: 77 77 28
Width: 1024
VWidth: 0
Flags: W
HStem: 0 21G<128 286 866 1024> 1388 20G<128 295.862 856.173 1024>
VStem: 128 158<0 1080> 866 158<0 1080>
LayerCount: 5
Back
Fore
SplineSet
286 0 m 5
 128 0 l 1
 128 1408 l 1
 286 1408 l 5
 571 830 l 1
 582 830 l 1
 866 1408 l 1
 1024 1408 l 1
 1024 0 l 1
 866 0 l 1
 866 1080 l 1
 856 1080 l 1
 631 630 l 1
 521 630 l 1
 296 1080 l 5
 286 1080 l 5
 286 0 l 5
EndSplineSet
Validated: 1
Layer: 2
SplineSet
192 0 m 29
 192 1521 l 29
 576 900 l 29
 960 1521 l 29
 960 0 l 1053
EndSplineSet
Layer: 3
Layer: 4
EndChar
StartChar: N
Encoding: 78 78 41
Width: 1024
VWidth: 0
Flags: W
HStem: 0 21G<128 286 855.617 1024> 1388 20G<128 295.401 866 1024>
VStem: 128 158<0 1098> 866 158<310 1408>
LayerCount: 5
Back
Fore
SplineSet
128 1408 m 1
 285 1408 l 1
 856 310 l 1
 866 310 l 1
 866 1408 l 1
 1024 1408 l 1
 1024 0 l 1
 866 0 l 1
 296 1098 l 5
 286 1098 l 5
 286 0 l 1
 128 0 l 1
 128 1408 l 1
EndSplineSet
Validated: 1
Layer: 2
SplineSet
192 0 m 5
 192 1521 l 5
 960 15 l 5
 960 1536 l 1029
EndSplineSet
Layer: 3
Layer: 4
EndChar
StartChar: Q
Encoding: 81 81 44
Width: 1024
VWidth: 0
Flags: W
HStem: -400 145.845<756.98 1021.68> 1278 146<438.697 712.81>
VStem: 112 158<344.955 1071.4> 513.034 157.242<-160.764 -6.8675> 882 158<337.914 1063.46>
LayerCount: 5
Back
SplineSet
671 -11 m 5
 673 -61.2941176471 680.688794844 -128.882132318 714 -182 c 4
 745.095744681 -225.346938776 791.319148936 -254 872 -254 c 0
 920 -254 972 -246 1024 -237 c 1
 1024 -385 l 1
 973 -394 922 -400 872 -400 c 0
 724 -400 627.467929223 -333.316004496 573 -241 c 0
 525 -159.64628821 515 -73.2707423581 513 -11 c 1
 671 -11 l 5
270 704 m 0
 270 593 271.447306787 486.435668178 293 395 c 0
 326 255 412 130 576 130 c 0
 740 130 828.444818221 254.446163815 859 395 c 0
 879 487 882 593 882 704 c 0
 882 815 880.600264229 921.362515392 859 1013 c 0
 826 1153 740 1278 576 1278 c 0
 412 1278 322.091491898 1153.86406603 293 1013 c 0
 274 921 270 815 270 704 c 0
112 704 m 0
 112 831 114.721062735 949.820664226 140 1053 c 0
 189 1253 331 1424 576 1424 c 0
 821 1424 961.602311732 1252.65238044 1012 1053 c 0
 1038 950 1040 831 1040 704 c 0
 1040 577 1037.27893726 458.179335774 1012 355 c 0
 963 155 821 -16 576 -16 c 0
 331 -16 190.397688268 155.347619555 140 355 c 0
 114 458 112 577 112 704 c 0
EndSplineSet
Fore
SplineSet
576 1424 m 0
 821 1424 961.602311732 1252.65238044 1012 1053 c 0
 1038 950 1040 831 1040 704 c 0
 1040 577 1037.27893726 458.179335774 1012 355 c 0
 969.664463632 182.201892373 857.906319815 31.0516945965 670.276055004 -6.8675009891 c 1
 672.466780107 -54.6055907838 679.585581314 -116.978525053 710.655273438 -165.571289062 c 0
 744.754654255 -218.902463329 795.442923039 -254.155273438 883.916992188 -254.155273438 c 0
 928.153731497 -254.155273438 976.076865748 -246.92365579 1024 -238.788085938 c 1
 1024 -385 l 1
 973 -394 922 -400 872 -400 c 0
 724 -400 627.467929223 -333.316004496 573 -241 c 0
 525.263125346 -160.0922512 515.110777457 -74.2175745933 513.033616807 -12.026231406 c 1
 306.678645642 14.7354274915 185.910649155 173.12319758 140 355 c 0
 114 458 112 577 112 704 c 0
 112 831 114.721062735 949.820664226 140 1053 c 0
 189 1253 331 1424 576 1424 c 0
576 1278 m 0
 412 1278 322.091491898 1153.86406603 293 1013 c 0
 274 921 270 815 270 704 c 0
 270 593 271.447306787 486.435668178 293 395 c 0
 326 255 412 130 576 130 c 0
 740 130 828.444818221 254.446163815 859 395 c 0
 879 487 882 593 882 704 c 0
 882 815 880.600264229 921.362515392 859 1013 c 0
 826 1153 740 1278 576 1278 c 0
EndSplineSet
Validated: 1
Layer: 2
Layer: 3
Layer: 4
EndChar
StartChar: R
Encoding: 82 82 45
Width: 1024
VWidth: 0
Flags: W
HStem: 0 21G<128 286 768.461 937> 640 146<286 534> 1262 146<286 655.094>
VStem: 128 158<0 640 786 1262> 754 158<886.575 1161.94>
LayerCount: 5
Back
SplineSet
128 1408 m 1
 449 1408 l 2
 526 1408 578 1408 633 1395 c 0
 792 1357 912 1220 912 1024 c 0
 912 828 792 691 633 653 c 0
 578 640 526 640 449 640 c 2
 286 640 l 1
 286 0 l 1
 128 0 l 1
 128 1408 l 1
EndSplineSet
Fore
SplineSet
449 786 m 2
 518 786 554 788 587 795 c 0
 685 817 754 903 754 1024 c 0
 754 1145 685 1232 587 1253 c 0
 554 1260 518 1262 449 1262 c 2
 286 1262 l 1
 286 786 l 1
 449 786 l 2
286 0 m 1
 128 0 l 1
 128 1408 l 1
 449 1408 l 2
 526 1408 578 1408 633 1395 c 0
 792 1357 912 1220 912 1024 c 0
 912 851 818 723 686 670 c 1
 937 0 l 1
 776 0 l 1
 534 642 l 1
 509 640 482 640 449 640 c 2
 286 640 l 1
 286 0 l 1
EndSplineSet
Validated: 1
Layer: 2
Layer: 3
Layer: 4
EndChar
StartChar: S
Encoding: 83 83 46
Width: 1024
VWidth: 0
Flags: W
HStem: -16 146<206.452 730.418> 1278 146<439.788 911.11>
VStem: 182 158<896.218 1178.26> 852 158<250.388 537.012>
LayerCount: 5
Back
SplineSet
576 -16 m 4
 455 -16 329 -1.92 216 16 c 5
 216 139 l 5
 327 120.509433962 461 104 576 104 c 4
 755 104 882 209 882 385 c 4
 882 508 813 597 724 632 c 4
 610 678 500 650 367 721 c 4
 260 778 182 895 182 1045 c 4
 182 1266 341 1424 576 1424 c 4
 692 1424 812 1407 916 1389 c 5
 916 1265 l 5
 813 1285 682 1304 576 1304 c 4
 411 1304 310 1198 310 1045 c 4
 310 942 361 863 433 825 c 4
 531 773 656 788 772 742 c 4
 901 691 1010 566 1010 385 c 4
 1010 143 825 -16 576 -16 c 4
EndSplineSet
Fore
SplineSet
916 1243 m 5
 812 1260 682 1278 576 1278 c 4
 428 1278 340 1180 340 1036 c 4
 340 941 382 870 440 836 c 4
 532 783 656 796 778 747 c 4
 904 696 1010 571 1010 391 c 4
 1010 146 830 -16 576 -16 c 4
 449 -16 318 -1 201 18 c 5
 201 168 l 5
 316 149 456 130 576 130 c 4
 740 130 852 228 852 394 c 4
 852 507 794 589 718 620 c 4
 609 664 499 637 360 715 c 4
 257 772 182 890 182 1039 c 4
 182 1263 342 1424 576 1424 c 4
 693 1424 812 1406 916 1389 c 5
 916 1243 l 5
EndSplineSet
Validated: 1
Layer: 2
SplineSet
576 1364 m 0
 770.390625 1364 906 1234.61328125 906 1034 c 4
 906 842.827148438 770.390625 704 576 704 c 0
 381.609375 704 246 842.827148438 246 1034 c 0
 246 1234.61328125 381.609375 1364 576 1364 c 0
576 704 m 0
 793.953125 704 946 562.8125 946 374 c 4
 946 175.747070312 793.953125 44 576 44 c 0
 358.046875 44 206 175.747070312 206 374 c 0
 206 562.8125 358.046875 704 576 704 c 0
EndSplineSet
Layer: 3
SplineSet
79 128 m 0
 144.895802363 111.145932658 211.265958895 96.1485403341 278 83 c 0
 327.470650044 73.2528480713 377.1161781 64.3455087742 427 57 c 0
 476.399336817 49.7258327809 526.145566171 44.0036079007 576.088827189 43.9999935717 c 0
 628.916347772 43.9999935717 682.12296447 50.8217134281 731.819837438 68.7360311327 c 0
 781.544564899 86.6603895943 827.38304997 115.945371365 863 155 c 0
 916.981438942 214.191622228 945.923474147 294.327595071 946.000620475 374.645987513 c 0
 946.000620475 437.272059165 928.506788416 500.199137273 893.793708429 552.321739809 c 0
 858.961271322 604.623560198 806.609122646 644.33394976 748 667 c 0
 691.999116076 688.65735966 631.574525984 695.355942227 572.109498153 703.665616877 c 0
 512.644470323 711.975291526 452.489230196 723.84488139 400 753 c 0
 351.117073668 780.151998799 310.53612781 821.863842988 284.516286475 871.358684966 c 0
 258.167683285 921.478896479 245.994564945 977.894264804 245.994564945 1035.07667597 c 0
 245.994564945 1079.45596113 253.44417771 1123.93416622 269.070400818 1165.46796467 c 0
 284.940370609 1207.64963084 309.596097971 1246.67690891 342 1278 c 0
 372.649790114 1307.62748643 410.03534109 1330.08392421 450.277715428 1344.14624599 c 0
 490.608689915 1358.23952827 533.478229732 1363.98936767 576.249008234 1364.00006226 c 0
 619.106941655 1364.00006226 661.797237959 1358.46895892 704 1351 c 0
 744.949710418 1343.75280361 785.564591784 1334.71485467 826 1325 c 0
 907.309501601 1305.46489386 987.915585554 1283.069524 1068 1259 c 1024
  Spiro
    79 128 {
    278 83 o
    427 57 o
    576 44 o
    863 155 o
    946 374 o
    748 667 o
    400 753 o
    246 1033 o
    342 1278 o
    576 1364 o
    704 1351 o
    826 1325 o
    1068 1259 o
    0 0 z
  EndSpiro
EndSplineSet
Layer: 4
EndChar
StartChar: T
Encoding: 84 84 47
Width: 1024
VWidth: 0
Flags: W
HStem: 0 21G<497 655> 1262 146<128 497 655 1024>
VStem: 497 158<0 1262>
LayerCount: 5
Back
Fore
SplineSet
1024 1408 m 1
 1024 1262 l 5
 655 1262 l 5
 655 0 l 1
 497 0 l 1
 497 1262 l 5
 128 1262 l 5
 128 1408 l 1
 1024 1408 l 1
EndSplineSet
Validated: 1
Layer: 2
Layer: 3
Layer: 4
EndChar
StartChar: V
Encoding: 86 86 49
Width: 1024
VWidth: 0
Flags: W
HStem: 0 21G<395.706 756.294> 1388 20G<105 298.696 853.304 1047>
VStem: 105 160<1205.12 1408> 887 160<1205.12 1408>
LayerCount: 5
Back
SplineSet
581 157 m 5
 747 552 843 978 917 1408 c 5
 1047 1408 l 5
 963 927 849 445 634 0 c 5
 518 0 l 5
 303 445 189 927 105 1408 c 5
 235 1408 l 5
 309 978 405 550 571 157 c 5
 581 157 l 5
EndSplineSet
Fore
SplineSet
581 177 m 5
 732.178571429 565.685051958 819.607142857 984.8745004 887 1408 c 1
 1047 1408 l 1
 967.06779661 927 858.588377724 445 654 0 c 1
 498 0 l 1
 293.411622276 445 184.93220339 927 105 1408 c 1
 265 1408 l 1
 332.392857143 984.8745004 419.821428571 563.717026379 571 177 c 5
 581 177 l 5
EndSplineSet
Validated: 1
Layer: 2
SplineSet
49.8203125 1728.42578125 m 5
 176.1796875 1747.57324219 l 5
 226.1796875 1457.57421875 l 4
 301.982421875 1017.91796875 401.680664062 579.475585938 576 177.118164062 c 5
 751.01953125 581.08984375 849.983398438 1017.72167969 925.8203125 1457.57421875 c 4
 975.8203125 1747.57324219 l 5
 1102.1796875 1728.42578125 l 5
 1052.1796875 1438.42578125 l 4
 967.588867188 947.799804688 853.788085938 454.430664062 634.295898438 0.2392578125 c 5
 517.704101562 0.2392578125 l 5
 298.211914062 454.430664062 184.411132812 947.799804688 99.8203125 1438.42578125 c 4
 49.8203125 1728.42578125 l 5
  Spiro
    49.8203 1728.43 v
    176.18 1747.57 v
    226.18 1457.57 [
    311.729 1020.05 o
    424.806 589.79 o
    576 177.118 v
    727.498 590.464 o
    840.411 1020.32 o
    925.82 1457.57 ]
    975.82 1747.57 v
    1102.18 1728.43 v
    1052.18 1438.43 [
    955.132 948.926 o
    821.233 465.462 o
    634.296 0.239258 v
    517.704 0.239258 v
    330.767 465.462 o
    196.868 948.926 o
    99.8203 1438.43 ]
    0 0 z
  EndSpiro
EndSplineSet
Layer: 3
Layer: 4
EndChar
StartChar: W
Encoding: 87 87 50
Width: 1024
VWidth: 0
Flags: W
HStem: -6.03961e-14 21G<245.672 398.771 758.365 947.441> 1388 20G<119 277 875 1033>
VStem: 119 158<964.175 1408> 875 158<964.169 1408>
LayerCount: 5
Back
SplineSet
514 896 m 5
 638 896 l 5
 812 210 l 5
 822 210 l 5
 887 579 905 991 905 1408 c 5
 1033 1408 l 5
 1033 935 986 466 894 0 c 5
 770 0 l 5
 581 736 l 5
 571 736 l 5
 382 0 l 5
 258 0 l 5
 166 466 119 935 119 1408 c 5
 247 1408 l 5
 247 991 266 579 330 210 c 5
 340 210 l 5
 514 896 l 5
EndSplineSet
Fore
SplineSet
906.328156764 -8.17124146124e-14 m 5
 758.365225631 0 l 5
 576 710.162995048 l 5
 393.634774369 -6.03961325396e-14 l 5
 245.671843236 0 l 5
 163.451375607 465.780696629 119 931.64839558 119 1408 c 5
 277 1408 l 5
 277 1003.23656443 290.511938537 603.416956854 336.980797184 244.107319042 c 5
 502.329669613 896 l 5
 649.670330387 896 l 5
 815.089417874 243.83049416 l 5
 862.522685164 605.661606135 875 1002.75762775 875 1408 c 5
 1033 1408 l 5
 1033 931.620946542 988.554648682 465.814824357 906.328156764 -8.17124146124e-14 c 5
EndSplineSet
Validated: 1
Layer: 2
Layer: 3
Layer: 4
Substitution2: "'ss01' Style Set 1 lookup 8-1" W.alt
EndChar
StartChar: X
Encoding: 88 88 51
Width: 1024
VWidth: 0
Flags: W
HStem: 0 21G<88.2559 276.195 875.805 1063.74> 1388 20G<120.853 306.799 845.201 1031.15>
LayerCount: 5
Back
SplineSet
571 824 m 5
 581 824 l 5
 884 1408 l 5
 1031 1408 l 5
 660 721 l 5
 660 711 l 5
 1063 0 l 5
 915 0 l 5
 581 608 l 5
 571 608 l 5
 237 0 l 5
 89 0 l 5
 492 711 l 5
 492 721 l 5
 121 1408 l 5
 268 1408 l 5
 571 824 l 5
EndSplineSet
Fore
SplineSet
297.116210938 1408 m 1
 576 831.93356936 l 1
 854.883789062 1408 l 1
 1031.14746094 1408 l 1
 670 716.932617188 l 1
 670 714.7265625 l 1
 1063.74414062 0 l 1
 886.125976562 0 l 1
 576 600.947594756 l 1
 265.874023438 0 l 5
 88.255859375 0 l 1
 482 714.7265625 l 1
 482 716.932617188 l 1
 120.852539062 1408 l 1
 297.116210938 1408 l 1
EndSplineSet
Layer: 2
Layer: 3
Layer: 4
EndChar
StartChar: Z
Encoding: 90 90 53
Width: 1024
VWidth: 0
Flags: W
HStem: 0 146<303 1024> 1262 146<148 829>
LayerCount: 5
Back
Fore
SplineSet
148 1262 m 1
 148 1408 l 1
 1004 1408 l 1
 1004 1292 l 1
 303 156 l 1
 303 146 l 1
 1024 146 l 1
 1024 0 l 1
 128 0 l 1
 128 118 l 1
 829 1252 l 5
 829 1262 l 5
 148 1262 l 1
EndSplineSet
Layer: 2
Layer: 3
Layer: 4
EndChar
StartChar: bracketleft
Encoding: 91 91 87
Width: 1024
VWidth: 0
Flags: W
HStem: -128 146<542 896> 1390 146<542 896>
VStem: 384 158<18 1390>
LayerCount: 5
Back
Fore
SplineSet
384 1536 m 5
 896 1536 l 5
 896 1390 l 5
 542 1390 l 5
 542 18 l 5
 896 18 l 5
 896 -128 l 5
 384 -128 l 5
 384 1536 l 5
EndSplineSet
Layer: 2
Layer: 3
Layer: 4
EndChar
StartChar: backslash
Encoding: 92 92 26
Width: 1024
VWidth: 0
Flags: W
LayerCount: 5
Back
Fore
SplineSet
1041 -128 m 1
 873 -128 l 5
 112 1537 l 1
 280 1537 l 1
 1041 -128 l 1
EndSplineSet
Validated: 1
Layer: 2
Layer: 3
Layer: 4
EndChar
StartChar: bracketright
Encoding: 93 93 88
Width: 1024
VWidth: 0
Flags: W
HStem: -128 146<256 610> 1390 146<256 610>
VStem: 610 158<18 1390>
LayerCount: 5
Back
Fore
SplineSet
768 1536 m 5
 768 -128 l 5
 256 -128 l 5
 256 18 l 5
 610 18 l 5
 610 1390 l 5
 256 1390 l 5
 256 1536 l 5
 768 1536 l 5
EndSplineSet
Validated: 1
Layer: 2
Layer: 3
Layer: 4
EndChar
StartChar: asciicircum
Encoding: 94 94 89
Width: 1024
VWidth: 0
Flags: W
HStem: 1299 109<519.842 632.158>
VStem: 201 135<896 1003.82> 816 135<896 1003.82>
LayerCount: 5
Back
Fore
SplineSet
201 896 m 1
 250 1076 332 1249 496 1408 c 1
 656 1408 l 1
 820 1249 902 1076 951 896 c 1
 816 896 l 1
 769 1055 699 1190 601 1299 c 1
 551 1299 l 1
 453 1190 383 1055 336 896 c 1
 201 896 l 1
EndSplineSet
Validated: 1
Layer: 2
Layer: 3
Layer: 4
EndChar
StartChar: underscore
Encoding: 95 95 90
Width: 1024
VWidth: 0
Flags: W
HStem: -146 146<128 1024>
LayerCount: 5
Back
Fore
SplineSet
128 0 m 1
 1024 0 l 1
 1024 -146 l 5
 128 -146 l 5
 128 0 l 1
EndSplineSet
Layer: 2
Layer: 3
Layer: 4
EndChar
StartChar: a
Encoding: 97 97 2
Width: 1024
VWidth: 0
Flags: W
HStem: -16 146<440.562 633.624> 0 21G<738 896> 512 136<440.45 738> 894 146<323.984 711.028>
VStem: 224 158<192.32 449.675> 738 158<0 113 217.098 512 648 866.77>
LayerCount: 5
Back
SplineSet
738 512 m 1
 570 512 l 6
 512 512 478.083272506 511.92123209 430 461 c 4
 394.06224118 422.941131244 382 375 382 316 c 0
 382 207 429 130 536 130 c 0
 642 130 688.097839262 179.958529165 719 253 c 0
 741 305 738 355 738 427 c 2
 738 512 l 1
608 1040 m 0
 704 1040 804.899946805 1020.94342731 866 913 c 0
 896 860 896 785 896 749 c 2
 896 0 l 1
 738 0 l 1
 738 123 l 1
 729 123 l 1
 665 35 601 -16 492 -16 c 0
 439 -16 344 15 280 111 c 0
 246 162 224 237 224 314 c 0
 224 396 248.649033277 492.352932907 312 555 c 0
 402 644 512 648 574 648 c 2
 738 648 l 1
 738 735 l 2
 738 779 739.062212581 811.036207004 721 842 c 0
 700 878 677 894 589 894 c 0
 501 894 408 886 320 875 c 1
 320 1021 l 1
 407 1031 516 1040 608 1040 c 0
EndSplineSet
Fore
SplineSet
738 512 m 1xbc
 572 512 l 2
 524 512 474.160337489 511.858445552 430 462 c 0
 399 427 382 372 382 317 c 0
 382 215 445 130 537 130 c 0
 627 130 691.861573666 185.439765052 719 254 c 0
 738 302 738 360 738 427 c 2
 738 512 l 1xbc
608 1040 m 0
 704 1040 804.899946805 1020.94342731 866 913 c 0
 896 860 896 785 896 749 c 2
 896 0 l 1
 738 0 l 1x7c
 738 113 l 1
 729 113 l 1
 669 31 595 -16 492 -16 c 0
 442 -16 340.276777048 11.1665880143 280 111 c 0
 248 164 224 234 224 314 c 0
 224 399 248.548748969 489.433707268 312 555 c 0
 402 648 512 648 574 648 c 2
 738 648 l 1
 738 734 l 2
 738 774 737.977842788 812.9865594 721 841 c 0
 701 874 671 894 589 894 c 0
 506.694029851 894 402.305970149 885 320 875 c 1
 320 1021 l 1
 407 1031 516 1040 608 1040 c 0
EndSplineSet
Validated: 1
Layer: 2
SplineSet
640 980 m 4
 753.1 980 832 901.2875 832 788 c 4
 832 674.7125 753.1 596 640 596 c 4
 526.9 596 448 674.7125 448 788 c 4
 448 901.2875 526.9 980 640 980 c 4
  Spiro
    640 980 o
    739.959 955.445 o
    807.403 888.042 o
    832 788 o
    807.403 687.958 o
    739.959 620.555 o
    640 596 o
    540.041 620.555 o
    472.597 687.958 o
    448 788 o
    472.597 888.042 o
    540.041 955.445 o
    0 0 z
  EndSpiro
530 648 m 0
 707.896484375 648 832 524.19140625 832 346 c 0
 832 167.80859375 707.896484375 44 530 44 c 0
 352.103515625 44 228 167.80859375 228 346 c 0
 228 524.19140625 352.103515625 648 530 648 c 0
  Spiro
    530 648 o
    687.227 609.377 o
    793.311 503.358 o
    832 346 o
    793.311 188.642 o
    687.227 82.6234 o
    530 44 o
    372.773 82.6234 o
    266.689 188.642 o
    228 346 o
    266.689 503.358 o
    372.773 609.377 o
    0 0 z
  EndSpiro
530 572 m 0
 658.415833716 572 748 463.770565257 748 308 c 0
 748 152.229434743 658.415833716 44 530 44 c 0
 400.174621582 44 288 152.229434743 288 308 c 0
 288 463.770565257 400.174621582 572 530 572 c 0
  Spiro
    530 572 o
    643.495 538.237 o
    720.072 445.558 o
    748 308 o
    720.072 170.442 o
    643.495 77.7634 o
    530 44 o
    409.667 77.7634 o
    321.826 170.442 o
    288 308 o
    321.826 445.558 o
    409.667 538.237 o
    0 0 z
  EndSpiro
EndSplineSet
Layer: 3
SplineSet
798 572 m 1
 572 572 l 2
 533.314771203 572 494.076087576 570.678786497 457.172350778 559.074427945 c 0
 420.26861398 547.470069392 386.492077281 526.190721317 360 498 c 0
 311.947263836 446.866173106 287.981201153 375.609337513 287.981201153 305.404730188 c 0
 287.981201153 234.451975462 312.78628906 164.41960592 362 115 c 0
 405.93668744 70.8794950186 467.774736965 46.2512448185 530 44 c 0
 533.423814351 43.8761299842 536.849058237 43.8145693516 540.273846003 43.8145693516 c 0
 591.753735765 43.8145693516 643.130566268 57.7240515552 688 83 c 0
 739.52202676 112.023501833 781.978691441 157.530721941 805 212 c 0
 831.495481996 274.689302499 832.00079465 344.680006573 832.00079465 412.893718175 c 0
 832.00079465 415.598795317 832 418.301077976 832 421 c 2
 832 753 l 2
 832 787.067507676 831.438521313 821.640646179 821.71756104 854.291802523 c 0
 811.996600767 886.942958867 792.78935185 916.954199785 766 938 c 0
 744.543049897 954.856648403 718.867697608 965.876369778 692.295134361 972.076868596 c 0
 665.722571113 978.277367413 638.286387406 979.980882532 611 980 c 0
 610.496344617 980.000176321 l 0
 577.613249573 980.000176321 544.768439117 977.74836546 512 975 c 0
 469.224748792 971.412339858 426.540587814 966.735138154 384 961 c 0
 341.144530926 955.222410916 298.449053443 948.249219781 256 940 c 1024
  Spiro
    798 572 {
    572 572 ]
    360 498 o
    288 302 o
    362 115 o
    530 44 o
    688 83 o
    805 212 o
    832 421 [
    832 753 ]
    766 938 o
    611 980 o
    512 975 o
    384 961 o
    256 940 o
    0 0 z
  EndSpiro
EndSplineSet
Layer: 4
EndChar
StartChar: b
Encoding: 98 98 0
Width: 1024
VWidth: 0
Flags: W
HStem: -16 146<506.917 686.469> 0 21G<256 414> 894 146<506.917 686.469> 1388 20G<256 414>
VStem: 256 158<0 115 228.169 795.831 909 1408> 770 158<228.802 795.198>
LayerCount: 5
Back
Fore
SplineSet
256 1408 m 1x7c
 414 1408 l 1
 414 909 l 1
 424 909 l 1
 480.702148438 996.765625 541.510742188 1040 642 1040 c 0
 744.354492188 1040 853.70703125 951.798828125 900 803 c 0
 928 713 928 624 928 512 c 0
 928 400 928 311 900 221 c 0
 853.70703125 72.201171875 744.354492188 -16 642 -16 c 0xbc
 541.510742188 -16 480.702148438 27.234375 424 115 c 1
 414 115 l 1
 414 0 l 1
 256 0 l 1
 256 1408 l 1x7c
770 512 m 0
 770 598 769 681 748 752 c 0
 726 826 674 894 592 894 c 0
 510 894 458 826 436 752 c 0
 415 681 414 598 414 512 c 0
 414 426 415 343 436 272 c 0
 458 198 510 130 592 130 c 0
 674 130 726 198 748 272 c 0
 769 343 770 426 770 512 c 0
EndSplineSet
Validated: 1
Layer: 2
SplineSet
592 980 m 4
 752.224698154 980 864 868.490323154 864 708 c 4
 864 547.509676846 752.224698154 436 592 436 c 4
 431.775301846 436 320 547.509676846 320 708 c 4
 320 868.490323154 431.775301846 980 592 980 c 4
EndSplineSet
Layer: 3
Layer: 4
EndChar
StartChar: c
Encoding: 99 99 3
Width: 1024
VWidth: 0
Flags: W
HStem: -16 146<467.729 891.345> 894 146<471.879 871.765>
VStem: 224 158<223.336 800.004>
LayerCount: 5
Back
Fore
SplineSet
224 512 m 4
 224 633 226 738 267 831 c 4
 317 946 418 1040 606 1040 c 4
 709 1040 786 1030 876 1018 c 5
 876 872 l 5
 785 884 702 894 606 894 c 4
 509.015873016 894 443.939423765 854.212035404 411 780 c 4
 383.657142857 718.396946565 382 610.198473282 382 512 c 4
 382 416 382 320 407 251 c 4
 436.127383547 170.60842141 507.026455026 130 606 130 c 4
 706 130 796 141 896 156 c 5
 896 10 l 5
 797 -5 713 -16 606 -16 c 4
 418 -16 318 78 267 193 c 4
 226 286 224 391 224 512 c 4
EndSplineSet
Validated: 1
Layer: 2
Layer: 3
Layer: 4
EndChar
StartChar: d
Encoding: 100 100 4
Width: 1024
VWidth: 0
Flags: W
HStem: -16 146<465.531 645.083> 0 21G<738 896> 894 146<465.531 645.083> 1388 20G<738 896>
VStem: 224 158<228.802 795.198> 738 158<0 115 228.169 795.831 909 1408>
LayerCount: 5
Back
SplineSet
540 1040 m 4xbc
 623 1040 709 1001 758 899 c 5
 768 899 l 5
 768 1408 l 5
 896 1408 l 5
 896 0 l 5
 768 0 l 5x7c
 768 125 l 5
 758 125 l 5
 709 23 623 -16 540 -16 c 4
 409 -16 299 71 252 221 c 4
 224 311 224 400 224 512 c 4
 224 624 224 713 252 803 c 4
 299 953 409 1040 540 1040 c 4xbc
560 920 m 4
 464 920 404 847 378 768 c 4
 353 692 352 604 352 512 c 4
 352 420 353 332 378 256 c 4
 404 177 464 104 560 104 c 4xbc
 656 104 716 177 742 256 c 4
 767 332 768 420 768 512 c 4
 768 604 767 692 742 768 c 4
 716 847 656 920 560 920 c 4
EndSplineSet
Fore
SplineSet
738 115 m 5x7c
 728 115 l 5
 671.297851562 27.234375 610.489257812 -16 510 -16 c 4xbc
 407.645507812 -16 298.29296875 72.201171875 252 221 c 4
 224 311 224 400 224 512 c 4
 224 624 224 713 252 803 c 4
 298.292904806 951.79862259 407.645833333 1040 510 1040 c 4
 610.489361702 1040 671.29787234 996.765957447 728 909 c 5
 738 909 l 5
 738 1408 l 5
 896 1408 l 5
 896 0 l 5
 738 0 l 5
 738 115 l 5x7c
382 512 m 4
 382 426 383 343 404 272 c 4
 426 198 478 130 560 130 c 4
 642 130 694 198 716 272 c 4
 737 343 738 426 738 512 c 4
 738 598 737 681 716 752 c 4
 694 826 642 894 560 894 c 4
 478 894 426 826 404 752 c 4
 383 681 382 598 382 512 c 4
EndSplineSet
Validated: 1
Layer: 2
Layer: 3
Layer: 4
EndChar
StartChar: e
Encoding: 101 101 5
Width: 1024
VWidth: 0
Flags: W
HStem: -16 147<464.399 891.058> 486 146<385 767> 894 146<465.685 686.78>
VStem: 224 158<228.445 486 632 797.413> 767 161<632 804.742>
LayerCount: 5
Back
Fore
SplineSet
767 632 m 5
 767 642 766 733 729 803 c 4
 700 858 650 894 576 894 c 4
 503 894 452 858 424 804 c 4
 387 734 386 655 385 632 c 5
 767 632 l 5
576 1040 m 4
 736 1040 845 946 888 829 c 4
 926 726 928 617 928 486 c 5
 382 486 l 5
 382 394 383 307 414 239 c 4
 445 172 493 131 589 131 c 4
 684 131 789 139 896 152 c 5
 896 5 l 5
 792 -8 696 -16 596 -16 c 4
 422 -16 311 77 264 193 c 4
 226 286 224 391 224 512 c 4
 224 633 226 734 264 829 c 4
 310 945 416 1040 576 1040 c 4
EndSplineSet
Validated: 1
Layer: 2
SplineSet
576.08984375 1066 m 0
 587.341796875 1065.99023438 598.587890625 1065.55664062 609.793945312 1064.703125 c 0
 678.79296875 1059.45703125 746.189453125 1038.07226562 804.908203125 1001.828125 c 0
 863.638671875 965.578125 912.032226562 915.555664062 945.4453125 856.86328125 c 0
 979.1640625 797.634765625 997.034179688 730.986328125 997.034179688 662.755859375 c 0
 997.034179688 608.5859375 986.184570312 556.486328125 963.885742188 505.471679688 c 1
 1081.32128906 132.825195312 l 0
 1095.90429688 86.548828125 1065.28417969 38.689453125 1016.28515625 26.169921875 c 0
 962.3125 12.37890625 907.916015625 0.2578125 853.198242188 -10.1875 c 0
 801.266601562 -20.1005859375 748.18359375 -29.0009765625 693.841796875 -35.314453125 c 0
 661.927734375 -39.0224609375 627.97265625 -42.03515625 592.068359375 -42.03515625 c 0
 589.65234375 -42.03515625 587.236328125 -42.021484375 584.8203125 -41.9931640625 c 0
 574.625976562 -41.873046875 564.33984375 -41.490234375 553.772460938 -40.7451171875 c 0
 487.754882812 -36.0888671875 419.290039062 -16.20703125 360.897460938 24.9521484375 c 0
 303.01171875 65.7529296875 262.668945312 121.224609375 237.53125 180.025390625 c 0
 212.619140625 238.297851562 202.744140625 297.541015625 198.123046875 353.020507812 c 0
 194.579101562 395.578125 193.856445312 437.088867188 193.856445312 477.393554688 c 0
 193.856445312 489.21484375 193.919921875 500.935546875 194.001953125 512.552734375 c 0
 194.688476562 610.875 191.498046875 724.625 236.384765625 836.991210938 c 0
 259.374023438 894.541015625 296.288085938 950.096679688 351.087890625 992.599609375 c 0
 406.381835938 1035.48828125 473.8125 1059.27148438 541.870117188 1064.67773438 c 0
 553.400390625 1065.59375 564.825195312 1066.00976562 576.08984375 1066 c 0
575.91015625 894 m 0
 569.821289062 894.004882812 563.896484375 893.780273438 558.129882812 893.322265625 c 0
 526.677734375 890.82421875 496.241210938 879.69140625 472.658203125 861.400390625 c 0
 448.579101562 842.724609375 427.002929688 813.100585938 412.9609375 777.950195312 c 0
 383.787109375 704.916015625 382.706054688 612.764648438 381.998046875 511.447265625 c 0
 381.91796875 499.999023438 381.856445312 488.646484375 381.856445312 477.393554688 c 0
 381.856445312 439.0390625 382.598632812 401.889648438 385.580078125 366.08984375 c 0
 389.400390625 320.223632812 397.552734375 277.913085938 412.615234375 242.676757812 c 0
 427.454101562 207.966796875 450.400390625 178.991210938 475.637695312 161.203125 c 0
 500.366210938 143.772460938 532.801757812 133.244140625 568.227539062 130.74609375 c 0
 574.30078125 130.317382812 580.692382812 130.069335938 587.1796875 129.993164062 c 0
 588.80859375 129.974609375 590.439453125 129.96484375 592.068359375 129.96484375 c 0
 616.271484375 129.96484375 642.3515625 132.083984375 670.158203125 135.315429688 c 0
 717.740234375 140.84375 765.944335938 148.861328125 814.801757812 158.1875 c 0
 834.481445312 161.944335938 854.653320312 166.0546875 873.884765625 170.19921875 c 1
 773.678710938 488.174804688 l 0
 766.938476562 509.564453125 771.739257812 535.729492188 780.198242188 550.958984375 c 0
 798.706054688 584.28125 809.034179688 623.766601562 809.034179688 662.755859375 c 0
 809.034179688 703.427734375 798.26171875 743.05859375 778.705078125 777.41015625 c 0
 759.522460938 811.10546875 731.49609375 839.657226562 699.76171875 859.244140625 c 0
 668.017578125 878.838867188 631.2109375 890.481445312 594.206054688 893.295898438 c 0
 588.111328125 893.759765625 582.009765625 893.995117188 575.91015625 894 c 0
EndSplineSet
Layer: 3
Layer: 4
EndChar
StartChar: f
Encoding: 102 102 6
Width: 1024
VWidth: 0
Flags: W
HStem: 0 21G<384 542> 760 146<128 384 542 896> 1278 146<573.517 893.068>
VStem: 384 158<0 760 906 1246.06>
LayerCount: 5
Back
Fore
SplineSet
664 1424 m 0
 752.208333333 1424 833.166666667 1414.06666667 896 1407 c 1
 896 1261 l 1
 834.375 1266.93333333 751 1278 664 1278 c 0
 622.594939818 1278 586.542339157 1260.65020615 566 1230 c 0
 542 1194.19078947 542 1123 542 1069 c 2
 542 906 l 1
 896 906 l 1
 896 760 l 1
 542 760 l 1
 542 0 l 1
 384 0 l 1
 384 760 l 1
 128 760 l 1
 128 906 l 1
 384 906 l 1
 384 1091 l 2
 384 1189 386.000015053 1253.96268867 425 1314 c 0
 481.401295652 1400.82521675 578.295899586 1424 664 1424 c 0
EndSplineSet
Validated: 1
Layer: 2
Layer: 3
Layer: 4
EndChar
StartChar: g
Encoding: 103 103 7
Width: 1024
VWidth: 0
Flags: W
HStem: -400 146<302.991 661.116> -16 146<465.531 645.098> 894 146<465.513 645.083> 1004 20G<738 896>
VStem: 224 158<228.802 795.204> 738 158<-171.765 115 228.157 795.831 909 1024>
LayerCount: 5
Back
SplineSet
738 115 m 5x7c
 728 115 l 5
 671.297851562 27.234375 610.489257812 -16 510 -16 c 4xbc
 407.645507812 -16 298.29296875 72.201171875 252 221 c 4
 224 311 224 400 224 512 c 4
 224 624 224 713 252 803 c 4
 298.292904806 951.79862259 407.645833333 1040 510 1040 c 4
 610.489361702 1040 671.29787234 996.765957447 728 909 c 5
 738 909 l 5
 738 1024 l 5
 896 1024 l 5
 896 0 l 5
 738 0 l 5
 738 115 l 5x7c
382 512 m 4
 382 426 382.900650476 342.970539308 404 272 c 4
 426 198 478 130 560 130 c 4
 642 130 694.103590375 197.969281744 716 272 c 4
 737 343 738 426 738 512 c 4
 738 598 737.099349524 681.029460692 716 752 c 4
 694 826 642 894 560 894 c 4
 478 894 425.896409625 826.030718256 404 752 c 4
 383 681 382 598 382 512 c 4
896 32 m 6
 896 -28 896 -139 835 -241 c 4
 780 -333 684 -400 536 -400 c 4
 446 -400 364 -393 300 -385 c 5
 300 -265 l 5
 363 -272 447 -280 536 -280 c 4
 632 -280 687 -241 724 -182 c 4
 768 -111 768 -15 768 32 c 1030
EndSplineSet
Fore
SplineSet
738 44 m 5xdc
 738 115 l 1
 728 115 l 1
 671.297851562 27.234375 610.489257812 -16 510 -16 c 0
 407.645507812 -16 298.29296875 72.201171875 252 221 c 0
 224 311 224 400 224 512 c 0
 224 624 224 713 252 803 c 0
 298.292904806 951.79862259 407.645833333 1040 510 1040 c 0xec
 610.489361702 1040 671.29787234 996.765957447 728 909 c 1
 738 909 l 1
 738 1024 l 1
 896 1024 l 1
 896 42 l 5
 896 -29.3860294118 895.847342807 -134.79372892 835 -241 c 4
 780 -337 684 -400 536 -400 c 4
 446 -400 364 -393 300 -385 c 5
 300 -239 l 5
 363 -246 447 -254 536 -254 c 4
 621.787234043 -254 678.779266025 -216.462073125 704 -166 c 4
 738 -97.9722222222 738 -12.1757563285 738 44 c 5xdc
382 512 m 0
 382 426 382.900650476 342.970539308 404 272 c 0
 426 198 478 130 560 130 c 0
 642 130 694.103590375 197.969281744 716 272 c 0
 737 343 738 426 738 512 c 0
 738 598 737.099349524 681.029460692 716 752 c 0
 694 826 642 894 560 894 c 0
 478 894 425.896409625 826.030718256 404 752 c 0
 383 681 382 598 382 512 c 0
EndSplineSet
Layer: 2
Layer: 3
SplineSet
560 256 m 0
 540.531058528 255.947221234 521.068001614 253.93112987 502 250 c 0
 429.609085841 235.075620889 363.438945309 190.787450634 323.3553728 128.686816502 c 0
 295.049798907 84.8335874058 280.159157176 32.615220877 280.159157176 -19.5380184051 c 0
 280.159157176 -41.2390721402 282.737332713 -62.9288497008 288 -84 c 1
 209 -374 l 1
 242.96542309 -380.84150246 276.961124633 -387.533850806 311 -394 c 0
 348.904671387 -401.200509937 386.85129422 -408.230450311 425 -414 c 0
 461.90225773 -419.581038865 499.006770216 -423.98450874 536.377578814 -424.000158115 c 0
 559.041833588 -424.000158115 581.745827027 -422.289510396 604 -418 c 0
 640.10095022 -411.041511745 674.92790157 -396.960217035 705.038701814 -375.864272538 c 0
 735.149502059 -354.768328042 760.351981447 -326.936162582 779.427369943 -295.506419991 c 0
 817.886880116 -232.13824769 832.002686517 -156.82331051 832.002686517 -82.2233925653 c 0
 832.002686517 -11.0094668425 819.032413309 61.5201974215 784.179541127 123.59687694 c 0
 766.608167036 154.893366725 743.26464813 183.100056667 714.856993763 205.036980648 c 0
 686.449339397 226.973904628 653.075441808 242.38837453 618 250 c 0
 598.968519222 254.12996947 579.474370882 256.052793484 560 256 c 0
  Spiro
    560 256 o
    502 250 o
    288 -84 v
    209 -374 v
    311 -394 o
    425 -414 o
    536 -424 o
    604 -418 o
    832 -84 o
    618 250 o
    0 0 z
  EndSpiro
EndSplineSet
Layer: 4
EndChar
StartChar: h
Encoding: 104 104 8
Width: 1024
VWidth: 0
Flags: W
HStem: 0 21G<256 414 738 896> 894 146<501.942 677.459> 1388 20G<256 414>
VStem: 256 158<0 831.984 922 1408> 738 158<0 831.984>
LayerCount: 5
Back
Fore
SplineSet
626 1040 m 0
 705.406086451 1040 781.280118835 992.773965608 828 933 c 0
 896 846 896 751 896 657 c 2
 896 0 l 1
 738 0 l 1
 738 631 l 2
 738 718 737.788677306 778.845145914 699 832 c 0
 672 869 630 894 576 894 c 0
 522 894 479.02477648 868.982577103 453 832 c 0
 415 778 414 718 414 631 c 2
 414 0 l 1
 256 0 l 1
 256 1408 l 5
 414 1408 l 5
 414 922 l 1
 424 922 l 1
 473.325581395 992.984375 539.662790698 1040 626 1040 c 0
EndSplineSet
Validated: 1
Layer: 2
Layer: 3
Layer: 4
EndChar
StartChar: i
Encoding: 105 105 9
Width: 1024
VWidth: 0
Flags: W
HStem: 0 146<256 497 655 896> 878 146<256 497> 1178 269<447.375 641.125>
VStem: 410 269<1215.38 1409.12> 497 158<146 878>
LayerCount: 5
Back
Fore
SplineSet
544 1447 m 4xf0
 623 1447 679 1391 679 1312 c 4
 679 1233 623 1178 544 1178 c 4
 465 1178 410 1233 410 1312 c 4
 410 1391 465 1447 544 1447 c 4xf0
256 0 m 1
 256 146 l 1
 497 146 l 1
 497 878 l 5
 256 878 l 5
 256 1024 l 5
 655 1024 l 5
 655 146 l 1xe8
 896 146 l 1
 896 0 l 1
 256 0 l 1
EndSplineSet
Validated: 1
Layer: 2
Layer: 3
Layer: 4
Substitution2: "'ss02' Style Set 2 lookup 9-1" i.alt
EndChar
StartChar: j
Encoding: 106 106 10
Width: 1024
VWidth: 0
Flags: W
HStem: -400 146<258.426 562.071> 878 146<369 610> 1178 269<560.375 754.125>
VStem: 523 269<1215.38 1409.12> 610 158<-206.21 878>
LayerCount: 5
Back
Fore
SplineSet
657 1447 m 0xf0
 736 1447 792 1391 792 1312 c 0
 792 1233 736 1178 657 1178 c 0
 578 1178 523 1233 523 1312 c 0
 523 1391 578 1447 657 1447 c 0xf0
369 1024 m 1
 768 1024 l 1
 768 2 l 5
 768 -99.0683892847 768 -180.601952971 727 -253 c 4
 676.648846402 -341.910370394 581 -400 448 -400 c 4
 375 -400 308 -393 256 -385 c 5
 256 -239 l 5
 307 -246 376 -254 448 -254 c 4
 518 -254 562.259465345 -228.064082235 586 -186 c 4
 610 -143.476190476 610 -47.5714285714 610 4 c 5
 610 878 l 1xe8
 369 878 l 1
 369 1024 l 1
EndSplineSet
Validated: 1
Layer: 2
SplineSet
448 44 m 4
 598.8 44 704 -60.95 704 -212 c 4
 704 -363.05 598.8 -468 448 -468 c 4
 297.2 -468 192 -363.05 192 -212 c 4
 192 -60.95 297.2 44 448 44 c 4
EndSplineSet
Layer: 3
SplineSet
704 45 m 1
 704 -172 l 2
 704 -209.30175595 703.454831685 -246.92394934 695.223254122 -283.306117057 c 0
 686.99167656 -319.688284774 671.043396481 -354.533371494 647.203993415 -383.22315815 c 0
 623.364590348 -411.912944806 592.00622287 -434.113648541 557.420372628 -448.086477886 c 0
 522.739235077 -462.097803707 485.192168037 -467.986486026 447.729768683 -468.00009819 c 0
 405.278768715 -468.00009819 363.072771044 -460.733301726 322 -450 c 0
 286.585548448 -440.745353082 251.873601214 -428.871229546 218 -415 c 0
 185.834505443 -401.828239618 154.435909116 -386.785998568 124 -370 c 1
 704 45 l 1
  Spiro
    704 45 v
    704 -172 ]
    448 -468 o
    322 -450 o
    218 -415 o
    124 -370 v
    0 0 z
  EndSpiro
EndSplineSet
Layer: 4
Substitution2: "'ss02' Style Set 2 lookup 9-1" j.alt
EndChar
StartChar: k
Encoding: 107 107 11
Width: 1024
VWidth: 0
Flags: W
HStem: 0 21G<256 414 807.39 1002> 1004 20G<750.888 955> 1388 20G<256 414>
VStem: 256 158<0 435 632 1408>
LayerCount: 5
Back
SplineSet
384 0 m 5
 256 0 l 5
 256 1408 l 5
 384 1408 l 5
 384 602 l 5
 794 1024 l 5
 955 1024 l 5
 592 645 l 5
 1002 0 l 5
 846 0 l 5
 509 560 l 5
 384 435 l 5
 384 0 l 5
EndSplineSet
Fore
SplineSet
414 0 m 1
 256 0 l 1
 256 1408 l 1
 414 1408 l 1
 414 632 l 1
 769 1024 l 5
 955 1024 l 1
 612 635 l 1
 1002 0 l 1
 819 0 l 1
 509 534 l 1
 414 435 l 1
 414 0 l 1
EndSplineSet
Validated: 1
Layer: 2
SplineSet
515 527 m 29
 1460 -418 l 1053
330 354 m 29
 1107 1131 l 1053
EndSplineSet
Layer: 3
Layer: 4
EndChar
StartChar: m
Encoding: 109 109 13
Width: 1024
VWidth: 0
Flags: W
HStem: 0 21G<128 286 503 649 866 1024> 894 146<332.387 475.257 676.935 837.048> 1004 20G<128 286>
VStem: 128 158<0 867.64 959 1024> 503 146<0 867.64> 866 158<0 867.64>
CounterMasks: 1 1c
LayerCount: 5
Back
Fore
SplineSet
434 1040 m 4xdc
 509 1040 566 996 597 939 c 5
 652 1005 716 1040 798 1040 c 4
 874 1040 935 1004 972 954 c 4
 1024 884 1024 814 1024 730 c 6
 1024 0 l 5
 866 0 l 5
 866 704 l 6
 866 771 866 819 840 853 c 4
 822 877 794 894 758 894 c 4
 722 894 692 877 674 853 c 4
 649 819 649 771 649 704 c 6
 649 0 l 5
 503 0 l 5
 503 704 l 6
 503 771 503 820 478 853 c 4
 460 877 430 894 394 894 c 4xdc
 358 894 330 877 312 853 c 4
 287 819 286 771 286 704 c 6
 286 0 l 5
 128 0 l 5
 128 1024 l 5
 286 1024 l 5xbc
 286 959 l 5
 295 959 l 5
 329 1010 378 1040 434 1040 c 4xdc
EndSplineSet
Layer: 2
SplineSet
384 980 m 4
 497.099786932 980 576 901.287286932 576 788 c 4
 576 674.712713068 497.099786932 596 384 596 c 4
 270.900213068 596 192 674.712713068 192 788 c 4
 192 901.287286932 270.900213068 980 384 980 c 4
EndSplineSet
Layer: 3
SplineSet
192 1024 m 5
 192 0 l 1029
  Spiro
    192 1024 {
    192 0 v
    0 0 z
  EndSpiro
192 0 m 5
 192 760 l 6
 192 787.714711887 192.512031429 815.691153786 199.014153359 842.632342798 c 4
 205.51627529 869.57353181 217.939956758 895.189749935 235.965433786 916.241767246 c 4
 253.990910815 937.293784557 277.303335918 953.63755532 302.899995799 964.263761507 c 4
 328.49665568 974.889967693 356.285288113 980.000000001 384 980 c 4
 411.714711887 980 439.503344321 974.889967691 465.100004202 964.263761504 c 4
 490.696664082 953.637555316 514.009089185 937.293784552 532.034566213 916.24176724 c 4
 550.060043242 895.18974993 562.483724709 869.573531806 568.98584664 842.632342795 c 4
 575.487968571 815.691153784 576 787.714711886 576 760 c 6
 576 0 l 1029
  Spiro
    192 0 {
    192 760 ]
    384 980 o
    576 760 [
    576 0 v
    0 0 z
  EndSpiro
EndSplineSet
Layer: 4
EndChar
StartChar: n
Encoding: 110 110 14
Width: 1024
VWidth: 0
Flags: W
HStem: 0 21G<256 414 738 896> 894 146<501.937 677.459> 1004 20G<256 414>
VStem: 256 158<0 831.984 922 1024> 738 158<0 831.984>
LayerCount: 5
Back
SplineSet
596 1040 m 4xd8
 696 1040 777 995 827 933 c 4
 896 847 896 751 896 657 c 6
 896 0 l 5
 738 0 l 5
 738 631 l 6
 738 718 738 779 699 832 c 4
 672 869 630 894 576 894 c 4xd8
 522 894 479 869 453 832 c 4
 415 778 414 718 414 631 c 6
 414 0 l 5
 256 0 l 5
 256 1024 l 5
 414 1024 l 5xb8
 414 922 l 5
 424 922 l 5
 466 992.984375 531 1040 596 1040 c 4xd8
EndSplineSet
Fore
SplineSet
626 1040 m 4xd8
 705.406086451 1040 781.280118835 992.773965608 828 933 c 4
 896 846 896 751 896 657 c 6
 896 0 l 5
 738 0 l 5
 738 631 l 6
 738 718 738 779 699 832 c 4
 672 869 630 894 576 894 c 4xd8
 522 894 479 869 453 832 c 4
 415 778 414 718 414 631 c 6
 414 0 l 5
 256 0 l 5
 256 1024 l 5
 414 1024 l 5xb8
 414 922 l 5
 424 922 l 5
 473.325581395 992.984375 539.662790698 1040 626 1040 c 4xd8
EndSplineSet
Validated: 1
Layer: 2
SplineSet
576 980 m 0
 726.799715909 980 832 875.049715909 832 724 c 0
 832 572.950284091 726.799715909 468 576 468 c 0
 425.200284091 468 320 572.950284091 320 724 c 0
 320 875.049715909 425.200284091 980 576 980 c 0
EndSplineSet
Layer: 3
SplineSet
832 0 m 1
 832 687 l 2
 832 723.931084581 831.315327639 761.212048046 822.636028962 797.108771891 c 0
 813.956730285 833.005495737 797.375202654 867.129546756 773.330569776 895.160969091 c 0
 749.285936896 923.192391424 718.199859157 944.939953425 684.080580569 959.074302967 c 0
 649.961301981 973.208652508 612.931084581 980.000000001 576 980 c 0
 539.068915419 980 502.038698018 973.208652506 467.91941943 959.074302963 c 0
 433.800140842 944.93995342 402.714063103 923.192391417 378.669430225 895.160969083 c 0
 354.624797347 867.12954675 338.043269716 833.005495731 329.363971039 797.108771887 c 0
 320.684672362 761.212048043 320 723.93108458 320 687 c 2
 320 0 l 1
 320 1024 l 1025
  Spiro
    832 0 {
    832 687 ]
    576 980 o
    320 687 [
    320 0 v
    320 1024 v
    0 0 z
  EndSpiro
EndSplineSet
Layer: 4
EndChar
StartChar: o
Encoding: 111 111 15
Width: 1024
VWidth: 0
Flags: W
HStem: -16 146<464.692 687.308> 894 146<464.692 687.308>
VStem: 224 158<225.135 798.865> 770 158<225.135 798.865>
LayerCount: 5
Back
SplineSet
576 1066 m 0
 587.221679688 1066 598.575195312 1065.58300781 610.026367188 1064.68554688 c 0
 677.787109375 1059.37597656 745.357421875 1036.08691406 801.025390625 993.397460938 c 0
 856.201171875 951.084960938 893.522460938 895.491210938 916.694335938 837.712890625 c 0
 939.676757812 780.40234375 948.815429688 722.586914062 953.290039062 668.389648438 c 0
 957.732421875 614.579101562 958 562.346679688 958 512 c 0
 958 461.654296875 957.732421875 409.418945312 953.291015625 355.611328125 c 0
 948.815429688 301.412109375 939.676757812 243.59765625 916.694335938 186.288085938 c 0
 893.522460938 128.5078125 856.203125 72.916015625 801.024414062 30.6025390625 c 0
 745.352539062 -12.0908203125 677.80078125 -35.375 610.021484375 -40.685546875 c 0
 598.583007812 -41.5830078125 587.217773438 -42 576 -42 c 0
 564.778320312 -42 553.424804688 -41.5830078125 541.973632812 -40.685546875 c 0
 474.212890625 -35.3759765625 406.642578125 -12.0869140625 350.974609375 30.6025390625 c 0
 295.798828125 72.9150390625 258.477539062 128.508789062 235.305664062 186.287109375 c 0
 212.323242188 243.59765625 203.184570312 301.413085938 198.709960938 355.610351562 c 0
 194.267578125 409.420898438 194 461.653320312 194 512 c 0
 194 562.345703125 194.267578125 614.581054688 198.708984375 668.388671875 c 0
 203.184570312 722.587890625 212.323242188 780.40234375 235.305664062 837.711914062 c 0
 258.477539062 895.4921875 295.796875 951.083984375 350.975585938 993.397460938 c 0
 406.647460938 1036.09082031 474.19921875 1059.375 541.978515625 1064.68554688 c 0
 553.416992188 1065.58300781 564.782226562 1066 576 1066 c 0
576 894 m 0
 569.868164062 894 563.879882812 893.772460938 558.021484375 893.313476562 c 0
 526.095703125 890.811523438 495.432617188 879.74609375 471.743164062 861.579101562 c 0
 447.55859375 843.033203125 425.856445312 813.512695312 411.801757812 778.467773438 c 0
 397.559570312 742.952148438 389.930664062 700.905273438 386.17578125 655.434570312 c 0
 382.388671875 609.568359375 382 561.665039062 382 512 c 0
 382 462.3359375 382.388671875 414.4296875 386.174804688 368.567382812 c 0
 389.930664062 323.092773438 397.559570312 281.046875 411.801757812 245.533203125 c 0
 425.856445312 210.485351562 447.556640625 180.967773438 471.744140625 162.419921875 c 0
 495.4375 144.25 526.08203125 133.189453125 558.026367188 130.686523438 c 0
 563.872070312 130.227539062 569.872070312 130 576 130 c 0
 582.131835938 130 588.120117188 130.227539062 593.978515625 130.686523438 c 0
 625.904296875 133.188476562 656.567382812 144.25390625 680.256835938 162.420898438 c 0
 704.44140625 180.966796875 726.143554688 210.487304688 740.198242188 245.532226562 c 0
 754.440429688 281.047851562 762.069335938 323.094726562 765.82421875 368.565429688 c 0
 769.611328125 414.431640625 770 462.334960938 770 512 c 0
 770 561.6640625 769.611328125 609.5703125 765.825195312 655.432617188 c 0
 762.069335938 700.907226562 754.440429688 742.953125 740.198242188 778.466796875 c 0
 726.143554688 813.514648438 704.443359375 843.032226562 680.255859375 861.580078125 c 0
 656.5625 879.75 625.91796875 890.810546875 593.973632812 893.313476562 c 0
 588.127929688 893.772460938 582.127929688 894 576 894 c 0
EndSplineSet
Fore
SplineSet
576 1040 m 4
 703 1040 802 978 863 880 c 4
 919 788 928 662 928 512 c 4
 928 362 919 236 863 144 c 4
 802 46 703 -16 576 -16 c 4
 449 -16 350 46 289 144 c 4
 233 236 224 362 224 512 c 4
 224 662 233 788 289 880 c 4
 350 978 449 1040 576 1040 c 4
576 894 m 4
 503 894 454 859 424 805 c 4
 383 732 382 623.137931034 382 512 c 4
 382 400.862304688 383 292 424 219 c 4
 454 165 503 130 576 130 c 4
 649 130 698 165 728 219 c 4
 769 292 770 400.862304688 770 512 c 4
 770 623.137931034 769 732 728 805 c 4
 698 859 649 894 576 894 c 4
EndSplineSet
Layer: 2
SplineSet
576 620 m 4
 745.649680398 620 864 501.930930398 864 332 c 4
 864 162.069069602 745.649680398 44 576 44 c 4
 406.350319602 44 288 162.069069602 288 332 c 4
 288 501.930930398 406.350319602 620 576 620 c 4
  Spiro
    576 620 o
    725.939 583.167 o
    827.105 482.063 o
    864 332 o
    827.105 181.937 o
    725.939 80.8329 o
    576 44 o
    426.061 80.8329 o
    324.895 181.937 o
    288 332 o
    324.895 482.063 o
    426.061 583.167 o
    0 0 z
  EndSpiro
576 980 m 4
 745.649680398 980 864 861.930930398 864 692 c 4
 864 522.069069602 745.649680398 404 576 404 c 4
 406.350319602 404 288 522.069069602 288 692 c 4
 288 861.930930398 406.350319602 980 576 980 c 4
  Spiro
    576 980 o
    725.939 943.167 o
    827.105 842.063 o
    864 692 o
    827.105 541.937 o
    725.939 440.833 o
    576 404 o
    426.061 440.833 o
    324.895 541.937 o
    288 692 o
    324.895 842.063 o
    426.061 943.167 o
    0 0 z
  EndSpiro
EndSplineSet
Layer: 3
SplineSet
576 980 m 4
 567.324724123 980 558.648756819 979.677803086 550 979 c 4
 500.14705605 975.093024703 451.039999149 957.918629526 411.358993265 927.488410196 c 4
 371.677987381 897.058190866 342.166566355 854.502829358 323.553962577 808.089992158 c 4
 304.941358799 761.677154957 296.557710164 711.747219037 292.442706941 661.91101508 c 4
 288.327703719 612.074811123 288 562.005804427 288 512 c 5
 288 461.994195573 288.327703721 411.925188876 292.442706944 362.088984919 c 4
 296.557710167 312.252780961 304.941358804 262.322845041 323.553962582 215.91000784 c 4
 342.16656636 169.497170641 371.677987385 126.941809133 411.358993268 96.5115898039 c 4
 451.039999151 66.0813704744 500.147056051 48.9069752969 550 45 c 4
 558.648756819 44.3221969143 567.324724123 44 576 44 c 4
 584.675275877 44 593.351243181 44.3221969143 602 45 c 4
 651.85294395 48.9069752967 700.960000851 66.0813704743 740.641006735 96.5115898041 c 4
 780.322012619 126.941809134 809.833433645 169.497170642 828.446037423 215.910007842 c 4
 847.058641201 262.322845043 855.442289836 312.252780963 859.557293059 362.08898492 c 4
 863.672296281 411.925188877 864 461.994195573 864 512 c 5
 864 562.005804427 863.672296279 612.074811124 859.557293056 661.911015081 c 4
 855.442289833 711.747219039 847.058641196 761.677154959 828.446037418 808.08999216 c 4
 809.83343364 854.502829359 780.322012615 897.058190867 740.641006732 927.488410196 c 4
 700.960000849 957.918629526 651.852943949 975.093024703 602 979 c 4
 593.351243181 979.677803086 584.675275877 980 576 980 c 4
  Spiro
    576 980 o
    550 979 o
    288 512 o
    550 45 o
    576 44 o
    602 45 o
    864 512 o
    602 979 o
    0 0 z
  EndSpiro
EndSplineSet
Layer: 4
EndChar
StartChar: p
Encoding: 112 112 16
Width: 1024
VWidth: 0
Flags: W
HStem: -16 146<506.917 686.469> 894 146<506.917 686.469> 1004 20G<256 414>
VStem: 256 158<-384 115 228.169 795.831 909 1024> 770 158<228.802 795.198>
LayerCount: 5
Back
Fore
SplineSet
414 909 m 5xb8
 424 909 l 5
 480.702148438 996.765625 541.510742188 1040 642 1040 c 4xd8
 744.354492188 1040 853.70703125 951.798828125 900 803 c 4
 928 713 928 624 928 512 c 4
 928 400 928 311 900 221 c 4
 853.70703125 72.201171875 744.354492188 -16 642 -16 c 4
 541.510742188 -16 480.702148438 27.234375 424 115 c 5
 414 115 l 5
 414 -384 l 5
 256 -384 l 5
 256 1024 l 5
 414 1024 l 5
 414 909 l 5xb8
770 512 m 4
 770 598 769 681 748 752 c 4
 726 826 674 894 592 894 c 4
 510 894 458 826 436 752 c 4
 415 681 414 598 414 512 c 4
 414 426 415 343 436 272 c 4
 458 198 510 130 592 130 c 4
 674 130 726 198 748 272 c 4
 769 343 770 426 770 512 c 4
EndSplineSet
Layer: 2
Layer: 3
Layer: 4
EndChar
StartChar: q
Encoding: 113 113 17
Width: 1024
VWidth: 0
Flags: W
HStem: -16 146<465.531 645.083> 894 146<465.531 645.083> 1004 20G<738 896>
VStem: 224 158<228.802 795.198> 738 158<-384 115 228.169 795.831 909 1024>
LayerCount: 5
Back
Fore
SplineSet
738 909 m 5xd8
 738 1024 l 5
 896 1024 l 5xb8
 896 -384 l 5
 738 -384 l 5
 738 115 l 5
 728 115 l 5
 671.297851562 27.234375 610.489257812 -16 510 -16 c 4
 407.645507812 -16 298.29296875 72.201171875 252 221 c 4
 224 311 224 400 224 512 c 4
 224 624 224 713 252 803 c 4
 298.29296875 951.798828125 407.645507812 1040 510 1040 c 4
 610.489257812 1040 671.297851562 996.765625 728 909 c 5
 738 909 l 5xd8
382 512 m 4
 382 426 383 343 404 272 c 4
 426 198 478 130 560 130 c 4
 642 130 694 198 716 272 c 4
 737 343 738 426 738 512 c 4
 738 598 737 681 716 752 c 4
 694 826 642 894 560 894 c 4xd8
 478 894 426 826 404 752 c 4
 383 681 382 598 382 512 c 4
EndSplineSet
Layer: 2
Layer: 3
Layer: 4
EndChar
StartChar: s
Encoding: 115 115 19
Width: 1024
VWidth: 0
Flags: W
HStem: -16 146<260.105 703.539> 894 146<438.243 881.877>
VStem: 234 158<673.105 848.95> 770 158<193.354 422.643>
LayerCount: 5
Back
Fore
SplineSet
572 1040 m 0
 690 1040 799 1023 886 1009 c 1
 886 863 l 1
 798 876 674 894 572 894 c 0
 429.846153846 894 392 816.823529412 392 766 c 0
 392 709.476635514 422.100187364 670.968722954 456 654 c 0
 517.209552614 623.361248347 658.252496117 646.339183039 770 585 c 0
 859.502890173 535.871080139 928 434.665505226 928 303 c 0
 928 143.973293769 809.906914894 -16 567 -16 c 0
 463 -16 345 -4 256 6 c 1
 256 152 l 1
 341 142 471 130 567 130 c 0
 731.821100917 130 770 233.256544503 770 303 c 0
 770 383.389937107 728.975119469 438.239001139 692 457 c 0
 611.039914483 498.078760365 489.097269799 476.416951853 396 518 c 0
 312.750344192 555.184489439 234 639.448559671 234 766 c 0
 234 898.141843972 345.07082153 1040 572 1040 c 0
EndSplineSet
Validated: 1
Layer: 2
Layer: 3
Layer: 4
EndChar
StartChar: t
Encoding: 116 116 20
Width: 1024
VWidth: 0
Flags: W
HStem: -16 146<599.915 893.392> 872 152<128 384 542 896>
VStem: 384 158<189.365 872 1024 1280>
LayerCount: 5
Back
SplineSet
896 -1 m 1
 836 -9 769 -16 694 -16 c 0
 588 -16 504 29 452 92 c 0
 384 174 384 271 384 360 c 2
 384 898 l 1
 128 898 l 1
 128 1024 l 1
 384 1024 l 1
 384 1280 l 1
 542 1280 l 1
 542 1024 l 1
 896 1024 l 1
 896 898 l 1
 542 898 l 1
 542 396 l 6
 542 310 512 244 555 192 c 4
 587 154 637 130 704 130 c 4
 772 130 841 138 896 145 c 5
 896 -1 l 1
EndSplineSet
Fore
SplineSet
896 -1 m 5
 836 -9 769 -16 694 -16 c 4
 588 -16 504 29 452 92 c 4
 384 174 384 271 384 360 c 6
 384 872 l 5
 128 872 l 5
 128 1024 l 5
 384 1024 l 5
 384 1280 l 5
 542 1280 l 5
 542 1024 l 5
 896 1024 l 5
 896 872 l 5
 542 872 l 5
 542 370 l 6
 542 293 542 233 582 186 c 4
 611 151 657 130 719 130 c 4
 782 130 845 138 896 144 c 5
 896 -1 l 5
EndSplineSet
Validated: 1
Layer: 2
Layer: 3
Layer: 4
EndChar
StartChar: u
Encoding: 117 117 21
Width: 1024
VWidth: 0
Flags: W
HStem: -16 146<474.541 650.058> 0 21G<738 896> 1004 20G<256 414 738 896>
VStem: 256 158<192.016 1024> 738 158<0 102 192.016 1024>
LayerCount: 5
Back
Fore
SplineSet
526 -16 m 4xb8
 446.593913549 -16 370.719881165 31.2260343919 324 91 c 4
 256 178 256 273 256 367 c 6
 256 1024 l 5
 414 1024 l 5
 414 393 l 6
 414 306 414.211322694 245.154854086 453 192 c 4
 480 155 522 130 576 130 c 4xb8
 630 130 672.97522352 155.017422897 699 192 c 4
 737 246 738 306 738 393 c 6
 738 1024 l 5
 896 1024 l 5
 896 0 l 5
 738 0 l 5x78
 738 102 l 5
 728 102 l 5
 678.674418605 31.015625 612.337209302 -16 526 -16 c 4xb8
EndSplineSet
Validated: 1
Layer: 2
Layer: 3
Layer: 4
EndChar
StartChar: v
Encoding: 118 118 1
Width: 1024
VWidth: 0
Flags: W
HStem: 0 21G<438.5 713.5> 1004 20G<204 389.441 762.559 948>
VStem: 204 161<844.09 1024> 787 161<844.09 1024>
LayerCount: 5
Back
Fore
SplineSet
581 228 m 5
 678.762711864 481.864485981 738.118644068 750.607476636 787 1024 c 5
 948 1024 l 5
 881 675 793 325 634 0 c 5
 518 0 l 5
 359 325 271 675 204 1024 c 5
 365 1024 l 5
 413.881355932 750.607476636 474.110169492 480.004672897 571 228 c 5
 581 228 l 5
EndSplineSet
Validated: 1
Layer: 2
Layer: 3
Layer: 4
EndChar
StartChar: w
Encoding: 119 119 22
Width: 1024
VWidth: 0
Flags: W
HStem: 0 21G<208.5 437.275 714.725 943.5> 1004 20G<109 267 885 1043>
VStem: 109 158<578.138 1024> 885 158<578.138 1024>
LayerCount: 5
Back
Fore
SplineSet
514 767 m 1
 638 767 l 1
 802 230 l 1
 812 230 l 1
 862.32038835 475.205882353 885 748.255656109 885 1024 c 1
 1043 1024 l 1
 1043 680 993 339 894 0 c 1
 720 0 l 5
 581 527 l 1
 571 527 l 1
 432 0 l 1
 258 0 l 1
 159 339 109 680 109 1024 c 1
 267 1024 l 1
 267 748.255656109 289.67961165 475.205882353 340 230 c 1
 350 230 l 1
 514 767 l 1
EndSplineSet
Validated: 1
Layer: 2
SplineSet
1074 1124 m 5
 832 14 l 5
 576 1009 l 5
 320 14 l 5
 78 1124 l 1029
EndSplineSet
Layer: 3
Layer: 4
Substitution2: "'ss01' Style Set 1 lookup 8-1" w.alt
EndChar
StartChar: x
Encoding: 120 120 23
Width: 1024
VWidth: 0
Flags: W
HStem: 0 21G<159 357.718 794.282 993> 1004 20G<181 389.029 762.971 971>
LayerCount: 5
Back
SplineSet
571 644 m 5
 581 644 l 5
 804 1024 l 5
 971 1024 l 5
 650 551 l 5
 650 541 l 5
 993 0 l 5
 825 0 l 5
 581 448 l 5
 571 448 l 5
 327 0 l 5
 159 0 l 5
 502 541 l 5
 502 551 l 5
 181 1024 l 5
 348 1024 l 5
 571 644 l 5
EndSplineSet
Fore
SplineSet
571 674 m 1
 581 674 l 1
 774 1024 l 1
 971 1024 l 1
 670 551 l 1
 670 541 l 1
 993 0 l 1
 805 0 l 5
 581 418 l 1
 571 418 l 1
 347 0 l 1
 159 0 l 1
 482 541 l 1
 482 551 l 1
 181 1024 l 1
 378 1024 l 1
 571 674 l 1
EndSplineSet
Validated: 1
Layer: 2
SplineSet
1152 -144 m 5
 128 1196 l 1029
128 -144 m 5
 1152 1196 l 1029
EndSplineSet
Layer: 3
Layer: 4
EndChar
StartChar: y
Encoding: 121 121 24
Width: 1024
VWidth: 0
Flags: W
HStem: -400 146<256 443.044> 1004 20G<204 391.5 762 948>
VStem: 204 161<848.323 1024>
LayerCount: 5
Back
SplineSet
608 115 m 1
 696 414 759 717 817 1024 c 1
 948 1024 l 1
 878 655 812 351 677 -73 c 0
 644 -177 608 -271 547 -321 c 0
 492 -367 411 -400 256 -400 c 1
 256 -254 l 5
 338 -254 418 -240 453 -213 c 4
 500 -180.916317992 520 -124.769874477 568 0 c 1
 517 0 l 1
 360 326 273 676 204 1024 c 1
 335 1024 l 1
 395 711 472 400 598 115 c 1
 608 115 l 1
EndSplineSet
Fore
SplineSet
608 185 m 5
 683 461 737 741 787 1024 c 5
 948 1024 l 5
 878 655 812 351 677 -73 c 4
 644 -177 608 -271 547 -321 c 4
 492 -367 411 -400 256 -400 c 5
 256 -254 l 5
 333 -254 408 -241 441 -217 c 4
 485 -184 504 -127 549 0 c 5
 517 0 l 5
 360 326 273 676 204 1024 c 5
 365 1024 l 5
 418 735 486 448 598 185 c 5
 608 185 l 5
EndSplineSet
Validated: 1
Layer: 2
SplineSet
208 1348 m 5
 263 1058 l 6
 335.838882593 673.940437239 433.140582261 290.499180766 616 -55 c 5
 736.339381417 307.890715375 817.760271347 682.372339827 889 1058 c 6
 944 1348 l 1029
  Spiro
    208 1348 {
    263 1058 ]
    616 -55 v
    889 1058 [
    944 1348 o
    0 0 z
  EndSpiro
EndSplineSet
Layer: 3
SplineSet
208 1348 m 1
 263 1058 l 2
 334.814703274 679.340655462 426.73622927 301.651207423 591 -47 c 1
 94 -320 l 1
 146.874338255 -333.443284472 201.453564664 -339.999653393 256.012087682 -340.000000077 c 0
 310.192249183 -340.000000077 364.760412467 -335.370425884 417 -321 c 0
 444.486920469 -313.43870842 471.255278197 -302.186668012 494 -285 c 0
 520.510949537 -264.967445093 540.492424169 -237.387902158 556 -208 c 0
 581.59288196 -159.499762491 598.857946845 -107.090485302 616 -55 c 0
 735.489430136 308.099002669 821.533801453 681.746200409 889 1058 c 2
 941 1348 l 1025
  Spiro
    208 1348 {
    263 1058 ]
    591 -47 v
    94 -320 v
    256 -340 o
    417 -321 o
    494 -285 o
    556 -208 o
    616 -55 o
    889 1058 [
    941 1348 o
    0 0 z
  EndSpiro
EndSplineSet
Layer: 4
EndChar
StartChar: z
Encoding: 122 122 25
Width: 1024
VWidth: 0
Flags: W
HStem: 0 146<431 896> 878 146<276 701>
LayerCount: 5
Back
Fore
SplineSet
276 878 m 1
 276 1024 l 1
 876 1024 l 1
 876 908 l 1
 431 156 l 1
 431 146 l 1
 896 146 l 1
 896 0 l 1
 256 0 l 1
 256 118 l 1
 701 868 l 5
 701 878 l 5
 276 878 l 1
EndSplineSet
Validated: 1
Layer: 2
Layer: 3
Layer: 4
EndChar
StartChar: braceleft
Encoding: 123 123 91
Width: 1024
VWidth: 0
Flags: W
HStem: -144 146<738.125 896> 630 146<256 431.889> 1404 146<738.125 896>
VStem: 512 158<61.3656 560.279 845.721 1344.63>
CounterMasks: 1 e0
LayerCount: 5
Back
SplineSet
481 698 m 1
 540 674 591 637 615 585 c 0
 640 531 640 484 640 416 c 2
 640 203 l 2
 640 145 640 112 654 83 c 0
 689 10 798 -24 896 -24 c 1
 896 -144 l 1
 744 -144 592 -84 537 34 c 0
 512 88 512 135 512 203 c 2
 512 416 l 2
 512 474 512 507 498 536 c 0
 463 609 354 643 256 643 c 1
 256 776 l 5
 354 776 463 805.869158879 498 870 c 0
 512 899 512 932 512 990 c 2
 512 1203 l 2
 512 1271 512 1318 537 1372 c 0
 592 1490 744 1550 896 1550 c 1
 896 1404 l 1
 798 1404 689 1370 654 1297 c 0
 670 1268 670 1235 670 1177 c 2
 670 990 l 2
 670 922 670 875 615 821 c 0
 591 769 540 732 481 708 c 1
 481 698 l 1
EndSplineSet
Fore
SplineSet
530 708 m 5
 530 698 l 5
 582 674 627 637 648 585 c 4
 670 531 670 487 670 416 c 6
 670 202 l 6
 670 151 671 122 683 96 c 4
 714 32 810 2 896 2 c 5
 896 -144 l 5
 744 -144 592 -84 537 34 c 4
 512 88 512 135 512 203 c 6
 512 416 l 6
 512 471 512 502 498 529 c 4
 463 598 354 630 256 630 c 5
 256 776 l 5
 354 776 463 808 498 877 c 4
 512 904 512 935 512 990 c 6
 512 1203 l 6
 512 1271 512 1318 537 1372 c 4
 592 1490 744 1550 896 1550 c 5
 896 1404 l 5
 810 1404 714 1374 683 1310 c 4
 671 1284 670 1255 670 1204 c 6
 670 990 l 6
 670 919 670 875 648 821 c 4
 627 769 582 732 530 708 c 5
EndSplineSet
Validated: 1
Layer: 2
SplineSet
256 703 m 5
 333.445417677 702.89678855 412.590410469 686.465515421 478 645 c 4
 510.941316011 624.117302879 539.571697007 595.426230467 556.378441743 560.230340495 c 4
 564.781814111 542.632395509 570.189315691 523.668689539 573.000642208 504.371001125 c 4
 575.811968726 485.073312712 576 465.501393153 576 446 c 6
 576 61 l 6
 576 41.4986068473 576.188031274 21.9266872881 578.999357792 2.62899887457 c 4
 581.810684309 -16.668689539 587.218185889 -35.632395509 595.621558257 -53.2303404953 c 4
 612.428302993 -88.4262304676 641.058683989 -117.117302879 674 -138 c 4
 739.409589531 -179.465515421 818.554582323 -195.89678855 896 -196 c 5
 -284 -340 l 5
 256 703 l 5
  Spiro
    256 703 v
    478 645 o
    576 446 [
    576 61 ]
    674 -138 o
    896 -196 v
    -284 -340 v
    0 0 z
  EndSpiro
EndSplineSet
Layer: 3
Layer: 4
EndChar
StartChar: bar
Encoding: 124 124 92
Width: 1024
VWidth: 0
Flags: W
VStem: 497 158<-128 1536>
LayerCount: 5
Back
Fore
SplineSet
655 1536 m 5
 655 -128 l 5
 497 -128 l 1
 497 1536 l 1
 655 1536 l 5
EndSplineSet
Validated: 1
Layer: 2
Layer: 3
Layer: 4
EndChar
StartChar: braceright
Encoding: 125 125 93
Width: 1024
VWidth: 0
Flags: W
HStem: -144 146<256 413.875> 630 146<720.111 896> 1404 146<256 413.875>
VStem: 482 158<61.3656 560.279 845.721 1344.63>
CounterMasks: 1 e0
LayerCount: 5
Back
Fore
SplineSet
622 708 m 5
 570 732 525 769 504 821 c 4
 482 875 482 919 482 990 c 6
 482 1204 l 6
 482 1255 481 1284 469 1310 c 4
 438 1374 342 1404 256 1404 c 5
 256 1550 l 5
 408 1550 560 1490 615 1372 c 4
 640 1318 640 1271 640 1203 c 6
 640 990 l 6
 640 935 640 904 654 877 c 4
 689 808 798 776 896 776 c 5
 896 630 l 5
 798 630 689 598 654 529 c 4
 640 502 640 471 640 416 c 6
 640 203 l 6
 640 135 640 88 615 34 c 4
 560 -84 408 -144 256 -144 c 5
 256 2 l 5
 342 2 438 32 469 96 c 4
 481 122 482 151 482 202 c 6
 482 416 l 6
 482 487 482 531 504 585 c 4
 525 637 570 674 622 698 c 5
 622 708 l 5
EndSplineSet
Validated: 1
Layer: 2
Layer: 3
Layer: 4
EndChar
StartChar: tilde
Encoding: 126 126 94
Width: 1024
VWidth: 0
Flags: W
HStem: 508 120<691.74 862.672> 780 120<289.328 460.26>
VStem: 128 128<512 746.172> 896 128<661.828 896>
LayerCount: 5
Back
Fore
SplineSet
256 512 m 1
 128 512 l 1
 128 731 165 900 375 900 c 0
 602 900 636 628 777 628 c 0
 890 628 896 724 896 896 c 1
 1024 896 l 1
 1024 677 987 508 777 508 c 0
 550 508 516 780 375 780 c 0
 262 780 256 684 256 512 c 1
EndSplineSet
Layer: 2
Layer: 3
Layer: 4
EndChar
StartChar: exclamdown
Encoding: 161 161 100
Width: 1024
VWidth: 0
Flags: W
HStem: 752 288<474.535 677.465>
VStem: 432 288<794.535 997.465> 502 148<-384 512>
LayerCount: 5
Back
Fore
SplineSet
576 1040 m 4xc0
 661 1040 720 981 720 896 c 4
 720 811 661 752 576 752 c 4
 491 752 432 811 432 896 c 4
 432 981 491 1040 576 1040 c 4xc0
640 512 m 1
 650 -384 l 1
 502 -384 l 1xa0
 512 512 l 1
 640 512 l 1
EndSplineSet
Validated: 1
Layer: 2
Layer: 3
Layer: 4
EndChar
StartChar: currency
Encoding: 164 164 541
Width: 1024
VWidth: 0
Flags: W
HStem: 244 120<447.332 704.668> 788 120<447.332 704.668>
VStem: 240 128<443.107 708.893> 784 128<443.107 708.893>
LayerCount: 5
Back
SplineSet
576 848 m 4
 736.22479248 848 848 736.49041748 848 576 c 4
 848 415.50958252 736.22479248 304 576 304 c 4
 415.77520752 304 304 415.50958252 304 576 c 4
 304 736.49041748 415.77520752 848 576 848 c 4
EndSplineSet
Fore
SplineSet
576 788 m 4
 453 788 368 708 368 576 c 4
 368 444 453 364 576 364 c 4
 699 364 784 444 784 576 c 4
 784 708 699 788 576 788 c 4
297 768 m 5
 152 912 l 5
 246 994 l 5
 385 854 l 5
 438 888 503 908 576 908 c 4
 649 908 714 888 767 854 c 5
 906 994 l 5
 1000 912 l 5
 855 768 l 5
 892 714 912 649 912 576 c 4
 912 503 892 438 855 384 c 5
 1000 240 l 5
 906 158 l 5
 767 298 l 5
 714 264 649 244 576 244 c 4
 503 244 438 264 385 298 c 5
 246 158 l 5
 152 240 l 5
 297 384 l 5
 260 438 240 503 240 576 c 4
 240 649 260 714 297 768 c 5
EndSplineSet
Validated: 1
Layer: 2
SplineSet
576 788 m 4
 452.818359375 788 368 708.139648438 368 576 c 4
 368 443.866210938 452.803710938 364 576 364 c 4
 699.181640625 364 784 443.859375 784 576 c 4
 784 708.133789062 699.197265625 788 576 788 c 4
576 908 m 4
 773.251953125 908 912 764.84765625 912 576 c 4
 912 387.159179688 773.267578125 244 576 244 c 4
 378.747070312 244 240 387.15234375 240 576 c 4
 240 764.840820312 378.732421875 908 576 908 c 4
EndSplineSet
Layer: 3
Layer: 4
EndChar
StartChar: guillemotleft
Encoding: 171 171 313
Width: 1024
VWidth: 0
Flags: W
HStem: 1019 20G<434.035 479.588 818.035 863.588>
DStem2: 128 610 253 581 0.599104 0.800671<51.6685 535.8> 253 571 128 542 0.599104 -0.800671<0 484.132> 512 610 637 581 0.599104 0.800671<51.6685 535.8> 637 571 512 542 0.599104 -0.800671<0 484.132>
LayerCount: 5
Back
Fore
SplineSet
253 581 m 1
 253 571 l 1
 553 181 l 1
 449 113 l 1
 128 542 l 1
 128 610 l 1
 449 1039 l 1
 553 971 l 1
 253 581 l 1
637 581 m 5
 637 571 l 5
 937 181 l 5
 833 113 l 5
 512 542 l 5
 512 610 l 5
 833 1039 l 5
 937 971 l 5
 637 581 l 5
EndSplineSet
Validated: 1
Layer: 2
Layer: 3
Layer: 4
EndChar
StartChar: uni00B3
Encoding: 179 179 521
Width: 1024
VWidth: 0
Flags: W
HStem: 752 120<289.05 623.077> 1092 120<384 614.029> 1432 120<292.303 613.854>
VStem: 652 128<904.814 1060.26 1249.27 1394.78>
CounterMasks: 1 e0
LayerCount: 5
Back
Fore
SplineSet
674 1150 m 1
 749 1111 780 1048 780 983 c 0
 780 836 652 752 508 752 c 0
 415 752 333 775 256 795 c 1
 256 920 l 1
 332 900 431 872 508 872 c 0
 586 872 652 907 652 983 c 0
 652 1041 607 1077 554 1087 c 0
 528 1092 497 1092 462 1092 c 2
 384 1092 l 1
 384 1212 l 1
 462 1212 l 2
 496 1212 525 1213 550 1218 c 0
 602 1229 643 1264 643 1322 c 0
 643 1395 583 1432 506 1432 c 0
 433 1432 343 1406 276 1389 c 1
 276 1513 l 1
 346 1531 421 1552 506 1552 c 0
 658 1552 771 1460 771 1322 c 0
 771 1261 746 1201 674 1160 c 1
 674 1150 l 1
EndSplineSet
Validated: 1
Layer: 2
Layer: 3
Layer: 4
EndChar
StartChar: uni00B9
Encoding: 185 185 519
Width: 1024
VWidth: 0
Flags: W
VStem: 512 128<768 1378>
DStem2: 256 1380 256 1246 0.870563 0.492057<0 213.174>
LayerCount: 5
Back
Fore
SplineSet
532 1536 m 5
 640 1536 l 5
 640 768 l 5
 512 768 l 5
 512 1378 l 5
 502 1378 l 5
 256 1246 l 5
 256 1380 l 5
 532 1536 l 5
EndSplineSet
Validated: 1
Layer: 2
Layer: 3
Layer: 4
EndChar
StartChar: Aacute
Encoding: 193 193 102
Width: 1024
VWidth: 0
Flags: W
HStem: 0 21G<105 246 906 1047> 384 120<348 804> 1005 147<549.152 602.848>
VStem: 105 130<0 194.397> 917 130<0 194.346>
LayerCount: 5
Back
Fore
SplineSet
522 1152 m 1
 630 1152 l 1
 851 828 969 478 1047 0 c 1
 917 0 l 1
 895 139 869 266 838 384 c 1
 314 384 l 1
 283 266 257 139 235 0 c 1
 105 0 l 1
 183 478 301 829 522 1152 c 1
348 504 m 1
 804 504 l 1
 748 686 676 848 581 1005 c 1
 571 1005 l 1
 476 849 404 686 348 504 c 1
488 1280 m 5
 654 1536 l 5
 792 1536 l 5
 626 1280 l 5
 488 1280 l 5
EndSplineSet
Validated: 1
Layer: 2
Layer: 3
Layer: 4
EndChar
StartChar: Aring
Encoding: 197 197 104
Width: 1024
VWidth: 0
Flags: W
HStem: 0 21G<105 246 906 1047> 384 120<348 804> 1424 100<486.332 665.668>
VStem: 105 130<0 201.245> 348 108<1197.53 1395.19> 696 108<1197.52 1395.19> 917 130<0 201.219>
LayerCount: 5
Back
Fore
SplineSet
576 1524 m 4
 711 1524 804 1423 804 1296 c 0
 804 1202.2452341 753.316817166 1122.6599255 672.46875 1087.41796875 c 1
 866.416121482 780.480069886 974.152855269 446.012088917 1047 0 c 1
 917 0 l 1
 895 139 869 266 838 384 c 1
 314 384 l 1
 283 266 257 139 235 0 c 1
 105 0 l 1
 177.836384693 445.946223761 285.552052325 781.252466305 479.4453125 1087.45507812 c 1
 398.647268667 1122.71602159 348 1202.27828971 348 1296 c 0
 348 1423 441 1524 576 1524 c 4
576 1424 m 0
 506 1424 456 1379 456 1296 c 0
 456 1213 506 1168 576 1168 c 0
 646 1168 696 1213 696 1296 c 0
 696 1379 646 1424 576 1424 c 0
348 504 m 1
 804 504 l 1
 748 686 676 848 581 1005 c 1
 571 1005 l 1
 476 849 404 686 348 504 c 1
EndSplineSet
Validated: 1
Layer: 2
Layer: 3
Layer: 4
EndChar
StartChar: Ntilde
Encoding: 209 209 116
Width: 1024
VWidth: 0
Flags: W
HStem: 0 21G<128 256 882.624 1024> 1284 120<631.752 755.472> 1412 120<396.554 520.248>
VStem: 128 128<0 942> 253 128<1305 1400.2> 771 128<1411.8 1511> 896 128<210 1152>
DStem2: 255 1152 266 942 0.556531 -0.830827<180.596 1133.81>
LayerCount: 5
Back
Fore
SplineSet
448 1412 m 0xec
 397 1412 384 1353 381 1299 c 1
 253 1305 l 1
 257 1423 319 1532 448 1532 c 0
 594 1532 627 1404 704 1404 c 0
 755 1404 768 1463 771 1517 c 1
 899 1511 l 1
 896 1395 833 1284 704 1284 c 0
 558 1284 525 1412 448 1412 c 0xec
256 0 m 1xf2
 128 0 l 1
 128 1152 l 1
 255 1152 l 1
 886 210 l 1
 896 210 l 1
 896 1152 l 1
 1024 1152 l 1
 1024 0 l 1
 896 0 l 1
 266 942 l 1
 256 942 l 1
 256 0 l 1xf2
EndSplineSet
Validated: 1
Layer: 2
Layer: 3
Layer: 4
EndChar
StartChar: multiply
Encoding: 215 215 122
Width: 1024
VWidth: 0
Flags: W
DStem2: 246 1122 152 1040 0.707107 -0.707107<0 378.302 577.706 1057.83> 152 368 246 286 0.707107 0.707107<8.48528 386.787 586.192 1066.32>
LayerCount: 5
Back
Fore
SplineSet
725 640 m 5
 1000 368 l 5
 906 286 l 5
 640 555 l 5
 581 640 l 5
 571 640 l 5
 512 555 l 5
 246 286 l 5
 152 368 l 5
 427 640 l 5
 512 699 l 5
 512 709 l 5
 427 768 l 5
 152 1040 l 5
 246 1122 l 5
 512 853 l 5
 571 768 l 5
 581 768 l 5
 640 853 l 5
 906 1122 l 5
 1000 1040 l 5
 725 768 l 5
 640 709 l 5
 640 699 l 5
 725 640 l 5
EndSplineSet
Validated: 1
Layer: 2
Layer: 3
Layer: 4
EndChar
StartChar: Oslash
Encoding: 216 216 123
Width: 1024
VWidth: 0
Flags: W
HStem: -16 120<427.479 721.252> 1304 120<430.748 724.521>
VStem: 112 128<333.412 1073.37> 912 128<334.632 1074.59>
DStem2: 115 26 201 -26 0.510539 0.859855<0 148.916 334.94 1301.74 1487.76 1636.68>
LayerCount: 5
Back
Fore
SplineSet
344 215 m 1
 398 148 475 104 576 104 c 0
 748 104 851 230 887 382 c 0
 911 485 912 592 912 704 c 0
 912 841 909 987 866 1094 c 1
 344 215 l 1
201 -26 m 1
 115 26 l 1
 210 186 l 1
 178 237 154 294 140 355 c 0
 112 473 112 592 112 704 c 0
 112 816 112 935 140 1053 c 0
 188 1256 338 1424 576 1424 c 0
 700 1424 801 1378 875 1305 c 1
 951 1434 l 1
 1037 1382 l 1
 942 1222 l 1
 974 1171 998 1114 1012 1053 c 0
 1040 935 1040 816 1040 704 c 0
 1040 592 1040 473 1012 355 c 0
 964 152 814 -16 576 -16 c 0
 452 -16 351 30 277 103 c 1
 201 -26 l 1
576 1304 m 0
 404 1304 301 1178 265 1026 c 0
 241 923 240 816 240 704 c 0
 240 567 243 421 286 314 c 1
 808 1193 l 1
 754 1260 677 1304 576 1304 c 0
EndSplineSet
Validated: 1
Layer: 2
Layer: 3
Layer: 4
EndChar
StartChar: Udieresis
Encoding: 220 220 127
Width: 1024
VWidth: 0
Flags: W
HStem: -16 120<411.882 740.041> 1328 224<264.237 439.763 712.237 887.763>
VStem: 128 128<260.614 1152> 240 224<1352.24 1527.76> 688 224<1352.24 1527.76> 896 128<260.614 1152>
LayerCount: 5
Back
Fore
SplineSet
352 1552 m 0xd0
 418 1552 464 1506 464 1440 c 0
 464 1374 418 1328 352 1328 c 0
 286 1328 240 1374 240 1440 c 0
 240 1506 286 1552 352 1552 c 0xd0
800 1552 m 0
 866 1552 912 1506 912 1440 c 0
 912 1374 866 1328 800 1328 c 0
 734 1328 688 1374 688 1440 c 0xc8
 688 1506 734 1552 800 1552 c 0
128 1152 m 1xe4
 256 1152 l 1
 256 512 l 2
 256 437 256 378 268 330 c 0
 301 196 416 104 576 104 c 0
 736 104 851 196 884 330 c 0
 896 378 896 437 896 512 c 2
 896 1152 l 1
 1024 1152 l 1
 1024 512 l 2
 1024 426 1024 371 1008 303 c 0
 964 118 797 -16 576 -16 c 0
 355 -16 187 118 144 303 c 0
 128 371 128 426 128 512 c 2
 128 1152 l 1xe4
EndSplineSet
Validated: 1
Layer: 2
Layer: 3
Layer: 4
EndChar
StartChar: eacute
Encoding: 233 233 140
Width: 1024
VWidth: 0
Flags: W
HStem: -16 120<456.365 872.381> 512 120<355 797> 920 120<453.486 698.514> 1388 20G<641.031 792>
VStem: 224 128<219.851 512 632 802.112>
LayerCount: 5
Back
Fore
SplineSet
488 1152 m 1
 654 1408 l 1
 792 1408 l 1
 626 1152 l 1
 488 1152 l 1
797 632 m 1
 794 690 786 744 768 789 c 0
 736 868 672 920 576 920 c 0
 480 920 416 868 384 789 c 0
 366 744 358 690 355 632 c 1
 797 632 l 1
352 512 m 1
 352 410 352 308 384 235 c 0
 420 152 485 104 586 104 c 0
 662 104 768 121 896 148 c 1
 896 25 l 1
 769 -1 669 -16 586 -16 c 0
 417 -16 311 78 264 193 c 0
 226 286 224 391 224 512 c 0
 224 633 226 734 264 829 c 0
 310 945 416 1040 576 1040 c 0
 736 1040 842 945 888 829 c 0
 926 734 928 633 928 512 c 1
 352 512 l 1
EndSplineSet
Validated: 1
Layer: 2
Layer: 3
Layer: 4
EndChar
StartChar: ntilde
Encoding: 241 241 148
Width: 1024
VWidth: 0
Flags: W
HStem: 0 21G<256 384 768 896> 920 120<480.405 696.67> 1004 20G<256 384> 1156 120<631.752 755.472> 1284 120<396.554 520.248>
VStem: 256 128<0 850.62 912 1024 1177 1277.1> 768 128<0 849.812 1283.78 1383>
LayerCount: 5
Back
Fore
SplineSet
448 1284 m 0x9e
 397 1284 384 1225 381 1171 c 1
 253 1177 l 1
 257 1295 319 1404 448 1404 c 0
 594 1404 627 1276 704 1276 c 0
 755 1276 768 1335 771 1389 c 1
 899 1383 l 1
 896 1267 833 1156 704 1156 c 0
 558 1156 525 1284 448 1284 c 0x9e
596 1040 m 0xde
 696 1040 777 995 827 933 c 0
 896 847 896 751 896 657 c 2
 896 0 l 1
 768 0 l 1
 768 657 l 2
 768 744 768 806 723 858 c 0
 691 895 640 920 576 920 c 0xde
 512 920 461 895 429 858 c 0
 384 806 384 744 384 657 c 2
 384 0 l 1
 256 0 l 1
 256 1024 l 1
 384 1024 l 1xbe
 384 912 l 1
 394 912 l 1
 443 989 520 1040 596 1040 c 0xde
EndSplineSet
Layer: 2
Layer: 3
Layer: 4
EndChar
StartChar: Abreve
Encoding: 258 258 169
Width: 1024
VWidth: 0
Flags: W
HStem: 0 21G<105 246 906 1047> 384 120<348 804> 1005 147<549.152 602.848> 1264 120<425.835 726.165>
VStem: 105 130<0 194.397> 236 128<1441.88 1536> 788 128<1441.88 1536> 917 130<0 194.346>
LayerCount: 5
Back
Fore
SplineSet
522 1152 m 1
 630 1152 l 1
 851 828 969 478 1047 0 c 1
 917 0 l 1
 895 139 869 266 838 384 c 1
 314 384 l 1
 283 266 257 139 235 0 c 1
 105 0 l 1
 183 478 301 829 522 1152 c 1
348 504 m 1
 804 504 l 1
 748 686 676 848 581 1005 c 1
 571 1005 l 1
 476 849 404 686 348 504 c 1
788 1536 m 5
 916 1536 l 5
 916 1368 764 1264 576 1264 c 4
 388 1264 236 1368 236 1536 c 5
 364 1536 l 5
 364 1450 433 1384 576 1384 c 4
 719 1384 788 1450 788 1536 c 5
EndSplineSet
Validated: 1
Layer: 2
Layer: 3
Layer: 4
EndChar
StartChar: Dcaron
Encoding: 270 270 179
Width: 1024
VWidth: 0
Flags: W
HStem: 0 120<256 693.553> 1032 120<256 693.553>
VStem: 128 128<120 1032> 907 128<343.129 808.871>
LayerCount: 5
Back
Fore
SplineSet
497 1280 m 1
 200 1536 l 1
 358 1536 l 1
 576 1372 l 1
 794 1536 l 1
 952 1536 l 1
 655 1280 l 1
 497 1280 l 1
504 120 m 2
 777 120 907 282 907 576 c 0
 907 870 777 1032 504 1032 c 0
 395 1032 353 1032 256 1032 c 1
 256 120 l 1
 504 120 l 2
504 1152 m 2
 847 1152 1035 939 1035 576 c 0
 1035 213 847 0 504 0 c 0
 384 0 275 0 128 0 c 1
 128 1152 l 1
 504 1152 l 2
EndSplineSet
Validated: 1
Layer: 2
Layer: 3
Layer: 4
EndChar
StartChar: ebreve
Encoding: 277 277 186
Width: 1024
VWidth: 0
Flags: W
HStem: -16 120<456.365 872.381> 512 120<355 797> 920 120<453.486 698.514> 1136 120<425.835 726.165> 1388 20G<236 364 788 916>
VStem: 224 128<219.851 512 632 802.112 1327.25 1408> 788 128<1313.88 1408>
LayerCount: 5
Back
Fore
SplineSet
788 1408 m 1
 916 1408 l 1
 916 1240 764 1136 576 1136 c 0
 388 1136 236 1240 236 1408 c 1
 364 1408 l 1
 364 1322 433 1256 576 1256 c 0
 719 1256 788 1322 788 1408 c 1
797 632 m 1
 794 690 786 744 768 789 c 0
 736 868 672 920 576 920 c 0
 480 920 416 868 384 789 c 0
 366 744 358 690 355 632 c 1
 797 632 l 1
352 512 m 1
 352 410 352 308 384 235 c 0
 420 152 485 104 586 104 c 0
 662 104 768 121 896 148 c 1
 896 25 l 1
 769 -1 669 -16 586 -16 c 0
 417 -16 311 78 264 193 c 0
 226 286 224 391 224 512 c 0
 224 633 226 734 264 829 c 0
 310 945 416 1040 576 1040 c 0
 736 1040 842 945 888 829 c 0
 926 734 928 633 928 512 c 1
 352 512 l 1
EndSplineSet
Layer: 2
Layer: 3
Layer: 4
EndChar
StartChar: uni0122
Encoding: 290 290 271
Width: 1024
VWidth: 0
Flags: W
HStem: -528 120<512 605.023> -16 120<456.029 892.627> 648 120<640 896> 1304 120<456.17 906.185>
VStem: 112 128<357.031 1050.97> 640 128<-361.261 -128> 896 128<131.833 648>
LayerCount: 5
Back
Fore
SplineSet
768 -233 m 2
 768 -293 768 -363 716 -433 c 0
 674 -490 602 -528 512 -528 c 1
 512 -408 l 1
 559 -408 591 -391 612 -363 c 0
 640 -326 640 -283 640 -233 c 2
 640 -128 l 1
 768 -128 l 1
 768 -233 l 2
643 1424 m 0
 766 1424 885 1395 994 1367 c 1
 994 1243 l 1
 881 1272 755 1304 643 1304 c 0
 430 1304 312 1188 268 1016 c 0
 243 919 240 813 240 704 c 0
 240 595 243 489 268 392 c 0
 312 220 430 104 643 104 c 0
 724 104 811 120 896 140 c 1
 896 648 l 1
 640 648 l 1
 640 768 l 1
 1024 768 l 1
 1024 49 l 1
 907 19 777 -16 643 -16 c 0
 366 -16 199 142 143 364 c 0
 114 478 112 594 112 704 c 0
 112 814 114 930 143 1044 c 0
 201 1266 366 1424 643 1424 c 0
EndSplineSet
Validated: 1
Layer: 2
Layer: 3
Layer: 4
EndChar
StartChar: Imacron
Encoding: 298 298 226
Width: 1024
VWidth: 0
Flags: W
HStem: 0 120<256 512 640 896> 1032 120<256 512 640 896> 1416 120<256 896>
VStem: 512 128<120 1032>
LayerCount: 5
Back
Fore
SplineSet
256 1536 m 1
 896 1536 l 1
 896 1416 l 1
 256 1416 l 1
 256 1536 l 1
896 1152 m 1
 896 1032 l 1
 640 1032 l 1
 640 120 l 1
 896 120 l 1
 896 0 l 1
 256 0 l 1
 256 120 l 1
 512 120 l 1
 512 1032 l 1
 256 1032 l 1
 256 1152 l 1
 896 1152 l 1
EndSplineSet
Validated: 1
Layer: 2
Layer: 3
Layer: 4
EndChar
StartChar: jcircumflex
Encoding: 309 309 237
Width: 1024
VWidth: 0
Flags: W
HStem: -400 120<266.903 572.489> 904 120<384 640> 1388 20G<473.797 678.203>
VStem: 640 128<-211.835 904>
LayerCount: 5
Back
Fore
SplineSet
256 -237 m 5
 311 -259 380 -280 448 -280 c 4
 515 -280 565 -256 597 -218 c 4
 640 -166 640 -102 640 -14 c 6
 640 904 l 1
 384 904 l 1
 384 1024 l 1
 768 1024 l 1
 768 -24 l 6
 768 -115 768 -210 700 -292 c 4
 648 -355 564 -400 458 -400 c 4
 383 -400 316 -385 256 -365 c 5
 256 -237 l 5
497 1408 m 1
 655 1408 l 1
 952 1152 l 1
 794 1152 l 1
 576 1316 l 1
 358 1152 l 1
 200 1152 l 1
 497 1408 l 1
EndSplineSet
Layer: 2
Layer: 3
Layer: 4
EndChar
StartChar: Nacute
Encoding: 323 323 238
Width: 1024
VWidth: 0
Flags: W
HStem: 0 21G<128 256 882.624 1024>
VStem: 128 128<0 942> 896 128<210 1152>
DStem2: 255 1152 266 942 0.556531 -0.830827<180.596 1133.81> 488 1280 626 1280 0.544066 0.839042<75.0812 305.11>
LayerCount: 5
Back
Fore
SplineSet
488 1280 m 1
 654 1536 l 1
 792 1536 l 1
 626 1280 l 1
 488 1280 l 1
256 0 m 1
 128 0 l 1
 128 1152 l 1
 255 1152 l 1
 886 210 l 1
 896 210 l 1
 896 1152 l 1
 1024 1152 l 1
 1024 0 l 1
 896 0 l 1
 266 942 l 1
 256 942 l 1
 256 0 l 1
EndSplineSet
Validated: 1
Layer: 2
Layer: 3
Layer: 4
EndChar
StartChar: Omacron
Encoding: 332 332 247
Width: 1024
VWidth: 0
Flags: W
HStem: -16 120<414.083 737.917> 1048 120<414.083 737.917> 1416 120<256 896>
VStem: 112 128<299.47 852.53> 912 128<299.47 852.53>
LayerCount: 5
Back
Fore
SplineSet
256 1536 m 1
 896 1536 l 1
 896 1416 l 1
 256 1416 l 1
 256 1536 l 1
576 -16 m 0
 354 -16 206 110 149 284 c 0
 117 381 112 482 112 576 c 0
 112 670 117 771 149 868 c 0
 206 1042 354 1168 576 1168 c 0
 798 1168 946 1042 1003 868 c 0
 1035 771 1040 670 1040 576 c 0
 1040 482 1035 381 1003 284 c 0
 946 110 798 -16 576 -16 c 0
912 576 m 0
 912 667 907 755 881 833 c 0
 839 961 740 1048 576 1048 c 0
 412 1048 313 961 271 833 c 0
 245 755 240 667 240 576 c 0
 240 485 245 397 271 319 c 0
 313 191 412 104 576 104 c 0
 740 104 839 191 881 319 c 0
 907 397 912 485 912 576 c 0
EndSplineSet
Validated: 1
Layer: 2
Layer: 3
Layer: 4
EndChar
StartChar: Racute
Encoding: 340 340 255
Width: 1024
VWidth: 0
Flags: W
HStem: 0 21G<128 256 789.654 938> 520 120<256 556> 1032 120<256 715.435>
VStem: 128 128<0 520 640 1032> 784 128<710.228 960.388>
DStem2: 360 1280 498 1280 0.544066 0.839042<75.0812 305.11> 689 534 556 520 0.422607 -0.906313<0 530.458>
LayerCount: 5
Back
Fore
SplineSet
553 1032 m 1026,0,-1
360 1280 m 1,1,-1
 526 1536 l 1,2,-1
 664 1536 l 1,3,-1
 498 1280 l 1,4,-1
 360 1280 l 1,1,-1
553 1032 m 2,5,-1
 256 1032 l 1,6,-1
 256 640 l 1,7,-1
 553 640 l 2,8,-1
 589 640 621 641 648 647 c 0,11,-1
 729 666 784 736 784 836 c 0,14,-1
 784 936 729 1007 648 1025 c 0,17,-1
 621 1031 589 1032 553 1032 c 2,5,-1
553 1152 m 2,20,-1
 591 1152 633 1152 679 1141 c 0,23,-1
 812 1109 912 997 912 836 c 0,26,-1
 912 679 817 569 689 534 c 1,29,-1
 938 0 l 1,30,-1
 799 0 l 1,31,-1
 556 520 l 1,32,-1
 256 520 l 1,33,-1
 256 0 l 1,34,-1
 128 0 l 1,35,-1
 128 1152 l 1,36,-1
 553 1152 l 2,20,-1
EndSplineSet
Validated: 1
Layer: 2
Layer: 3
Layer: 4
EndChar
StartChar: racute
Encoding: 341 341 256
Width: 1024
VWidth: 0
Flags: W
HStem: 0 21G<256 384> 920 120<513.451 892.248> 1004 20G<256 384> 1388 20G<641.031 792>
VStem: 256 128<0 771.371 876 1024>
LayerCount: 5
Back
Fore
SplineSet
256 1024 m 1xb8
 384 1024 l 1xb8
 384 876 l 1
 394 876 l 1
 460 982 537 1040 665 1040 c 0
 737 1040 818 1034 896 1026 c 1
 896 903 l 1
 814 913 730 920 665 920 c 0xd8
 589 920 535 903 491 866 c 0
 385 778 384 612 384 535 c 2
 384 0 l 1
 256 0 l 1
 256 1024 l 1xb8
488 1152 m 1
 654 1408 l 1
 792 1408 l 1
 626 1152 l 1
 488 1152 l 1
EndSplineSet
Layer: 2
Layer: 3
Layer: 4
EndChar
StartChar: uni0156
Encoding: 342 342 257
Width: 1024
VWidth: 0
Flags: W
HStem: -528 120<384 477.023> 0 21G<128 256 795.461 937> 640 120<256 561> 1288 120<256 669.513>
VStem: 128 128<0 640 760 1288> 512 128<-361.261 -128> 784 128<876.58 1172.62>
DStem2: 686 670 561 642 0.350817 -0.936444<-2.30507 668.463>
LayerCount: 5
Back
Fore
SplineSet
256 0 m 1
 128 0 l 1
 128 1408 l 1
 449 1408 l 2
 526 1408 578 1408 633 1395 c 0
 792 1357 912 1220 912 1024 c 0
 912 851 818 723 686 670 c 1
 937 0 l 1
 803 0 l 1
 561 642 l 1
 528 640 493 640 449 640 c 2
 256 640 l 1
 256 0 l 1
449 760 m 2
 525 760 565 762 601 770 c 0
 709 794 784 890 784 1024 c 0
 784 1158 709 1254 601 1278 c 0
 565 1286 525 1288 449 1288 c 2
 256 1288 l 1
 256 760 l 1
 449 760 l 2
640 -233 m 2
 640 -293 640 -363 588 -433 c 0
 546 -490 474 -528 384 -528 c 1
 384 -408 l 1
 431 -408 463 -391 484 -363 c 0
 512 -326 512 -283 512 -233 c 2
 512 -128 l 1
 640 -128 l 1
 640 -233 l 2
EndSplineSet
Validated: 1
Layer: 2
Layer: 3
Layer: 4
EndChar
StartChar: Scaron
Encoding: 352 352 267
Width: 1024
VWidth: 0
Flags: W
HStem: -16 120<283.999 798.985> 1048 120<392.177 819.627>
VStem: 152 128<731.719 952.412> 912 128<200.709 419.422>
LayerCount: 5
Back
Fore
SplineSet
497 1280 m 1
 200 1536 l 1
 358 1536 l 1
 576 1372 l 1
 794 1536 l 1
 952 1536 l 1
 655 1280 l 1
 497 1280 l 1
570 1048 m 0
 379 1048 280 952 280 844 c 0
 280 757 338 691 412 659 c 0
 522 612 660 637 792 603 c 0
 920 570 1040 471 1040 311 c 0
 1040 138 897 -16 582 -16 c 0
 465 -16 319 11 192 39 c 1
 192 163 l 1
 319 133 468 104 582 104 c 0
 814 104 912 188 912 311 c 0
 912 417 832 473 744 491 c 0
 613 518 487 491 348 555 c 0
 240 605 152 709 152 844 c 0
 152 999 288 1168 570 1168 c 0
 671 1168 811 1137 930 1105 c 1
 930 980 l 1
 810 1014 669 1048 570 1048 c 0
EndSplineSet
Validated: 1
Layer: 2
Layer: 3
Layer: 4
EndChar
StartChar: tbar
Encoding: 359 359 289
Width: 1024
VWidth: 0
Flags: W
HStem: -16 120<579.511 885.097> 516 120<128 384 512 896> 898 126<128 384 512 896>
VStem: 384 128<172.568 516 636 898 1024 1280>
LayerCount: 5
Back
Fore
SplineSet
896 19 m 1
 836 -1 769 -16 694 -16 c 0
 588 -16 504 29 452 92 c 0
 384 174 384 271 384 360 c 2
 384 516 l 1
 128 516 l 1
 128 636 l 1
 384 636 l 1
 384 898 l 1
 128 898 l 1
 128 1024 l 1
 384 1024 l 1
 384 1280 l 1
 512 1280 l 1
 512 1024 l 1
 896 1024 l 1
 896 898 l 1
 512 898 l 1
 512 636 l 1
 896 636 l 1
 896 516 l 1
 512 516 l 1
 512 370 l 2
 512 284 512 218 555 166 c 0
 587 128 637 104 704 104 c 0
 772 104 841 125 896 147 c 1
 896 19 l 1
EndSplineSet
Validated: 1
Layer: 2
Layer: 3
Layer: 4
EndChar
StartChar: Umacron
Encoding: 362 362 199
Width: 1024
VWidth: 0
Flags: W
HStem: -16 120<411.882 740.041> 1416 120<256 896>
VStem: 128 128<260.614 1152> 896 128<260.614 1152>
LayerCount: 5
Back
Fore
SplineSet
256 1536 m 1
 896 1536 l 1
 896 1416 l 1
 256 1416 l 1
 256 1536 l 1
128 1152 m 1
 256 1152 l 1
 256 512 l 2
 256 437 256 378 268 330 c 0
 301 196 416 104 576 104 c 0
 736 104 851 196 884 330 c 0
 896 378 896 437 896 512 c 2
 896 1152 l 1
 1024 1152 l 1
 1024 512 l 2
 1024 426 1024 371 1008 303 c 0
 964 118 797 -16 576 -16 c 0
 355 -16 187 118 144 303 c 0
 128 371 128 426 128 512 c 2
 128 1152 l 1
EndSplineSet
Layer: 2
Layer: 3
Layer: 4
EndChar
StartChar: uogonek
Encoding: 371 371 208
Width: 1024
VWidth: 0
Flags: W
HStem: -400 120<777.947 896> -16 120<455.33 671.595> 1004 20G<256 384 768 896>
VStem: 256 128<174.188 1024> 640 128<-272.685 -85.8701> 768 128<-27.7611 112 173.38 1024>
LayerCount: 5
Back
Fore
SplineSet
768 0 m 5xf4
 768 112 l 1
 758 112 l 1
 709 35 632 -16 556 -16 c 0
 456 -16 375 29 325 91 c 0
 256 177 256 273 256 367 c 2
 256 1024 l 1
 384 1024 l 1
 384 367 l 2
 384 280 384 218 429 166 c 0
 461 129 512 104 576 104 c 0
 640 104 691 129 723 166 c 0
 768 218 768 280 768 367 c 2
 768 1024 l 1
 896 1024 l 1
 896 0 l 5xf4
 808 -60 768 -113 768 -198 c 4xf8
 768 -258 806 -280 837 -280 c 4
 858 -280 878 -277 896 -268 c 5
 896 -389 l 5xf4
 872 -398 845 -400 817 -400 c 4
 738 -400 640 -325 640 -205 c 4xf8
 640 -107 707 -43 768 0 c 5xf4
EndSplineSet
Layer: 2
Layer: 3
Layer: 4
EndChar
StartChar: Zcaron
Encoding: 381 381 218
Width: 1024
VWidth: 0
Flags: W
HStem: 0 120<283 1024> 1032 120<148 849>
DStem2: 128 92 283 130 0.611882 0.790949<124.898 1176.75>
LayerCount: 5
Back
Fore
SplineSet
497 1280 m 1
 200 1536 l 1
 358 1536 l 1
 576 1372 l 1
 794 1536 l 1
 952 1536 l 1
 655 1280 l 1
 497 1280 l 1
148 1032 m 1
 148 1152 l 1
 1004 1152 l 1
 1004 1062 l 1
 283 130 l 1
 283 120 l 1
 1024 120 l 1
 1024 0 l 1
 128 0 l 1
 128 92 l 1
 849 1022 l 1
 849 1032 l 1
 148 1032 l 1
EndSplineSet
Validated: 1
Layer: 2
Layer: 3
Layer: 4
EndChar
StartChar: longs
Encoding: 383 383 495
Width: 1024
VWidth: 0
Flags: W
HStem: 0 21G<384 512> 776 120<128 384> 1304 120<545.73 892.599>
VStem: 384 128<0 776 896 1268.8>
LayerCount: 5
Back
Fore
SplineSet
512 0 m 1
 384 0 l 1
 384 776 l 1
 128 776 l 1
 128 896 l 1
 384 896 l 1
 384 1129 l 2
 384 1181 384 1259 436 1329 c 0
 480 1388 561 1424 660 1424 c 0
 722 1424 824 1407 896 1395 c 1
 896 1275 l 1
 824 1286 711 1304 660 1304 c 0
 604 1304 563 1289 540 1259 c 0
 512 1222 512 1173 512 1129 c 2
 512 0 l 1
EndSplineSet
Validated: 1
Layer: 2
Layer: 3
Layer: 4
EndChar
StartChar: uni018F
Encoding: 399 399 622
Width: 1024
VWidth: 0
Flags: W
HStem: -16 120<427.625 724.375> 648 120<240 912> 1304 120<237.73 695.83>
VStem: 112 128<345.647 648> 912 128<336.339 648 768 1047.58>
LayerCount: 5
Back
Fore
SplineSet
1040 704 m 0
 1040 577 1038 458 1012 355 c 0
 963 155 821 -16 576 -16 c 0
 331 -16 189 155 140 355 c 0
 114 458 112 591 112 768 c 1
 912 768 l 1
 910 854 904 938 884 1016 c 0
 840 1188 722 1304 509 1304 c 4
 397 1304 271 1278 158 1243 c 1
 158 1367 l 1
 267 1401 386 1424 509 1424 c 4
 786 1424 951 1266 1009 1044 c 0
 1038 930 1040 814 1040 704 c 0
240 648 m 1
 241 553 247 462 265 382 c 0
 301 235 396 104 576 104 c 0
 756 104 851 235 887 382 c 0
 905 462 911 553 912 648 c 1
 240 648 l 1
EndSplineSet
Validated: 1
Layer: 2
Layer: 3
Layer: 4
EndChar
StartChar: uni0208
Encoding: 520 520 446
Width: 1024
VWidth: 0
Flags: W
HStem: 0 120<256 512 640 896> 1032 120<256 512 640 896>
VStem: 512 128<120 1032>
DStem2: 242 1536 104 1536 0.544066 -0.839042<0 230.029> 626 1536 488 1536 0.544066 -0.839042<0 230.029>
LayerCount: 5
Back
Fore
SplineSet
792 1280 m 1
 654 1280 l 1
 488 1536 l 1
 626 1536 l 1
 792 1280 l 1
408 1280 m 1
 270 1280 l 1
 104 1536 l 1
 242 1536 l 1
 408 1280 l 1
896 1152 m 1
 896 1032 l 1
 640 1032 l 1
 640 120 l 1
 896 120 l 1
 896 0 l 1
 256 0 l 1
 256 120 l 1
 512 120 l 1
 512 1032 l 1
 256 1032 l 1
 256 1152 l 1
 896 1152 l 1
EndSplineSet
Validated: 1
Layer: 2
Layer: 3
Layer: 4
EndChar
StartChar: uni020D
Encoding: 525 525 451
Width: 1024
VWidth: 0
Flags: W
HStem: -16 120<453.486 698.514> 920 120<453.486 698.514> 1388 20G<104 254.969 488 638.969>
VStem: 224 128<221.199 802.801> 800 128<221.199 802.801>
DStem2: 242 1408 104 1408 0.544066 -0.839042<0 230.029> 626 1408 488 1408 0.544066 -0.839042<0 230.029>
LayerCount: 5
Back
Fore
SplineSet
792 1152 m 1
 654 1152 l 1
 488 1408 l 1
 626 1408 l 1
 792 1152 l 1
408 1152 m 1
 270 1152 l 1
 104 1408 l 1
 242 1408 l 1
 408 1152 l 1
576 920 m 0
 480 920 416 868 384 789 c 0
 354 714 352 614 352 512 c 0
 352 410 354 310 384 235 c 0
 416 156 480 104 576 104 c 0
 672 104 736 156 768 235 c 0
 798 310 800 410 800 512 c 0
 800 614 798 714 768 789 c 0
 736 868 672 920 576 920 c 0
576 1040 m 0
 736 1040 842 945 888 829 c 0
 926 734 928 633 928 512 c 0
 928 391 926 290 888 195 c 0
 842 79 736 -16 576 -16 c 0
 416 -16 310 79 264 195 c 0
 226 290 224 391 224 512 c 0
 224 633 226 734 264 829 c 0
 310 945 416 1040 576 1040 c 0
EndSplineSet
Validated: 1
Layer: 2
Layer: 3
Layer: 4
EndChar
StartChar: uni0211
Encoding: 529 529 455
Width: 1024
VWidth: 0
Flags: W
HStem: 0 21G<256 384> 920 120<513.451 892.248> 1004 20G<256 384> 1388 20G<104 254.969 488 638.969>
VStem: 256 128<0 771.371 876 1024>
LayerCount: 5
Back
Fore
SplineSet
792 1152 m 1x98
 654 1152 l 1
 488 1408 l 1
 626 1408 l 1
 792 1152 l 1x98
408 1152 m 1
 270 1152 l 1
 104 1408 l 1
 242 1408 l 1
 408 1152 l 1
256 1024 m 1xb8
 384 1024 l 1xb8
 384 876 l 1
 394 876 l 1
 460 982 537 1040 665 1040 c 0
 737 1040 818 1034 896 1026 c 1
 896 903 l 1
 814 913 730 920 665 920 c 0xd8
 589 920 535 903 491 866 c 0
 385 778 384 612 384 535 c 2
 384 0 l 1
 256 0 l 1
 256 1024 l 1xb8
EndSplineSet
Layer: 2
Layer: 3
Layer: 4
EndChar
StartChar: uni0219
Encoding: 537 537 463
Width: 1024
VWidth: 0
Flags: W
HStem: -400 120<512 611.098> -16 120<283.943 711.38> 920 120<422.73 822.146>
VStem: 234 128<692.139 861.96> 640 128<-243.403 -128> 800 128<190.689 434.278>
LayerCount: 5
Back
Fore
SplineSet
716 -315 m 4
 675 -367 602 -400 512 -400 c 5
 512 -280 l 5
 559 -280 593 -268 612 -245 c 4
 640 -211 640 -173 640 -128 c 5
 683 -128 725 -128 768 -128 c 5
 768 -184 768 -249 716 -315 c 4
567 -16 m 0
 474 -16 355 7 256 26 c 1
 256 149 l 1
 351 129 480 104 567 104 c 0
 755 104 800 231 800 313 c 0
 800 397 757 458 700 488 c 0
 614 532 507 510 402 550 c 0
 318 582 234 661 234 776 c 0
 234 904 343 1040 572 1040 c 0
 679 1040 789 1012 886 989 c 1
 886 866 l 1
 788 889 665 920 572 920 c 0
 410 920 362 834 362 776 c 0
 362 719 404 679 450 662 c 0
 543 627 654 651 762 594 c 0
 855 545 928 445 928 313 c 0
 928 147 810 -16 567 -16 c 0
EndSplineSet
Layer: 2
Layer: 3
Layer: 4
EndChar
StartChar: gravecomb
Encoding: 768 768 293
Width: 1024
VWidth: 0
Flags: W
HStem: 1280 256
VStem: 360 304
DStem2: 498 1536 360 1536 0.544066 -0.839042<0 230.029>
LayerCount: 5
Back
Fore
SplineSet
664 1280 m 1
 526 1280 l 1
 360 1536 l 1
 498 1536 l 1
 664 1280 l 1
EndSplineSet
Validated: 1
Layer: 2
Layer: 3
Layer: 4
EndChar
StartChar: uni0304
Encoding: 772 772 297
Width: 1024
VWidth: 0
Flags: W
HStem: 1284 120<256 896>
LayerCount: 5
Back
Fore
SplineSet
256 1404 m 1
 896 1404 l 1
 896 1284 l 1
 256 1284 l 1
 256 1404 l 1
EndSplineSet
Validated: 1
Layer: 2
Layer: 3
Layer: 4
EndChar
StartChar: uni0307
Encoding: 775 775 299
Width: 1024
VWidth: 0
Flags: W
HStem: 1328 224<488.237 663.763>
VStem: 464 224<1352.24 1527.76>
LayerCount: 5
Back
Fore
SplineSet
576 1552 m 0
 642 1552 688 1506 688 1440 c 0
 688 1374 642 1328 576 1328 c 0
 510 1328 464 1374 464 1440 c 0
 464 1506 510 1552 576 1552 c 0
EndSplineSet
Layer: 2
Layer: 3
Layer: 4
EndChar
StartChar: uni0308
Encoding: 776 776 300
Width: 1024
VWidth: 0
Flags: W
HStem: 1328 224<264.237 439.763 712.237 887.763>
VStem: 240 224<1352.24 1527.76> 688 224<1352.24 1527.76>
LayerCount: 5
Back
Fore
SplineSet
800 1552 m 4
 866 1552 912 1506 912 1440 c 4
 912 1374 866 1328 800 1328 c 4
 734 1328 688 1374 688 1440 c 4
 688 1506 734 1552 800 1552 c 4
352 1552 m 4
 418 1552 464 1506 464 1440 c 4
 464 1374 418 1328 352 1328 c 4
 286 1328 240 1374 240 1440 c 4
 240 1506 286 1552 352 1552 c 4
EndSplineSet
Validated: 1
Layer: 2
Layer: 3
Layer: 4
EndChar
StartChar: uni030B
Encoding: 779 779 302
Width: 1024
VWidth: 0
Flags: W
HStem: 1280 256
VStem: 360 560
DStem2: 360 1280 498 1280 0.544066 0.839042<75.0812 305.11> 616 1280 754 1280 0.544066 0.839042<75.0812 305.11>
LayerCount: 5
Back
Fore
SplineSet
616 1280 m 1
 782 1536 l 1
 920 1536 l 1
 754 1280 l 1
 616 1280 l 1
360 1280 m 1
 526 1536 l 1
 664 1536 l 1
 498 1280 l 1
 360 1280 l 1
EndSplineSet
Validated: 1
Layer: 2
Layer: 3
Layer: 4
EndChar
StartChar: uni030F
Encoding: 783 783 435
Width: 1024
VWidth: 0
Flags: W
HStem: 1280 256
VStem: 232 560
LayerCount: 5
Back
Fore
SplineSet
536 1280 m 1
 398 1280 l 1
 232 1536 l 1
 370 1536 l 1
 536 1280 l 1
792 1280 m 1
 654 1280 l 1
 488 1536 l 1
 626 1536 l 1
 792 1280 l 1
EndSplineSet
Validated: 1
Layer: 2
Layer: 3
Layer: 4
EndChar
StartChar: uni0315
Encoding: 789 789 305
Width: 1024
VWidth: 0
Flags: W
HStem: 1024 21G<512 640>
VStem: 512 128<1024 1664>
LayerCount: 5
Back
Fore
SplineSet
512 1664 m 1
 640 1664 l 1
 640 1024 l 1
 512 1024 l 1
 512 1664 l 1
EndSplineSet
Layer: 2
Layer: 3
Layer: 4
EndChar
StartChar: Epsilontonos
Encoding: 904 904 569
Width: 1024
VWidth: 0
Flags: W
HStem: 0 120<384 1024> 644 120<384 896> 1131 307 1288 120<384 1024>
VStem: -126 281 256 128<120 644 764 1288>
LayerCount: 5
Back
Fore
SplineSet
256 1408 m 1xdc
 1024 1408 l 1
 1024 1288 l 1
 384 1288 l 1
 384 764 l 1
 896 764 l 1
 896 644 l 1
 384 644 l 1
 384 120 l 1
 1024 120 l 1
 1024 0 l 1
 256 0 l 1
 256 1408 l 1xdc
EndSplineSet
Refer: 565 900 S 1 0 0 1 -630 0 2
Layer: 2
Layer: 3
Layer: 4
EndChar
StartChar: lambda
Encoding: 955 955 558
Width: 1024
VWidth: 0
Flags: W
HStem: 0 21G<201 357.5 791.5 951> 1310 114<256 436.156>
VStem: 201 135<0 266.172> 816 135<0 186.909>
LayerCount: 5
Back
Fore
SplineSet
497 1024 m 5
 585 1024 l 5
 560 1103 539 1163 505 1238 c 4
 490 1271 470 1296 438 1302 c 4
 399 1309 339 1310 256 1310 c 5
 256 1424 l 5
 341 1424 415 1420 474 1409 c 4
 547 1395 596 1351 616 1297 c 4
 772 882 866 444 951 0 c 5
 816 0 l 5
 767 304 701 618 602 946 c 5
 592 946 l 5
 458 692 379 373 336 0 c 5
 201 0 l 5
 241 361 317 696 497 1024 c 5
EndSplineSet
Validated: 1
Layer: 2
Layer: 3
Layer: 4
EndChar
StartChar: uni03BC
Encoding: 956 956 530
Width: 1024
VWidth: 0
Flags: W
HStem: -16 120<471.819 680.181> 0 21G<768 896> 1004 20G<256 384 768 896>
VStem: 256 128<-384 112 173.38 1024> 768 128<0 112 173.38 1024>
LayerCount: 5
Back
Fore
SplineSet
576 -16 m 4xb8
 508 -16 438 35 394 112 c 5
 384 112 l 5
 384 -384 l 5
 256 -384 l 5
 256 1024 l 5
 384 1024 l 5
 384 367 l 6
 384 280 384 218 429 166 c 4
 461 129 512 104 576 104 c 4xb8
 640 104 691 129 723 166 c 4
 768 218 768 280 768 367 c 6
 768 1024 l 5
 896 1024 l 5
 896 0 l 5
 768 0 l 5x78
 768 112 l 5
 758 112 l 5
 714 35 644 -16 576 -16 c 4xb8
EndSplineSet
Validated: 1
Layer: 2
Layer: 3
Layer: 4
EndChar
StartChar: upsilontonos
Encoding: 973 973 555
Width: 1024
VWidth: 0
Flags: W
HStem: -16 120<456.484 695.516> 1004 20G<256 384 768 896>
VStem: 256 128<177.593 1024> 768 128<177.593 1024>
LayerCount: 5
Back
Fore
SplineSet
690 1438 m 5
 786 1358 l 5
 579 1131 l 5
 504 1194 l 5
 690 1438 l 5
896 337 m 1026
256 337 m 2
 256 1024 l 1
 384 1024 l 1
 384 337 l 2
 384 301 385 268 392 240 c 0
 412 159 478 104 576 104 c 0
 674 104 740 159 760 240 c 0
 767 268 768 301 768 337 c 2
 768 1024 l 1
 896 1024 l 1
 896 337 l 2
 896 299 896 258 887 214 c 0
 860 81 749 -16 576 -16 c 0
 403 -16 292 81 265 214 c 0
 256 258 256 299 256 337 c 2
384 337 m 1026
EndSplineSet
Validated: 1
Layer: 2
Layer: 3
Layer: 4
EndChar
StartChar: uni0403
Encoding: 1027 1027 407
Width: 1024
VWidth: 0
Flags: W
HStem: 0 21G<256 384> 1032 120<384 1024>
VStem: 256 128<0 1032>
DStem2: 488 1280 626 1280 0.544066 0.839042<75.0812 305.11>
LayerCount: 5
Back
Fore
SplineSet
256 1152 m 1
 1024 1152 l 1
 1024 1032 l 1
 384 1032 l 1
 384 0 l 1
 256 0 l 1
 256 1152 l 1
488 1280 m 1
 654 1536 l 1
 792 1536 l 1
 626 1280 l 1
 488 1280 l 1
EndSplineSet
Validated: 1
Layer: 2
Layer: 3
Layer: 4
EndChar
StartChar: uni0405
Encoding: 1029 1029 386
Width: 1024
VWidth: 0
Flags: W
HStem: -16 120<275.193 742.165> 1304 120<431.797 824.505>
VStem: 182 128<887.954 1183.63> 882 128<231.801 511.748>
LayerCount: 5
Back
Fore
SplineSet
576 -16 m 4
 455 -16 329 6 216 34 c 5
 216 157 l 5
 327 129 461 104 576 104 c 4
 755 104 882 205 882 375 c 4
 882 493 813 578 724 612 c 4
 609 656 499 629 367 701 c 4
 260 760 182 880 182 1035 c 4
 182 1262 341 1424 576 1424 c 4
 685 1424 798 1398 896 1369 c 5
 896 1245 l 5
 799 1275 676 1304 576 1304 c 4
 411 1304 310 1194 310 1035 c 4
 310 927 361 845 433 805 c 4
 530 751 655 767 772 722 c 4
 901 672 1010 551 1010 375 c 4
 1010 139 825 -16 576 -16 c 4
EndSplineSet
Validated: 1
Layer: 2
Layer: 3
Layer: 4
EndChar
StartChar: uni040D
Encoding: 1037 1037 403
Width: 1024
VWidth: 0
Flags: W
HStem: 0 21G<128 269.376 896 1024>
VStem: 128 128<210 1152> 896 128<0 942>
DStem2: 266 210 256 0 0.556531 0.830827<0 953.214> 498 1536 360 1536 0.544066 -0.839042<0 230.029>
LayerCount: 5
Back
Fore
SplineSet
664 1280 m 1
 526 1280 l 1
 360 1536 l 1
 498 1536 l 1
 664 1280 l 1
896 0 m 1
 896 942 l 1
 886 942 l 1
 256 0 l 1
 128 0 l 1
 128 1152 l 1
 256 1152 l 1
 256 210 l 1
 266 210 l 1
 897 1152 l 1
 1024 1152 l 1
 1024 0 l 1
 896 0 l 1
EndSplineSet
Validated: 1
Layer: 2
Layer: 3
Layer: 4
EndChar
StartChar: uni040E
Encoding: 1038 1038 417
Width: 1024
VWidth: 0
Flags: W
HStem: -16 114<256 435.451> 1264 120<425.835 726.165>
VStem: 137 135<991.251 1152> 236 128<1441.88 1536> 788 128<1441.88 1536> 880 135<1041.1 1152>
LayerCount: 5
Back
SplineSet
481 384 m 5
 272.067650809 712 183.831062869 1047 137 1408 c 5
 272 1408 l 5
 322.494915254 1035.11663067 417.213135594 716.399568035 576 462 c 5
 586 462 l 5
 722.06876277 790.264324494 813.296805054 1103.64901129 880 1408 c 5
 1015 1408 l 5
 909.761770357 964.039664217 768.412950566 524.353386837 556 111 c 4
 509.713110185 20.9261950824 410.183488425 -16 256 -16 c 5
 256 98 l 5
 364.776889414 98 425.202637764 108.193235441 455 160 c 4
 495.63864039 230.65580027 528.520425697 301.334983342 559 384 c 5
 481 384 l 5
EndSplineSet
Fore
SplineSet
481 384 m 1xe4
 272 630 184 881 137 1152 c 1
 272 1152 l 1
 322 880 417 648 576 462 c 1
 586 462 l 1
 712 701 813 930 880 1152 c 1
 1015 1152 l 1
 911 816 736 461 561 111 c 0
 515 19 413 -16 256 -16 c 1
 256 98 l 1
 365 98 425 108 455 160 c 0
 496 231 529 301 559 384 c 1
 481 384 l 1xe4
788 1536 m 1xd8
 916 1536 l 1
 916 1368 764 1264 576 1264 c 0
 388 1264 236 1368 236 1536 c 1
 364 1536 l 1
 364 1450 433 1384 576 1384 c 0
 719 1384 788 1450 788 1536 c 1xd8
EndSplineSet
Layer: 2
Layer: 3
Layer: 4
EndChar
StartChar: uni0425
Encoding: 1061 1061 340
Width: 1024
VWidth: 0
Flags: W
HStem: 0 21G<89 247.987 904.013 1063> 1388 20G<121 278.377 873.623 1031>
DStem2: 89 0 237 0 0.493105 0.86997<72.9796 766.618> 268 1408 121 1408 0.491201 -0.871046<0 642.923 850.583 1544.24> 581 824 660 721 0.475169 0.879895<0 657.835>
LayerCount: 5
Back
Fore
SplineSet
571 824 m 1
 581 824 l 1
 884 1408 l 1
 1031 1408 l 1
 660 721 l 1
 660 711 l 1
 1063 0 l 1
 915 0 l 1
 581 608 l 1
 571 608 l 1
 237 0 l 1
 89 0 l 1
 492 711 l 1
 492 721 l 1
 121 1408 l 1
 268 1408 l 1
 571 824 l 1
EndSplineSet
Validated: 1
Layer: 2
Layer: 3
Layer: 4
EndChar
StartChar: uni0430
Encoding: 1072 1072 351
Width: 1024
VWidth: 0
Flags: W
HStem: -16 120<423.655 653.37> 0 21G<768 896> 512 110<427.031 768> 920 120<324.593 734.871>
VStem: 224 128<177.716 436.002> 768 128<0 123 205.213 512 622 886.778>
LayerCount: 5
Back
Fore
SplineSet
768 512 m 1xbc
 572 512 l 2
 517 512 459 512 408 458 c 0
 372 420 352 362 352 303 c 0
 352 194 425 104 532 104 c 0
 638 104 715 162 746 235 c 0
 768 287 768 349 768 421 c 2
 768 512 l 1xbc
608 1040 m 0
 704 1040 805 1021 866 913 c 0
 896 860 896 785 896 749 c 2
 896 0 l 1
 768 0 l 1x7c
 768 123 l 1
 758 123 l 1
 694 35 617 -16 508 -16 c 0
 455 -16 347 10 283 106 c 0
 249 157 224 224 224 301 c 0
 224 383 249 470 312 533 c 0
 402 622 512 622 574 622 c 2
 768 622 l 1
 768 744 l 2
 768 788 768 831 750 862 c 0
 729 898 696 920 608 920 c 0
 549 920 418 906 320 891 c 1
 320 1013 l 1
 417 1027 545 1040 608 1040 c 0
EndSplineSet
Layer: 2
Layer: 3
Layer: 4
EndChar
StartChar: uni0436
Encoding: 1078 1078 357
Width: 1024
VWidth: 0
Flags: W
HStem: 0 21G<84 226.336 512 640 925.664 1068> 482 100<447 512 640 705> 1004 20G<141 278.964 512 640 873.036 1011>
VStem: 512 128<0 482 582 1024>
DStem2: 84 0 217 0 0.428885 0.903359<57.0417 588.96> 271 1024 141 1024 0.373679 -0.927558<0 475.748> 705 582 814 535 0.373679 0.927558<0 475.748> 814 535 710 482 0.428885 -0.903359<3.27404 535.192>
LayerCount: 5
Back
Fore
SplineSet
512 0 m 1
 512 482 l 1
 442 482 l 1
 217 0 l 1
 84 0 l 1
 338 535 l 1
 141 1024 l 1
 271 1024 l 1
 447 582 l 1
 512 582 l 1
 512 1024 l 1
 640 1024 l 1
 640 582 l 1
 705 582 l 1
 881 1024 l 1
 1011 1024 l 1
 814 535 l 1
 1068 0 l 1
 935 0 l 1
 710 482 l 1
 640 482 l 1
 640 0 l 1
 512 0 l 1
EndSplineSet
Validated: 1
Layer: 2
Layer: 3
Layer: 4
EndChar
StartChar: uni0438
Encoding: 1080 1080 359
Width: 1024
VWidth: 0
Flags: W
HStem: 0 21G<256 393.664 768 896> 1004 20G<256 384 759.31 896>
VStem: 256 128<250 1024> 768 128<0 774>
DStem2: 394 250 384 0 0.436017 0.899939<0 630.278>
LayerCount: 5
Back
Fore
SplineSet
768 0 m 5
 768 774 l 5
 758 774 l 5
 384 0 l 5
 256 0 l 5
 256 1024 l 5
 384 1024 l 5
 384 250 l 5
 394 250 l 5
 769 1024 l 5
 896 1024 l 5
 896 0 l 5
 768 0 l 5
EndSplineSet
Validated: 1
Layer: 2
Layer: 3
Layer: 4
EndChar
StartChar: uni0439
Encoding: 1081 1081 360
Width: 1024
VWidth: 0
Flags: W
HStem: 0 21G<256 393.664 768 896> 1004 20G<256 384 759.31 896> 1136 120<425.835 726.165> 1388 20G<236 364 788 916>
VStem: 236 128<1313.88 1408> 256 128<250 1024> 768 128<0 774> 788 128<1313.88 1408>
DStem2: 394 250 384 0 0.436017 0.899939<0 630.278>
LayerCount: 5
Back
Fore
SplineSet
768 0 m 5xf6
 768 774 l 5
 758 774 l 5
 384 0 l 5
 256 0 l 5
 256 1024 l 5
 384 1024 l 5
 384 250 l 5
 394 250 l 5
 769 1024 l 5
 896 1024 l 5
 896 0 l 5
 768 0 l 5xf6
788 1408 m 1xf9
 916 1408 l 1
 916 1240 764 1136 576 1136 c 0
 388 1136 236 1240 236 1408 c 1
 364 1408 l 1
 364 1322 433 1256 576 1256 c 0
 719 1256 788 1322 788 1408 c 1xf9
EndSplineSet
Validated: 1
Layer: 2
Layer: 3
Layer: 4
EndChar
StartChar: uni0443
Encoding: 1091 1091 370
Width: 1024
VWidth: 0
Flags: W
HStem: -400 114<256 436.156> 1004 20G<201 357.5 791.5 951>
VStem: 201 135<757.828 1024> 816 135<837.091 1024>
LayerCount: 5
Back
Fore
SplineSet
497 0 m 1
 317 328 241 663 201 1024 c 1
 336 1024 l 1
 379 651 458 332 592 78 c 1
 602 78 l 1
 701 406 767 720 816 1024 c 1
 951 1024 l 1
 866 580 772 142 616 -273 c 0
 596 -327 547 -371 474 -385 c 0
 415 -396 341 -400 256 -400 c 1
 256 -286 l 1
 339 -286 399 -285 438 -278 c 0
 470 -272 490 -247 505 -214 c 0
 539 -139 560 -79 585 0 c 1
 497 0 l 1
EndSplineSet
Validated: 1
Layer: 2
Layer: 3
Layer: 4
EndChar
StartChar: uni044D
Encoding: 1101 1101 379
Width: 1024
VWidth: 0
Flags: W
HStem: -16 120<274.627 691.638> 512 120<384 798> 920 120<280.242 691.638>
VStem: 800 128<228.445 512 632 795.555>
LayerCount: 5
Back
Fore
SplineSet
928 512 m 4
 928 391 926 286 885 193 c 4
 835 78 734 -16 546 -16 c 4
 449 -16 355 -1 256 25 c 5
 256 148 l 5
 356 121 456 104 546 104 c 4
 666 104 725 152 765 235 c 4
 800 308 800 410 800 512 c 5
 384 512 l 5
 384 632 l 5
 798 632 l 5
 795 691 786 745 765 789 c 4
 725 872 666 920 546 920 c 4
 460 920 367 905 276 880 c 5
 276 1003 l 5
 366 1026 453 1040 546 1040 c 4
 734 1040 835 946 885 831 c 4
 926 738 928 633 928 512 c 4
EndSplineSet
Layer: 2
Layer: 3
Layer: 4
EndChar
StartChar: uni045D
Encoding: 1117 1117 408
Width: 1024
VWidth: 0
Flags: W
HStem: 0 21G<256 394.108 768 896> 1388 20G<360 510.969>
VStem: 256 128<240 980> 768 128<0 740>
DStem2: 498 1408 360 1408 0.544066 -0.839042<0 230.029> 394 240 384 0 0.452029 0.892003<0 610.54>
LayerCount: 5
Back
Fore
SplineSet
768 0 m 1
 768 740 l 1
 758 740 l 1
 384 0 l 1
 256 0 l 1
 256 980 l 1
 384 980 l 1
 384 240 l 1
 394 240 l 1
 769 980 l 1
 896 980 l 1
 896 0 l 1
 768 0 l 1
664 1152 m 1
 526 1152 l 1
 360 1408 l 1
 498 1408 l 1
 664 1152 l 1
EndSplineSet
Validated: 1
Layer: 2
Layer: 3
Layer: 4
EndChar
StartChar: bullet
Encoding: 8226 8226 598
Width: 1024
VWidth: 0
Flags: W
HStem: 496 416<448.059 703.941>
VStem: 368 416<576.059 831.941>
LayerCount: 5
Back
Fore
SplineSet
576 912 m 4
 699 912 784 827 784 704 c 4
 784 581 699 496 576 496 c 4
 453 496 368 581 368 704 c 4
 368 827 453 912 576 912 c 4
EndSplineSet
Layer: 2
Layer: 3
Layer: 4
EndChar
StartChar: guilsinglleft
Encoding: 8249 8249 593
Width: 1024
VWidth: 0
Flags: W
HStem: 1019 20G<690.035 735.588>
VStem: 384 425
LayerCount: 5
Back
Fore
SplineSet
509 581 m 5
 509 571 l 5
 809 181 l 5
 705 113 l 5
 384 542 l 5
 384 610 l 5
 705 1039 l 5
 809 971 l 5
 509 581 l 5
EndSplineSet
Validated: 1
Layer: 2
Layer: 3
Layer: 4
EndChar
StartChar: arrowright
Encoding: 8594 8594 588
Width: 1024
VWidth: 0
Flags: W
HStem: 644 120<128 857>
DStem2: 703 1167 599 1099 0.599104 -0.800671<0 414.933> 599 309 703 241 0.599104 0.800671<7.86114 422.794>
LayerCount: 5
Back
Fore
SplineSet
857 764 m 5
 599 1099 l 5
 703 1167 l 5
 1024 738 l 5
 1024 670 l 5
 703 241 l 5
 599 309 l 5
 857 644 l 5
 128 644 l 5
 128 764 l 5
 857 764 l 5
EndSplineSet
Validated: 1
Layer: 2
Layer: 3
Layer: 4
EndChar
StartChar: arrowdown
Encoding: 8595 8595 589
Width: 1024
VWidth: 0
Flags: W
VStem: 512 128<298 1280>
LayerCount: 5
Back
Fore
SplineSet
640 298 m 5
 971 553 l 5
 1039 449 l 5
 610 128 l 5
 542 128 l 5
 113 449 l 5
 181 553 l 5
 512 298 l 5
 512 1280 l 5
 640 1280 l 5
 640 298 l 5
EndSplineSet
Layer: 2
Layer: 3
Layer: 4
EndChar
StartChar: arrowupdn
Encoding: 8597 8597 591
Width: 1024
VWidth: 0
Flags: W
VStem: 512 128<298 1110>
DStem2: 113 959 181 855 0.800671 0.599104<0 409.933> 181 553 113 449 0.800671 -0.599104<7.86114 417.794> 610 1280 640 1110 0.800671 -0.599104<125.868 535.8> 640 298 610 128 0.800671 0.599104<0 409.933>
LayerCount: 5
Back
Fore
SplineSet
640 1110 m 5
 640 298 l 5
 971 553 l 5
 1039 449 l 5
 610 128 l 5
 542 128 l 5
 113 449 l 5
 181 553 l 5
 512 298 l 5
 512 1110 l 5
 181 855 l 5
 113 959 l 5
 542 1280 l 5
 610 1280 l 5
 1039 959 l 5
 971 855 l 5
 640 1110 l 5
EndSplineSet
Validated: 1
Layer: 2
Layer: 3
Layer: 4
EndChar
StartChar: notequal
Encoding: 8800 8800 579
Width: 1024
VWidth: 0
Flags: W
HStem: 388 120<128 353 546 1024> 900 120<128 606 799 1024>
DStem2: 224 128 358 128 0.443475 0.896287<59.4257 290.243 483.388 861.341 1054.49 1285.3>
LayerCount: 5
Back
SplineSet
256 58 m 29
 896 1350 l 1053
EndSplineSet
Fore
SplineSet
546 508 m 5
 1024 508 l 5
 1024 388 l 5
 486 388 l 5
 358 128 l 5
 224 128 l 5
 353 388 l 5
 128 388 l 5
 128 508 l 5
 412 508 l 5
 606 900 l 5
 128 900 l 5
 128 1020 l 5
 666 1020 l 5
 794 1280 l 5
 928 1280 l 5
 799 1020 l 5
 1024 1020 l 5
 1024 900 l 5
 740 900 l 5
 546 508 l 5
EndSplineSet
Validated: 1
Layer: 2
Layer: 3
Layer: 4
EndChar
StartChar: lessequal
Encoding: 8804 8804 577
Width: 1024
VWidth: 0
Flags: W
HStem: 260 120<128 1024>
DStem2: 128 976 274 901 0.946979 0.321296<114.162 904.398> 274 891 128 816 0.946979 -0.321296<0 790.237>
LayerCount: 5
Back
Fore
SplineSet
1024 380 m 1
 1024 260 l 1
 128 260 l 1
 128 380 l 1
 1024 380 l 1
274 901 m 1
 274 891 l 1
 1024 642 l 5
 1024 512 l 1
 128 816 l 1
 128 976 l 1
 1024 1280 l 1
 1024 1150 l 1
 274 901 l 1
EndSplineSet
Validated: 1
Layer: 2
Layer: 3
Layer: 4
EndChar
StartChar: greaterequal
Encoding: 8805 8805 578
Width: 1024
VWidth: 0
Flags: W
HStem: 260 120<128 1024>
DStem2: 128 1280 128 1150 0.946979 -0.321296<41.7685 832.005> 128 642 128 512 0.946979 0.321296<0 790.237>
LayerCount: 5
Back
Fore
SplineSet
128 380 m 1
 1024 380 l 1
 1024 260 l 1
 128 260 l 1
 128 380 l 1
878 901 m 1
 128 1150 l 1
 128 1280 l 1
 1024 976 l 1
 1024 816 l 1
 128 512 l 1
 128 642 l 5
 878 891 l 1
 878 901 l 1
EndSplineSet
Validated: 1
Layer: 2
Layer: 3
Layer: 4
EndChar
StartChar: asterisk.alt
Encoding: 57344 57344 498
Width: 1024
VWidth: 0
Flags: W
DStem2: 246 1122 152 1040 0.707107 -0.707107<0 378.302 577.706 1057.83> 152 368 246 286 0.707107 0.707107<8.48528 386.787 586.192 1066.32>
LayerCount: 5
Back
Fore
SplineSet
725 640 m 1
 1000 368 l 1
 906 286 l 1
 640 555 l 1
 581 640 l 1
 571 640 l 1
 512 555 l 1
 246 286 l 1
 152 368 l 1
 427 640 l 1
 512 699 l 1
 512 709 l 1
 427 768 l 1
 152 1040 l 1
 246 1122 l 1
 512 853 l 1
 571 768 l 1
 581 768 l 1
 640 853 l 1
 906 1122 l 1
 1000 1040 l 1
 725 768 l 1
 640 709 l 1
 640 699 l 1
 725 640 l 1
EndSplineSet
Validated: 1
Layer: 2
Layer: 3
Layer: 4
EndChar
StartChar: W.alt
Encoding: 57351 57351 505
Width: 1024
VWidth: 0
Flags: W
HStem: 0 21G<128 266.032 886 1024> 1388 20G<128 256 896 1024>
VStem: 128 128<258 1408> 896 128<258 1408>
LayerCount: 5
Back
Fore
SplineSet
256 1408 m 1
 256 258 l 1
 266 258 l 1
 521 768 l 1
 631 768 l 1
 886 258 l 1
 896 258 l 1
 896 1408 l 1
 1024 1408 l 1
 1024 0 l 1
 896 0 l 1
 582 628 l 1
 571 628 l 1
 256 0 l 1
 128 0 l 1
 128 1408 l 1
 256 1408 l 1
EndSplineSet
Validated: 1
Layer: 2
Layer: 3
Layer: 4
EndChar
StartChar: dollar.alt
Encoding: 57355 57355 509
Width: 1024
VWidth: 0
Flags: W
VStem: 234 128<846.092 1095.35> 512 128<-128 117 1290.64 1536> 800 128<318.39 562.278>
LayerCount: 5
Back
SplineSet
640 -128 m 5xde
 512 -128 l 5
 512 -13.7537457159 l 5
 411.222464039 -6.94556431245 309.190448269 14.2073384208 216 34 c 5
 216 157 l 5
 306.928445068 137.339795661 413.290993603 114.324351438 512 106.643666154 c 5
 512 652.024221791 l 5xbe
 465.919992041 660.086337289 418.1090726 673.122324036 367 701 c 4
 260 760 182 880 182 1035 c 4
 182 1240.72612805 312.594327894 1393.06463777 512 1419.81131933 c 5
 512 1536 l 5
 640 1536 l 5
 640 1420.84485823 l 5
 728.445896577 1412.50429238 817.086083134 1389.13110124 896 1369 c 5
 896 1245 l 5
 818.891750272 1265.66819065 725.353727287 1290.75978179 640 1300.18165591 c 5
 640 753.633443499 l 5
 683.872032559 747.033535457 728.489216165 738.734916859 772 722 c 4
 901 672 1010 551 1010 375 c 4
 1010 159.712626945 856.048175732 11.8311877582 640 -12.4682432816 c 5
 640 -128 l 5xde
640 108.59101919 m 5
 784.522408191 130.088423589 882 226.064078586 882 375 c 4
 882 493 813 578 724 612 c 4
 695.83228265 622.777213595 667.964535169 629.294855065 640 634.051027535 c 5xde
 640 108.59101919 l 5
512 1297.98601672 m 5
 385.267680689 1273.00191674 310 1172.25896012 310 1035 c 4
 310 927 361 845 433 805 c 4
 457.714172489 791.241594697 484.245980115 782.027277238 512 775.190369925 c 5xbe
 512 1297.98601672 l 5
EndSplineSet
Fore
SplineSet
640 117 m 5
 640 -128 l 5
 512 -128 l 5
 512 114 l 5
 430 120 336 139 256 154 c 5
 256 277 l 5
 351 257 480 232 567 232 c 4
 755 232 800 359 800 441 c 4
 800 525 757 586 700 616 c 4
 612 662 503 633 402 685 c 4
 318 728 234 824 234 968 c 4
 234 1112 324 1265 512 1292 c 5
 512 1536 l 5
 640 1536 l 5
 640 1293 l 5
 725 1286 809 1270 886 1255 c 5
 886 1132 l 5
 788 1151 665 1176 572 1176 c 4
 410 1176 362 1052 362 968 c 4
 362 884 404 827 450 799 c 4
 536 746 651 781 762 722 c 4
 855 673 928 573 928 441 c 4
 928 293 834 146 640 117 c 5
EndSplineSet
Validated: 1
Layer: 2
Layer: 3
Layer: 4
EndChar
StartChar: uniE0A2
Encoding: 57506 57506 616
Width: 1024
VWidth: 0
Flags: W
HStem: 0 128<512 640> 576 192<485.5 666.5> 1280 120<418.712 733.161>
VStem: 128 384<128 371.762> 128 320<357.294 538.5> 256 128<768 1246.01> 640 384<128 371.762> 704 320<357.294 538.5> 768 128<768 1246.04>
LayerCount: 5
Back
SplineSet
448 576 m 4
 448 647 505 704 576 704 c 4
 647 704 704 647 704 576 c 4
 704 505 647 448 576 448 c 4
 505 448 448 505 448 576 c 4
EndSplineSet
Fore
SplineSet
512 1280 m 1xf2
 449 1280 402.241159042 1244.04502251 390 1191 c 0
 384 1165 384 1145 384 1120 c 2
 384 768 l 5
 768 768 l 5
 768 1120 l 2xe480
 768 1145 767.892363347 1164.97539522 762 1191 c 0
 750 1244 703 1280 640 1280 c 1
 512 1280 l 1xf2
640 1400 m 1xf2
 766 1400 861.186798625 1323.12093899 887 1217 c 0
 896 1180 896 1148 896 1120 c 2
 896 768 l 5xe080
 973 768 1024 695 1024 640 c 6xe1
 1024 128 l 2xe2
 1024 51 951 -6.73555739531e-15 896 0 c 2
 256 0 l 2xe480
 179 0 128 73 128 128 c 2xf0
 128 640 l 6xe8
 128 717 201 768 256 768 c 5
 256 1120 l 2xe4
 256 1146.72455032 256.258954984 1179.93796913 265 1217 c 0
 290 1323 386 1400 512 1400 c 1
 640 1400 l 1xf2
576 576 m 4
 505.333333333 576 448 518.666666667 448 448 c 4xe9
 448 398.589209108 474.722215632 356.527751459 512 340.934570312 c 5
 512 128 l 1
 640 128 l 1
 640 340.934570312 l 5xf2
 677.277784368 356.527751459 704 398.589209108 704 448 c 4xe1
 704 518.666666667 646.666666667 576 576 576 c 4
EndSplineSet
Layer: 2
SplineSet
384 768 m 5
 896 768 l 5
 896 128 l 5
 384 128 l 5
 384 768 l 5
EndSplineSet
Layer: 3
Layer: 4
EndChar
StartChar: uniE0B1
Encoding: 57521 57521 618
Width: 1024
VWidth: 2048
Flags: W
LayerCount: 5
Back
Fore
SplineSet
107 1336 m 5
 203 1431 l 5
 1024 512 l 5
 203 -407 l 5
 107 -312 l 5
 839 512 l 5
 107 1336 l 5
EndSplineSet
Validated: 1
Layer: 2
Layer: 3
Layer: 4
EndChar
